<svg width="24" height="24" fill="none" xmlns="http://www.w3.org/2000/svg"><path d="M20.016 14.02c-.403-.375-.736-.6-.867-.96a.683.683 0 0 1-.047-.357c.019-.281.258-.647 1.856-2.76.666-.882 1.533-1.946 1.533-2.743 0-.516-.211-.642-.975-.642h-3.469c-.305 0-.51.417-.637.769-.132.351-.385.89-1.003 2.053-.647 1.218-1.514 2.287-1.876 2.456a.443.443 0 0 1-.548-.136c-.108-.131-.276-.36-.21-2.527.037-1.209.173-2.053-.08-2.568a.89.89 0 0 0-.226-.258c-.36-.258-1.378-.352-2.25-.352-.871 0-1.542.099-1.875.197-.332.099-.707.324-.885.563-.118.154.201.075.51.215.188.085.436.216.525.436.375.975.455 1.749.249 3.127-.052.337-.108.867-.31 1.195-.112.183-.37.169-.445.145-.754-.23-1.34-1.218-1.931-2.376-.614-1.21-.928-2.058-1.097-2.405-.169-.347-.426-.534-.862-.534H1.983c-.244 0-.464.201-.464.422 0 .515.872 2.015 1.397 3.093a23.376 23.376 0 0 0 3.862 5.635C8.532 17.639 10.922 18 11.686 18c.764 0 1.36-.028 1.561-.07a.686.686 0 0 0 .267-.117c.333-.258.272-.75.296-1.135.023-.394.065-.914.328-1.219.244-.286.52-.365.872-.192.328.164.562.44.806.708.473.51.905 1.088 1.467 1.51.258.192.54.313.84.407.398.122.773.127 1.185.108.455-.019.797-.014 1.36-.014.562 0 1.298.023 1.551-.164.122-.094.281-.235.281-.53 0-.558-.572-1.486-2.484-3.272z" fill="#ABABAB"/></svg>