<svg width="16" height="16" fill="none" xmlns="http://www.w3.org/2000/svg"><path d="M1.505 3.542A1 1 0 0 0 1 4.414v9.274a1 1 0 0 0 1.508.863l2.63-1.72a.25.25 0 0 0 .113-.21V1.45a.25.25 0 0 0-.391-.207L1.505 3.542zm5.131-2.314a.25.25 0 0 0-.386.21V12.61a.25.25 0 0 0 .113.21l3 1.95a.25.25 0 0 0 .387-.209V3.396a.25.25 0 0 0-.114-.21l-3-1.958zm7.881.224a.989.989 0 0 0-1.024-.004l-2.63 1.719a.25.25 0 0 0-.113.21v11.17a.25.25 0 0 0 .391.207l3.346-2.295a1.001 1.001 0 0 0 .513-.875v-9.25a1.024 1.024 0 0 0-.483-.882z" fill="#56C37C"/></svg>