<svg width="14" height="14" fill="none" xmlns="http://www.w3.org/2000/svg"><path d="M11.219 14c-.61 0-1.467-.22-2.75-.938-1.56-.874-2.768-1.682-4.32-3.23C2.654 8.337 1.926 7.368.907 5.514-.245 3.42-.049 2.323.17 1.854.432 1.294.817.958 1.316.625a5.51 5.51 0 0 1 .981-.513c.155-.07.39-.175.686-.062.198.074.375.226.652.5.568.56 1.344 1.807 1.63 2.42.192.412.32.685.32.99 0 .358-.18.634-.399.932-.04.056-.081.11-.12.161-.239.313-.29.403-.256.564.07.324.589 1.289 1.443 2.141.854.852 1.79 1.34 2.116 1.409.168.036.26-.019.583-.265l.143-.109c.334-.247.597-.423.946-.423h.002c.304 0 .564.132.996.35.562.283 1.847 1.05 2.41 1.618.274.276.427.452.502.65.112.298.006.531-.063.688l-.037.086c-.132.311-.292.61-.478.893-.332.497-.67.881-1.231 1.143a2.106 2.106 0 0 1-.923.202z" fill="#3D3D3D"/></svg>