<svg width="24" height="24" fill="none" xmlns="http://www.w3.org/2000/svg"><path d="M15.75 4.5c.994 0 1.936.394 2.648 1.102A3.717 3.717 0 0 1 19.5 8.25v7.5c0 .994-.394 1.936-1.102 2.648A3.716 3.716 0 0 1 15.75 19.5h-7.5a3.744 3.744 0 0 1-2.648-1.102A3.716 3.716 0 0 1 4.5 15.75v-7.5c0-.994.394-1.936 1.102-2.648A3.716 3.716 0 0 1 8.25 4.5h7.5zm0-1.5h-7.5C5.362 3 3 5.362 3 8.25v7.5C3 18.637 5.362 21 8.25 21h7.5c2.887 0 5.25-2.363 5.25-5.25v-7.5C21 5.362 18.637 3 15.75 3z" fill="#ABABAB"/><path d="M16.875 8.25a1.122 1.122 0 0 1-1.125-1.125 1.125 1.125 0 1 1 1.125 1.125zM12 9c1.655 0 3 1.345 3 3s-1.345 3-3 3-3-1.345-3-3 1.345-3 3-3zm0-1.5a4.501 4.501 0 0 0 0 9 4.501 4.501 0 0 0 0-9z" fill="#ABABAB"/></svg>