<svg width="180" height="63" fill="none" xmlns="http://www.w3.org/2000/svg"><path d="M8.124 1.962c.426 2.747.59 6.247.426 10.49l-.213 5.515-.213 5.557c-.054 1.412-.057 3.228 0 5.421l.071 2.748v2.8c0 3.575.213 19.573.213 21.5v1.311c0 .675.12 1.042.201 1.103.094.07.44.202 1.006.146l.627-.063h.415c1.373 0 3.196.067 5.479 0l2.84-.083h2.781c-.047-.374-.052-.762-.07-1.165a13.571 13.571 0 0 1 0-1.457c.066-1.122.263-1.758.627-1.988.144-.09.402-.177.792-.177.414 0 .697.078.829.24.137.168.262.485.213.947l-.071.666v1.259l.071.635c.06.544-.071.924-.071 1.123v.188l-.07.24c-.047.155-.048.312-.143.426-.036.083-.14.13-.272.187l-.142.063-.072.062c-.177.083-.634.22-1.348.146l-.793-.084h-3.125l-2.769.084H12.74l-2.568-.084c-1.937-.062-3.716.084-5.338.209-1.31.1-2.473.489-3.538.489h-.13v.062l-.426.062c-.37.054-.64-.032-.722-.364-.08-.324.118-.603.485-.832.899-.198 1.375-.325 1.42-.364.045-.04.071-.438.071-1.187v-1.248c0-1.156.056-2.886-.071-5.183l-.142-2.56v-15.86c0-1-.038-2.23.07-3.695l.143-1.914.071-2.02c.115-3.288.156-5.91.071-7.856-.14-3.216-.074-7.461.165-12.748.008-.164.047-.382.072-.676l.07-.822c.05-.583.044-.926 0-1-.048-.08-.223-.089-.52-.062-.14.013-.364.062-.698.125C.519 2.407.158 2.44.16 2.42.239 1.587.452 1.112.74.963c.29-.151.836-.307 1.633-.187l.414.062H3.2c.284 0 .497-.046.663-.125.092-.044.392-.049.9 0 .33.032.827 0 1.49 0h.864L8.03.651c1.455-.1 2.298-.01 2.498.25.048.063.059.25.059.52 0 .28-.02.442-.06.478-.184.17-.523.212-1.005.125l-.7-.124c-.23-.04-.46.021-.698.063zM4.136 4.709l-.13 3.382-.142 3.445c-.12 2.899-.17 5.15-.308 6.743-.06.705-.1 1.605-.071 2.674l.071 2.685.107 5.12.13 5.182c.106 4.252.038 20.952-.071 23.614-.03.747.006 1.134.142 1.186.37.142.603.104.698-.187v-.697l-.07-.364-.072-.458a5.086 5.086 0 0 1-.071-.677c0-.114.066-.286.142-.52.063-.191.063-.388.071-.541.036-.635-.014-1.444-.07-2.446l-.072-1.248-.071-1.25c-.781-13.728-.55-38.691.213-48.39.003-.038-.047-.063-.142-.063-.095.292-.16.732-.213 1.312l-.071.77v.728zm2.26 23.934l.142-2.507.237-5.058a58.686 58.686 0 0 0-.379-9.938l-.142 4.943-.142 4.995c-.11 3.92 0 7.253.142 10l.142-2.434z" fill="#F8D6B8"/><path d="M23.793 17.942c.453.033.75.115.897.244.111.09.176.244.212.448.074.228.056.415-.055.57-.028.064-.102.121-.213.17l-.24.049-.167.049-.166.048h-.213c-.185 0-.287.017-.323.041-.037.065-.056.3-.056.691v.96l-.055 1.472-.055 1.602a121.013 121.013 0 0 0-.057 3.285c-.064 2.602-.091 4.668-.073 6.196l.407 6.433.046.732.111.789c.074.618.148 1.139.222 1.553.138.618.314 1.106.509 1.472.221.496.471.748.757.765.112.032.288-.017.518-.147l.269-.09.277-.146.269-.097.296-.187c.212-.13.36-.18.434-.147.176.033.324.228.435.578.073.317.073.56 0 .732-.037.162-.203.309-.49.43l-.324.196-.351.162c-.74.318-1.804.48-3.2.48-1.37.033-2.415-.114-3.117-.43-1.295-.586-2.025-2.692-2.164-6.311l-.055-1.554-.056-1.569a54.921 54.921 0 0 1-.111-2.976c0-1.798.037-4.034.111-6.726l.111-3.358.111-3.285v-.716c0-.366-.019-.561-.055-.594-.037-.065-.223-.081-.547-.049l-.406.049a.65.65 0 0 1-.269-.049c-.073-.065-.13-.203-.166-.431-.036-.22-.018-.398.056-.545.074-.13.5-.235 1.276-.333l.434-.05.454-.048c.296-.032.49-.073.6-.114a32.837 32.837 0 0 1 1.786-.146c.323-.032.805-.065 1.443-.098h.943zm-1.49 3.53v-.31c.075-.227.112-.446.112-.666.074-.593.055-.903-.056-.935-.11-.024-.185-.008-.222.049l-.129.097v.049c0 .78-.019 2.359-.055 4.74-.038 2.335-.056 3.92-.056 4.767.037-.464.074-1.058.111-1.79l.056-2.049c.037-1.764.092-3.033.184-3.814l.056-.138zm-2.57.471c.037 1.147.037 1.896 0 2.245l-.111 2.212-.111 2.196c-.102 1.797-.157 3.236-.157 4.334v.48l-.056.496c-.037.398-.037.675 0 .838.038.032.056.016.056-.05.212-2.699.37-5.057.462-7.074.028-.399.047-.96.047-1.667v-.976l.055-.984c.037-1.683.092-2.879.166-3.595v-.097l.056-.163v-.284c0-.228-.093-.293-.277-.195h-.047a.09.09 0 0 0-.083.048v2.236zm2.052 21.616c-.175-1.431-.36-3.562-.535-6.384l-.167-3.269c-.074-1.204-.166-2.228-.296-3.074l-.056 1.667v1.692a33.119 33.119 0 0 0 .056 3.383c.111 2.512.444 4.505.998 5.985zm-1.922.447l.055.43c.111.286.222.538.324.741.296.553.73.789 1.331.691-.665-.715-1.183-1.846-1.544-3.383-.25-1.081-.481-2.464-.675-4.147 0 2.017.12 3.773.379 5.262l.13.406zm20.783-26.063v.504l.11.52c.038.496.02.903-.055 1.22-.037.057.231.098.786.114l.675-.049h.49l.602-.065.564-.049c.416 0 .693.04.841.114.111.033.232.18.38.431.11.285.11.488 0 .594-.111.097-.426.13-.953.097h-1.702l-.573.05h-.592l-.296.048h-.166c-.037.033-.056.22-.056.57l.056.455v.333c-.213 4.587-.472 8.409-.758 11.458a62.544 62.544 0 0 0-.352 5.815c0 2.537.296 4.293.897 5.261l.157.244.306.26c.249.155.517.22.804.187.185-.032.37-.121.573-.284.139-.155.25-.31.324-.456.074-.09.13-.284.166-.569l.047-.358.055-.382c.111-.586.287-.91.518-.976.453-.097.74.033.87.382.101.318.073.66-.111 1.025-.555 1.236-1.406 2.074-2.544 2.505-.638.22-1.433.3-2.386.236-.925-.098-1.627-.252-2.118-.48-1.655-.805-2.543-2.326-2.654-4.546-.074-1.952 0-4.684.222-8.197l.213-4.196c.074-1.586.11-3.001.11-4.237v-2.098l.056-.545c.037-.464.019-.724-.055-.79-.037-.031-.167-.015-.38.05l-.277.162a.865.865 0 0 1-.212.05l-.296.097-.38.146-.73.236c-.675.187-1.147.236-1.443.138-.444-.187-.61-.496-.481-.927.037-.187.463-.415 1.267-.667.26-.097.574-.178.953-.26a4.52 4.52 0 0 1 .758-.195h.352l.379-.04c.286 0 .453-.033.49-.098.037-.065.055-.26.055-.594l-.055-.382v-.642l.055-.432c0-.317-.018-.52-.055-.593-.037-.065-.222-.082-.546-.049h-.38a1.018 1.018 0 0 1-.35-.146l-.056-.09-.102-.146a.514.514 0 0 1 0-.334c.065-.13.454-.227 1.166-.309a5.08 5.08 0 0 1 .832-.048l.38-.05h.277c1.405-.064 2.44-.121 3.116-.186.213-.033.472-.049.777-.049.37 0 .684.032.953.097.74.155 1.008.432.814.83-.038.13-.204.203-.49.236l-.38.049h-.462zm-2.488 2.553c.213 0 .518-.032.897-.098a6.35 6.35 0 0 1 0-1.195v-1.212h-.952a6.52 6.52 0 0 0 0 1.212l.055.65v.643zm-1.896-2.456h-.166v.927c0 .431.055.74.166.936V18.04zm.999 2.546c.037-.253.056-.675.056-1.26 0-.587.018-1.017.055-1.286h-.324c.037.163.075.358.102.594v.691c0 .618.037 1.041.11 1.26zm.953.984c-.075.056-.093.414-.056 1.065l.056.382v.407c.037.284.055.48.055.569 0 .366.018.805.046 1.31v1.194c0 .968-.018 2.286-.046 3.953l-.055 2-.056 1.936c-.037 3.155.056 5.652.268 7.481-.037-2.512.037-5.928.222-10.246l.24-5.026c.075-1.894.111-3.57.111-5.025 0 .024-.12.024-.351 0l-.277-.05c-.074 0-.12.017-.157.05zm-1.332 15.84c.037-1.097.074-2.39.11-3.886l.213-3.855c.112-3.163.148-5.798.112-7.912 0-.033-.038-.05-.112-.05.038 1.147.02 2.481-.055 4.002l-.157 1.96-.111 1.951c-.213 3.22-.213 5.823 0 7.79zm1.433 8.694c-.786-.821-1.396-2.017-1.813-3.57-.323-1.211-.545-2.65-.674-4.334v2.594c0 .903.055 1.667.156 2.285.334 1.553 1.11 2.562 2.331 3.025zm17.003-28.161v.504l.112.52c.037.496.018.903-.056 1.22-.037.057.231.098.786.114l.675-.049h.49l.601-.065.564-.049c.417 0 .694.04.842.114.111.033.232.18.38.431.11.285.11.488 0 .594-.111.097-.426.13-.953.097h-1.702l-.573.05h-.592l-.296.048h-.166c-.038.033-.056.22-.056.57l.056.455v.333c-.213 4.587-.472 8.409-.759 11.458a62.543 62.543 0 0 0-.351 5.815c0 2.537.295 4.293.897 5.261l.157.244.305.26c.25.155.518.22.805.187.185-.032.37-.121.573-.284.139-.155.25-.31.324-.456.074-.09.13-.284.166-.569l.047-.358.055-.382c.111-.586.287-.91.518-.976.453-.097.74.033.87.382.101.318.073.66-.112 1.025-.554 1.236-1.405 2.074-2.543 2.505-.638.22-1.433.3-2.386.236-.925-.098-1.628-.252-2.118-.48-1.656-.805-2.543-2.326-2.654-4.546-.074-1.952 0-4.684.222-8.197l.213-4.196c.074-1.586.11-3.001.11-4.237v-2.098l.056-.545c.037-.464.019-.724-.056-.79-.036-.031-.166-.015-.378.05l-.278.162a.867.867 0 0 1-.213.05l-.295.097-.38.146-.73.236c-.675.187-1.147.236-1.443.138-.444-.187-.61-.496-.481-.927.037-.187.462-.415 1.267-.667.259-.097.573-.178.952-.26.287-.098.546-.163.759-.195h.351l.38-.04c.286 0 .453-.033.49-.098.036-.065.055-.26.055-.594l-.056-.382v-.642l.056-.432c0-.317-.019-.52-.056-.593-.036-.065-.221-.082-.545-.049h-.38a1.018 1.018 0 0 1-.35-.146l-.056-.09-.102-.146a.514.514 0 0 1 0-.334c.065-.13.453-.227 1.165-.309.176-.032.454-.048.833-.048l.379-.05h.277c1.406-.064 2.442-.121 3.117-.186a5.27 5.27 0 0 1 .777-.049c.37 0 .684.032.952.097.74.155 1.008.432.814.83-.037.13-.203.203-.49.236l-.379.049h-.463zm-2.487 2.553c.212 0 .518-.032.897-.098a6.35 6.35 0 0 1 0-1.195v-1.212h-.953a6.52 6.52 0 0 0 0 1.212l.056.65v.643zm-1.896-2.456h-.166v.927c0 .431.055.74.166.936V18.04zm.999 2.546c.037-.253.055-.675.055-1.26 0-.587.019-1.017.055-1.286h-.323c.037.163.074.358.102.594v.691c0 .618.037 1.041.11 1.26zm.952.984c-.074.056-.092.414-.055 1.065l.055.382v.407c.037.284.056.48.056.569 0 .366.018.805.046 1.31v1.194c0 .968-.019 2.286-.046 3.953l-.056 2-.055 1.936c-.037 3.155.055 5.652.268 7.481-.037-2.512.037-5.928.222-10.246l.24-5.026c.074-1.894.111-3.57.111-5.025 0 .024-.12.024-.351 0l-.277-.05c-.075 0-.12.017-.158.05zm-1.332 15.84c.037-1.097.075-2.39.111-3.886l.213-3.855c.111-3.163.148-5.798.111-7.912 0-.033-.037-.05-.111-.05a50.216 50.216 0 0 1-.055 4.002l-.157 1.96-.111 1.951c-.213 3.22-.213 5.823 0 7.79zm1.434 8.694c-.786-.821-1.397-2.017-1.813-3.57-.323-1.211-.545-2.65-.675-4.334v2.594c0 .903.056 1.667.157 2.285.333 1.553 1.11 2.562 2.33 3.025zM70.373 14.25c-.037 0-.037-.016 0-.048h.055c.176 0 .389.13.62.382.25.285.287.537.11.74-.11.13-.369.146-.785.049l-.435-.098c-.148-.032-.259-.016-.351.049-.074.065-.093.22-.056.48l.056.333.055.31c.037.455.019 1.065-.055 1.805l-.111.951-.111 1.05a261.07 261.07 0 0 0-.426 5.553l-.221 2.79c-.075 1.236-.14 2.212-.186 2.927-.222 2.668-.314 4.912-.277 6.717.037 2.668.333 4.823.897 6.457l.167.431.157.431c.11.318.23.496.351.545.324.098.749-.073 1.276-.496.176-.13.38-.293.592-.48l.167-.235.11-.098.084-.049.157-.26.167-.285c.101-.195.23-.3.38-.333.175 0 .35.106.508.333l.11.285a.723.723 0 0 1 .056.26c-.037.195-.157.399-.352.618l-.268.31-.11.146-.111.097c-1.268 1.301-2.96 1.643-5.096 1.025a8.249 8.249 0 0 1-1.406-.553c-.453-.252-.777-.472-.971-.667-.564-.455-.962-1.081-1.193-1.854-.36-1.114-.62-3.359-.758-6.742-.074-1-.093-2.244-.056-3.716l.056-1.79v-1.715c.064-6.245.157-10.45.268-12.63v-1.853c-.037-.033-.13-.05-.268-.05l-.222-.048h-.185c-.361-.065-.49-.26-.38-.594.065-.195.611-.317 1.619-.382.296-.032.684-.049 1.165-.049l.49-.048h.38c2.08-.066 3.523-.066 4.337 0zm-5.503 2.766l.056-.147v-.423c.037-.097.055-.293.055-.602v-.284l.056-.285h-.278v.285l.056.333c0 .285.018.504.055.643v.48zm1.461-.879l.056-.333c.074-.317.093-.496.055-.529-.073-.065-.185-.065-.351 0l-.167.098-.046.049v2c-.037.903-.037 1.553 0 1.952.065-.366.14-.854.213-1.48l.24-1.545v-.212zm.278 11.572c-.278 1.96-.407 4.099-.407 6.433v2.342c0 .903.046 1.708.13 2.399.073 1.732.314 3.115.702 4.147-.287-3.017-.342-6.53-.157-10.53.074-1.457.194-3.221.38-5.287l.24-2.578.222-2.545.157-1.692.11-1.715c.112-1.334.149-2.473.112-3.408h-.111c0 1.684-.167 3.765-.49 6.246l-.509 3.074a45.83 45.83 0 0 0-.38 3.114zm-2.118 3.505c0 .033.018.017.056-.048.11-.838.166-1.88.166-3.123l-.055-1.643v-1.618l.055-1.618.046-1.594c.074-1.31.093-2.334.056-3.074-.287 3.505-.398 7.75-.324 12.718zm1.896 13.272c-.61-1.415-1.082-3.342-1.406-5.79.139 2.765.61 4.692 1.406 5.79zM86.44 17.471c2.22-.244 4.18.325 5.872 1.692.675.552 1.323 1.43 1.951 2.643 1.194 2.447 1.711 4.806 1.545 7.075l-.102.927-.166.975-.111.383-.102.455c-.148.366-.324.586-.518.667-.185.097-.62.097-1.331 0l-.833-.098a4.004 4.004 0 0 0-.712-.09c-2.432-.162-5.031-.024-7.769.4l-.379.048-.406.049c-.333.032-.528.081-.602.146-.074.09-.092.399-.055.927l.055.57.056.309v.244c.11 1.951.388 3.862.841 5.74.416 1.855 1.156 3.392 2.22 4.595.25.285.471.505.647.643.222.22.425.35.63.382.286.033.767-.154 1.432-.545.25-.13.519-.293.787-.48.184-.13.342-.235.49-.333 1.331-1.049 2.515-2.521 3.551-4.407l.157-.334.167-.333a9.84 9.84 0 0 1 .453-.74c.37-.52.74-.724 1.119-.594.25.065.36.244.324.545 0 .227-.074.504-.222.837-.518 1.269-1.24 2.546-2.165 3.83-1.193 1.733-2.727 2.945-4.605 3.628-1.378.487-2.895.536-4.55.138-1.48-.366-2.626-.927-3.44-1.692-2.969-2.79-4.116-7.27-3.44-13.434.36-3.48.795-5.887 1.322-7.221.814-2.139 1.96-3.928 3.44-5.36 1.341-1.3 2.82-2.032 4.448-2.187zm3.329 12.98l.379.048h.463c.703.032 1.09.016 1.164-.049.037-.033.056-.211.056-.545.037-.317.055-.577.055-.789.14-3.188.102-5.497-.11-6.928-.26-1.732-.759-2.757-1.517-3.074-.36-.163-.897-.301-1.6-.431-.777-.098-1.276-.082-1.489.049-3.144 1.797-4.624 5.952-4.448 12.483l1.544-.236 1.628-.244a36.681 36.681 0 0 1 3.385-.285h.49zm3.607-5.149c0-.154.018-.39.055-.707l.047-.79c.036-.617-.047-1.04-.269-1.26l.055 1.407c.038.553.075 1.009.112 1.35zm-13.04-.951c-.028.032-.047.065-.047.097-1.267 2.48-1.729 6.018-1.387 10.63.148 2.138.398 3.91.759 5.31.453 1.618.897 2.748 1.331 3.382l.185.236.167.244c.139.155.268.22.38.187-1.444-2.236-2.313-5.424-2.6-9.555-.259-4.066.148-7.555 1.212-10.482v-.05zm.656 2.383c.019-.033.084-.05.185-.05l.111.05.111-.05c.102-.089.176-.447.213-1.065v-.69c0-.196.018-.302.056-.334l-.324 1.065-.352 1.074zm12.439 3.716c.305-.016.527-.163.675-.447l.102-.431.11-.407c.112-.398.186-.691.223-.878.037-.366.037-.65 0-.862l-.222.813-.213.789c-.184.585-.407 1.057-.675 1.423zM82.454 43.6c-.565-2.586-1.138-4.92-1.73-7.002.324 3.261.897 5.595 1.73 7.002zm2.765 2.74c-.148-.154-.324-.35-.546-.57l-.564-.544c-.037.586.333.96 1.11 1.114z" fill="#F8D6B8"/><path d="M122.214 2.357c-1.799.021-3.905-.01-6.307-.083-1.717-.042-3.858-.146-6.45-.312l-.521-.063-.414-.051c-.32-.042-.509-.042-.556 0-.095.03-.143.312-.143.822l.072.666v.582c0 3.164.047 7.95.142 14.36.579-.082 1.349-.103 2.319-.061l1.219.062h1.349l.344-.063.449-.062c.331 0 .509-.02.556-.062.095-.084.166-.23.213-.458v-.604c0-.593.119-.947.343-1.072.19-.083.474-.083.865 0 .378.125.579.26.627.427.047.042.023.219-.071.52l-.071.427-.071.49c0 .467-.036.988-.131 1.581 0 .167.024.447.072.853v.947c.047.833-.024 1.332-.213 1.488-.095.083-.356.125-.793.125-.415 0-.699-.083-.841-.24-.177-.249-.201-.748-.07-1.498l.07-.364v-.395c.048-.281.024-.49-.07-.614-1.125.083-2.64.062-4.533-.063l-.355-.052-.521-.062c-.367 0-.568.02-.615.062-.142.042-.213.417-.213 1.124v.728c.047.25.071.417.071.52.094 2.863.118 6.796.071 11.802l-.071 3.049v2.986a297.495 297.495 0 0 0-.071 5.765h.485l.414-.125c.331-.041.615 0 .876.125.13.084.248.26.343.541.047.292.047.5 0 .646-.142.166-.757.24-1.834.24h-1.361a16.57 16.57 0 0 0-1.136-.053 31.062 31.062 0 0 0-2.261-.063h-1.278c-.533 0-.864-.02-1.006-.062-.142-.083-.26-.26-.343-.52-.047-.208-.024-.344.059-.427.048-.083.284-.166.698-.24.048-.04.202-.062.45-.062l.414-.062c.095-.083.142-.479.142-1.186l-.071-.885v-.676c0-1-.047-2.373-.142-4.142-.083-1.79-.13-3.101-.13-3.934V23.763c0-4.246.083-7.888.272-10.916.048-1.54.071-2.851.071-3.934a59.253 59.253 0 0 0 0-4.141v-.74l.071-.821c.048-.666.024-1.062-.071-1.187-.047-.041-.165-.083-.343-.125l-.45-.177c-.426-.124-.556-.322-.426-.613.048-.157.438-.292 1.148-.396h1.633c1.847-.125 4.557-.104 8.107.063l2.047.124 2.119.063c1.621.031 3.089.031 4.402 0h.592l.556-.063h.793l.071-.062.142-.125.13-.125c.189-.041.402-.02.627.063.285.125.45.301.521.52.095.25.095.572 0 .978l-.213.635-.166.614c0 .166.024.458.071.884v1.312l.095.24.071.582c.095.468.071.75-.071.853-.035.042-.237.063-.58.063l-.355-.063-.272-.062c-.189-.157-.331-.614-.45-1.374l-.071-.916-.071-.395V3.21c.048-.364.048-.646 0-.854zm-17.16 1.988a4.27 4.27 0 0 0-.071-.614v-.822c-.047-.666-.118-1.03-.201-1.061-.189-.084-.343-.084-.461 0l-.06.114v.125c-.047.634-.047 1.446 0 2.435l.06 1.311.071 1.374c.047 2.029.071 4.651.071 7.867l-.071 3.933v3.684l.142-2.164.142-2.248c.13-1.79.236-3.32.307-4.579.19-3.538.214-6.65.071-9.355zm.343 17.982c-.662 5.994-.662 10.885 0 14.663V22.327zm-.414 19.241c-.047-.635-.118-1.092-.201-1.373v.79l-.106.76c0 .593.094 1.072.307 1.436v-1.613zm24.884-24.097c2.219-.244 4.18.325 5.872 1.692.675.552 1.323 1.43 1.952 2.643 1.193 2.447 1.711 4.806 1.544 7.075l-.101.927-.167.975-.111.383-.102.455c-.148.366-.324.586-.518.667-.185.097-.619.097-1.331 0l-.833-.098a4.003 4.003 0 0 0-.712-.09c-2.432-.162-5.031-.024-7.768.4l-.38.048-.406.049c-.333.032-.527.081-.602.146-.074.09-.092.399-.055.927l.055.57.056.309v.244c.111 1.951.388 3.862.841 5.74.417 1.855 1.157 3.392 2.22 4.595.25.285.471.505.647.643.222.22.426.35.629.382.287.033.768-.154 1.434-.545.249-.13.518-.293.786-.48a18.7 18.7 0 0 1 .49-.333c1.332-1.049 2.515-2.521 3.551-4.407l.158-.334.166-.333c.176-.317.333-.562.453-.74.37-.52.74-.724 1.119-.594.25.065.361.244.324.545 0 .227-.074.504-.222.837-.518 1.269-1.239 2.546-2.164 3.83-1.193 1.733-2.728 2.945-4.606 3.628-1.378.487-2.894.536-4.55.138-1.479-.366-2.626-.927-3.44-1.692-2.969-2.79-4.115-7.27-3.441-13.434.361-3.48.796-5.887 1.323-7.221.814-2.139 1.961-3.928 3.44-5.36 1.341-1.3 2.821-2.032 4.449-2.187zm3.329 12.98l.379.048h.463c.703.032 1.091.016 1.165-.049.037-.033.055-.211.055-.545.037-.317.056-.577.056-.789.139-3.188.101-5.497-.111-6.928-.259-1.732-.758-2.757-1.517-3.074-.361-.163-.897-.301-1.6-.431-.776-.098-1.276-.082-1.489.049-3.144 1.797-4.624 5.952-4.448 12.483l1.544-.236 1.628-.244a36.684 36.684 0 0 1 3.385-.285h.49zm3.607-5.149c0-.154.018-.39.055-.707l.047-.79c.036-.617-.047-1.04-.269-1.26l.056 1.407c.037.553.074 1.009.111 1.35zm-13.04-.951c-.028.032-.046.065-.046.097-1.267 2.48-1.73 6.018-1.388 10.63.149 2.138.398 3.91.759 5.31.453 1.618.897 2.748 1.331 3.382l.186.236.166.244c.139.155.268.22.379.187-1.442-2.236-2.312-5.424-2.599-9.555-.259-4.066.148-7.555 1.212-10.482v-.05zm.656 2.383c.019-.033.084-.05.186-.05l.11.05.112-.05c.101-.089.175-.447.212-1.065v-.69c0-.196.019-.302.056-.334l-.324 1.065-.352 1.074zm12.439 3.716c.305-.016.527-.163.675-.447l.102-.431.111-.407c.111-.398.185-.691.222-.878.037-.366.037-.65 0-.862l-.222.813-.213.789c-.184.585-.407 1.057-.675 1.423zM125.881 43.6c-.565-2.586-1.138-4.92-1.73-7.002.324 3.261.897 5.595 1.73 7.002zm2.765 2.74c-.148-.154-.324-.35-.546-.57l-.564-.544c-.037.586.333.96 1.11 1.114zm31.289-26.535c.037-.285.13-.464.268-.529.417-.154.685-.032.786.382.075.163.111.374.111.643v.618c.037.293.037.634 0 1.024v.79l.056.333.055.358c.037.252 0 .43-.111.528l-.111.04-.295.147c-.25.065-.435.082-.546.05-.139-.066-.213-.22-.213-.48l-.056-.285-.055-.31c-.176-.748-.629-1.447-1.35-2.098a8.983 8.983 0 0 0-1.054-.926 5.457 5.457 0 0 0-1.332-.814c-1.138-.553-2.34-.691-3.607-.398-1.063.252-1.766.626-2.109 1.114-.666.91-.924 2.13-.758 3.668.111 1.398.481 2.659 1.11 3.765a8.847 8.847 0 0 0 2.821 2.911l.73.358c.324.154.555.285.703.382 2.007 1.171 3.468 2.358 4.393 3.57 1.332 1.732 1.896 3.716 1.674 5.953-.176 2.18-1.036 3.798-2.571 4.863-1.97 1.399-4.513 2.017-7.639 1.862-1.739-.097-3.218-.78-4.448-2.05-1.027-1.113-1.73-2.43-2.109-3.96-.074.033-.129.139-.167.31l-.111.243-.157.236c-.111.098-.268.17-.462.236-.213.033-.379 0-.49-.09-.074-.064-.074-.26 0-.577l.111-.406a1.9 1.9 0 0 0 .055-.285l.157-.74.167-.618c.111-.52.203-.951.296-1.285 0-.065.019-.187.055-.382l.056-.545c.037-.43.111-.667.212-.716.186-.097.417-.146.713-.146.249.032.388.081.397.146.111.13.13.301.056.52l-.056.285c-.027.13-.046.22-.046.269a11.141 11.141 0 0 0 1.165 4.57c.74 1.464 1.637 2.505 2.71 3.123.629.317 1.461.488 2.488.504 1.063 0 1.942-.187 2.626-.553 1.341-.716 2.1-2.065 2.275-4.05.148-1.618-.092-3.423-.73-5.408-.555-1.919-1.212-3.22-1.952-3.903-.139-.162-.416-.334-.804-.529l-.518-.308-.49-.236-1.406-.79-1.443-.764c-1.137-.65-1.997-1.268-2.598-1.854-1.258-1.301-1.721-2.838-1.378-4.603.286-1.455 1.174-2.675 2.654-3.643 1.443-.968 3.172-1.504 5.179-1.618 1.368-.065 2.626.138 3.764.593.841.318 1.655.805 2.432 1.456l.166.187.213.195c.148.187.324.358.518.496v-.83zm-12.217 6.05c-.111-.496-.185-1.114-.222-1.862-.102-.838-.138-1.553-.102-2.139-.221.586-.295 1.285-.221 2.098.074.683.25 1.318.545 1.903zm-1.331-3.22c-.435.878-.592 1.732-.482 2.578.102.553.426 1.114.972 1.667.213.155.481.358.786.593l.379.285.351.244c-.703-.496-1.267-1.277-1.683-2.342-.416-1.073-.518-2.082-.323-3.025zm10.811 21.705c.527-.619.823-1.692.896-3.213.213-3.017-.258-5.196-1.433-6.53.518 1.464.851 3.05.999 4.766.148 1.984-.009 3.643-.462 4.977zm2.33-4.286c0 .415-.055.805-.157 1.171l-.111.447c-.037.196-.074.366-.111.529 0 .154.019.187.055.09.324-.651.472-1.521.435-2.62-.037-1.08-.24-1.926-.601-2.544l.166.731.167.74c.102.529.157 1.009.157 1.456zm15.845-22.111v.504l.111.52c.037.496.019.903-.055 1.22-.037.057.231.098.786.114l.675-.049h.49l.601-.065.564-.049c.417 0 .694.04.842.114.111.033.231.18.379.431.111.285.111.488 0 .594-.111.097-.425.13-.952.097h-1.702l-.573.05h-.592l-.296.048h-.167c-.037.033-.055.22-.055.57l.055.455v.333c-.213 4.587-.461 8.41-.758 11.458-.2 2.05-.345 16.528-.351 18.356-.01 2.536.28 4.306.897 5.261l.157.244.305.26c.222.19.52.226.805.188a1.04 1.04 0 0 0 .573-.285c.151-.14.237-.318.323-.456.061-.097.13-.284.167-.569l.046-.358.056-.382c.085-.59.286-.921.518-.976.45-.105.748.032.869.383.108.313.06.654-.111 1.024-.566 1.23-1.402 2.088-2.543 2.505-.633.231-1.436.317-2.386.236-.926-.08-1.632-.246-2.118-.48-1.658-.797-2.557-2.326-2.654-4.546-.085-1.95.044-17.223.222-20.738l.212-4.196c.075-1.586.111-3.001.111-4.237v-2.098l.056-.545c.037-.464.019-.724-.056-.79-.036-.031-.166-.015-.379.05l-.277.162a.868.868 0 0 1-.213.05l-.296.097-.379.146-.73.236c-.676.187-1.147.236-1.443.138-.444-.187-.611-.496-.481-.927.037-.187.462-.415 1.267-.667a6.83 6.83 0 0 1 .952-.26c.287-.098.546-.163.759-.195h.351l.379-.04c.287 0 .454-.033.49-.098.037-.065.056-.26.056-.594l-.056-.382v-.642l.056-.432c0-.317-.019-.52-.056-.593-.036-.065-.222-.082-.545-.049h-.379a1.024 1.024 0 0 1-.352-.146l-.055-.09-.102-.146a.513.513 0 0 1 0-.334c.065-.13.453-.227 1.165-.309.176-.032.453-.048.833-.048l.379-.05h.277c1.406-.064 2.442-.121 3.117-.186.213-.033.471-.049.777-.049.37 0 .684.032.952.097.74.155 1.008.432.814.83-.037.13-.203.203-.49.236l-.379.049h-.463zm-2.487 2.553c.212 0 .518-.032.897-.098-.038-.317 0-.713 0-1.195v-1.212h-.953a6.22 6.22 0 0 0 0 1.212l.056.65v.643zm-1.896-2.456h-.167v.927c0 .43.056.74.167.936V18.04zm.998 2.546c.038-.253.056-.675.056-1.26 0-.587.018-1.017.055-1.286h-.323c.037.163.102.358.102.594v.691c0 .617.037 1.041.11 1.26zm.953 9.984c-.202.157-.038 3.199-.055 3.816-.09 3.15.055 9.193.268 11.023-.119-8.035.573-6.894.573-14.84 0 .025-.123.04-.351 0l-.278-.048c-.072-.013-.119.019-.157.049zm-1.332 18.84c.205-6.099.121-13.87.038-18.736 0-.03-.27.018-.344.018.293 9.024-.701 9.407.306 18.719zm1.434 9.236c-.786-.822-1.399-2.019-1.813-3.57-.323-1.21-.545-14.652-.675-16.335v14.594c0 .9.035 1.673.157 2.285.31 1.557 1.11 2.562 2.331 3.026z" fill="#F5A8A5"/><path fill-rule="evenodd" clip-rule="evenodd" d="M30.015 4.188c-.346-.066-.466.024-.693-.424-.128-.254-.096-.503-.23-.708a.945.945 0 0 0-.03-.042 15.612 15.612 0 0 0-.924-.603 21.9 21.9 0 0 0-2.327-1.266c-1.083-.366-2.245 1.215-3.19.528-2.634-1.917-8.352 1.685-9.57 5.562-.444 4.717 3.37 7.589 6.679 8.812-2.281-.15-4.967-1.901-6.077-3.926-.205-.376-.419-.741-.578-1.14-.48-1.202-.663-2.4-.533-3.635-1.007 5.425 5.063 11.303 11.413 8.092 3.486-1.764 5.025-4.252 5.66-8.133l.009-.068c-.394 1.349-.906 2.718-1.662 3.907l-.613.885c-.212.242-.445.484-.695.723 1.054-1.15 1.838-2.584 2.443-4.343l.649-2.123.27-2.098zm14.473 1.356c.271-.189.586-.42.881-.566 1.29-.644 2.656-1.038 4.086-.665.722.19 1.683.76 2.373.74.987-.029 2.364-1.468 2.98-2.041.578-.536 1.02-1.079 1.748-1.437 1.769-.869 2.424 1.747 2.63 3.067-.096.017-.287.125-.44.145.065-.315-.119-1.189-.197-1.487-.175-.663-.401-1.044-.93-1.502-.43-.38-1.883.762-2.178 1.062-.8.756-2.167 2.23-3.257 2.39-1.137.164-1.823-.595-3.253-.693-2.702-.181-5.612 1.926-7.285 3.872-.622.722-.502 1.497-.627 2.355-.052.366-.264.52-.53.572-3.327.661-7.031-3.83-8.626-6.223-.34-.509-.704-.999-1.025-1.52l-.038-.06-.016.001c-.217.615-.105 3.99-1.286 6.8l-.465.995c-1.419 2.315-3.803 4.306-5.847 4.942-.64.2-1.041.414-1.642.491-.545.07-1.05.192-1.653.152-.406-.026-.821-.037-1.233-.096a5.078 5.078 0 0 1-1.073-.165c-.276-.08-.562-.194-.833-.294-.261-.097-.658-.264-.943-.326l-1.508-.985c-.27-.392-.694-.685-.99-1.059-.266-.335-.537-.66-.762-1.025-.86-1.406-1.242-2.886-1.134-4.53.035-.525.142-.998.312-1.495.113-.328.266-.684.326-1.028l.879-1.346a1.96 1.96 0 0 0 .096-.078 7.49 7.49 0 0 0-.492.725 7.09 7.09 0 0 0-.43.846l-.008.017-.005.018a7.451 7.451 0 0 0-.223 1.126c.177-.723.442-1.2.5-1.64l.943-1.442c.286-.195.576-.63.864-.889.311-.276.582-.488.889-.737.55-.449 1.211-.805 1.803-1.107.367-.187.55-.257.963-.41 1.556-.575.864-.38 2.45-.78 2.548-.642 5.985.09 9.003 1.55.663-.64.367-.274.693-.522.659-.5.528-.982 1.598 1.211l.45.935c-.152.059-.536.099-.854.122 1.287 2.583 5.653 7.404 8.788 7.466.886.018.983-.576.868-1.755.17-1.171 2.628-2.975 3.66-3.697zM11.862 7.272l-.141-.02-.05.269a7.144 7.144 0 0 0-.058 2.2c.312 2.463 1.84 4.722 3.951 6.01a7.73 7.73 0 0 0 2.652 1.021l-.12-.031c-.416-.121-1.539-.58-1.806-.626l-1.603-1.048c-.227-.354-.708-.708-1.009-1.087-.294-.372-.546-.67-.78-1.054-.91-1.487-1.287-3.028-1.176-4.697.023-.355.075-.663.14-.937zm16.88-4.581a2.81 2.81 0 0 1-.258-.264c-.244-.301-.192-.379-.648-.563a24.347 24.347 0 0 0-1.628-.596c.907.42 1.768.914 2.534 1.423z" fill="#F5A8A5"/><path d="M34.968 59.719h.98v-5.516h-4.963v5.516h.98v-4.596h3.003v4.596zm2.758 2.451h.98v-2.709c.393.258.97.38 1.557.38 1.729 0 2.868-1.286 2.868-2.966 0-1.63-.98-2.794-2.549-2.794-.76 0-1.495.33-1.875.772v-.65h-.98v7.967zM40.3 55c1.14 0 1.79.797 1.79 1.912 0 1.164-.736 2.01-1.912 2.01-.527 0-.981-.098-1.471-.429V55.76c.343-.429.944-.76 1.593-.76zm4.535.368c.441-.233.846-.405 1.52-.405 1.091 0 1.25.711 1.25 1.74-.367-.269-.944-.355-1.372-.355-1.19 0-2.084.625-2.084 1.753 0 1.066.686 1.704 1.691 1.704.907 0 1.434-.38 1.765-.797v.71h.932v-3.382c0-1.434-.552-2.255-2.12-2.255-.687 0-1.35.196-1.84.502l.258.785zm1.348 3.554c-.637 0-.992-.343-.992-.87 0-.637.588-.907 1.176-.907.478 0 .895.123 1.238.368v.698c-.282.331-.698.711-1.422.711zm5.822.92c1.36 0 2.342-.625 2.342-1.655 0-.638-.38-1.214-1.153-1.3v-.024c.699-.245.969-.76.969-1.3 0-.906-.724-1.482-2.072-1.482-.87 0-1.728.27-2.181.735l.38.76c.367-.294.894-.613 1.654-.613.711 0 1.177.294 1.177.797 0 .441-.405.784-.956.784h-.87v.797h.931c.674 0 1.079.258 1.079.711 0 .551-.613.907-1.447.907-.477 0-1.164-.22-1.63-.6l-.502.735c.367.441 1.47.748 2.28.748zm3.077 1.225h.92V59.72h4.46v1.348h.92V58.8h-.92v-4.597H56.7l-.086 1.459c-.098 1.508-.478 2.672-.846 3.138h-.686v2.267zm2.475-5.025l.062-.92h1.863V58.8H56.81c.257-.343.625-1.348.747-2.758zm8.936 3.677h.98v-5.516h-.98v2.268h-3.064v-2.268h-.98v5.516h.98V57.39h3.064v2.329zm3.738 0l3.187-4.106v4.106h.98v-5.516h-.98L70.23 58.31v-4.106h-.98v5.516h.98zm10.774-5.516h-1.287L77.389 56.9l2.488 2.819h1.36l-2.647-2.88 2.415-2.636zm-4.83 5.516h.981v-5.516h-.98v5.516zm12.907 0h.98v-5.516h-.98v2.268h-3.064v-2.268h-.98v5.516h.98V57.39h3.064v2.329zm3.052-4.351c.441-.233.846-.405 1.52-.405 1.09 0 1.25.711 1.25 1.74-.368-.269-.944-.355-1.373-.355-1.189 0-2.083.625-2.083 1.753 0 1.066.686 1.704 1.691 1.704.907 0 1.434-.38 1.765-.797v.71h.932v-3.382c0-1.434-.552-2.255-2.12-2.255-.687 0-1.35.196-1.84.502l.258.785zm1.348 3.554c-.637 0-.992-.343-.992-.87 0-.637.588-.907 1.176-.907.478 0 .895.123 1.238.368v.698c-.282.331-.698.711-1.422.711zm8.139-4.719h-.981v2.513c-.245.172-.71.343-1.262.343-.748 0-1.19-.417-1.19-1.299v-1.557h-1.04v1.667c0 1.422.636 2.108 1.96 2.108.613 0 1.165-.171 1.532-.404v2.145h.981v-5.516zm2.746 5.516l3.186-4.106v4.106h.981v-5.516h-.981l-3.186 4.106v-4.106h-.981v5.516h.981zm9.989 0h.981v-5.516h-.981v2.268h-3.064v-2.268h-.981v5.516h.981V57.39h3.064v2.329zm3.052-4.351c.441-.233.846-.405 1.52-.405 1.091 0 1.25.711 1.25 1.74-.368-.269-.944-.355-1.373-.355-1.189 0-2.084.625-2.084 1.753 0 1.066.687 1.704 1.692 1.704.907 0 1.434-.38 1.765-.797v.71h.932v-3.382c0-1.434-.552-2.255-2.121-2.255-.686 0-1.348.196-1.839.502l.258.785zm1.348 3.554c-.637 0-.993-.343-.993-.87 0-.637.589-.907 1.177-.907.478 0 .895.123 1.238.368v.698c-.282.331-.699.711-1.422.711zm8.347-.576c-.355.331-.98.576-1.691.576-1.079 0-1.839-.612-1.925-1.654h4.241c.037-.172.061-.393.061-.662 0-1.52-1.139-2.525-2.561-2.525-1.814 0-2.844 1.274-2.844 2.88 0 1.74 1.165 2.88 2.954 2.88.736 0 1.532-.233 2.072-.723l-.307-.772zM125.179 55c.956 0 1.544.564 1.593 1.47h-3.346c.11-.845.748-1.47 1.753-1.47zm3.137.184h2.023v4.535h.98v-4.535h2.023v-.98h-5.026v.98zm10.149 3.027a2.09 2.09 0 0 1-1.581.711c-1.091 0-1.986-.747-1.986-1.961 0-1.164.895-1.961 1.888-1.961.576 0 1.115.147 1.581.576l.454-.772c-.515-.515-1.287-.723-2.17-.723-1.618 0-2.794 1.274-2.794 2.88 0 1.74 1.201 2.88 2.953 2.88.846 0 1.655-.318 2.121-.919l-.466-.71zm3.898-4.008c-1.839 0-2.464.895-2.464 1.839 0 .907.625 1.458 1.189 1.593l-1.593 2.084h1.189l1.348-1.839h1.066v1.839h.981v-5.516h-1.716zm-1.422 1.863c0-.514.343-.943 1.262-.943h.895v1.838h-1.127c-.491 0-1.03-.33-1.03-.895zm6.974-.882h2.023v4.535h.98v-4.535h2.023v-.98h-5.026v.98zm11.252-.98h-1.115l-1.275 3.493c-.098.294-.184.576-.257.845-.111-.282-.209-.551-.331-.833l-1.618-3.506h-1.177l2.648 5.516-.123.294c-.368.883-.711 1.25-1.176 1.25-.221 0-.429-.098-.613-.184l-.319.748c.294.196.625.343 1.042.343.784 0 1.299-.478 2.108-2.451l2.206-5.516zm.417.98h2.022v4.535h.981v-4.535h2.022v-.98h-5.025v.98z" fill="#F5A8A5"/></svg>