<svg width="11" height="14" viewBox="0 0 11 14" fill="none" xmlns="http://www.w3.org/2000/svg">
<path d="M7.59844 2.19998H9.99844C10.4784 2.19998 10.7984 2.51998 10.7984 2.99998V3.79997H0.398438V2.99998C0.398438 2.51998 0.798438 2.19998 1.19844 2.19998H3.59844C3.75844 1.31998 4.63844 0.599976 5.59844 0.599976C6.55844 0.599976 7.43844 1.31998 7.59844 2.19998ZM4.39844 2.19998H6.79844C6.63844 1.71998 6.07844 1.39998 5.59844 1.39998C5.11844 1.39998 4.55844 1.71998 4.39844 2.19998ZM1.19844 4.59997H9.99844L9.27844 12.68C9.27844 13.08 8.87844 13.4 8.47844 13.4H2.71844C2.31844 13.4 1.99844 13.08 1.91844 12.68L1.19844 4.59997Z" fill="#C4C4C4"/>
</svg>
