<svg width="16" height="16" fill="none" xmlns="http://www.w3.org/2000/svg"><path d="M2.5 4.75v8A1.254 1.254 0 0 0 3.75 14h8.5a1.254 1.254 0 0 0 1.25-1.25v-8" stroke="#56C37C" stroke-linecap="round" stroke-linejoin="round"/><path d="M13.625 2H2.375a.875.875 0 0 0-.875.875v.75c0 .483.392.875.875.875h11.25a.875.875 0 0 0 .875-.875v-.75A.875.875 0 0 0 13.625 2z" stroke="#56C37C" stroke-linejoin="round"/><path d="M10 9.5l-2 2-2-2m2 1.31V7" stroke="#56C37C" stroke-linecap="round" stroke-linejoin="round"/></svg>