<svg width="48" height="48" fill="none" xmlns="http://www.w3.org/2000/svg"><path d="M17.315 19.504a2.871 2.871 0 0 0-2.868 2.868 2.871 2.871 0 0 0 2.868 2.869 2.871 2.871 0 0 0 2.868-2.869 2.871 2.871 0 0 0-2.868-2.868zm0 4.33a1.463 1.463 0 0 1-1.461-1.462 1.462 1.462 0 0 1 2.923 0c0 .806-.656 1.462-1.462 1.462z" fill="url(#paint0_linear)"/><path d="M24.793 19.504a2.871 2.871 0 0 0-2.868 2.868 2.871 2.871 0 0 0 2.868 2.869 2.871 2.871 0 0 0 2.868-2.869 2.871 2.871 0 0 0-2.868-2.868zm0 4.33a1.463 1.463 0 0 1-1.462-1.462 1.463 1.463 0 0 1 2.924 0c0 .806-.656 1.462-1.462 1.462z" fill="url(#paint1_linear)"/><path d="M32.27 19.504a2.871 2.871 0 0 0-2.868 2.868 2.871 2.871 0 0 0 2.868 2.869 2.871 2.871 0 0 0 2.868-2.869 2.871 2.871 0 0 0-2.868-2.868zm0 4.33a1.463 1.463 0 0 1-1.461-1.462 1.462 1.462 0 0 1 2.923 0c0 .806-.656 1.462-1.462 1.462z" fill="url(#paint2_linear)"/><path d="M17.315 26.5a2.871 2.871 0 0 0-2.868 2.869 2.871 2.871 0 0 0 2.868 2.868 2.871 2.871 0 0 0 2.868-2.869 2.871 2.871 0 0 0-2.868-2.868zm0 4.33a1.463 1.463 0 0 1-1.461-1.461 1.462 1.462 0 0 1 2.923 0c0 .805-.656 1.461-1.462 1.461z" fill="url(#paint3_linear)"/><path d="M32.27 26.5a2.871 2.871 0 0 0-2.868 2.869 2.871 2.871 0 0 0 2.868 2.868 2.871 2.871 0 0 0 2.868-2.869A2.871 2.871 0 0 0 32.27 26.5zm0 4.33a1.463 1.463 0 0 1-1.461-1.461 1.462 1.462 0 0 1 2.923 0c0 .805-.656 1.461-1.462 1.461z" fill="url(#paint4_linear)"/><path d="M24.793 26.5a2.871 2.871 0 0 0-2.868 2.869 2.871 2.871 0 0 0 2.868 2.868 2.871 2.871 0 0 0 2.868-2.869 2.871 2.871 0 0 0-2.868-2.868zm0 4.33a1.463 1.463 0 0 1-1.462-1.461 1.463 1.463 0 0 1 2.924 0c0 .805-.656 1.461-1.462 1.461z" fill="url(#paint5_linear)"/><path d="M24.793 33.496a2.871 2.871 0 0 0-2.868 2.869 2.871 2.871 0 0 0 2.868 2.868 2.871 2.871 0 0 0 2.868-2.868 2.871 2.871 0 0 0-2.868-2.869zm0 4.33a1.463 1.463 0 0 1-1.462-1.461 1.463 1.463 0 0 1 2.924 0c0 .806-.656 1.461-1.462 1.461z" fill="url(#paint6_linear)"/><path d="M17.315 33.496a2.871 2.871 0 0 0-2.868 2.869 2.871 2.871 0 0 0 2.868 2.868 2.871 2.871 0 0 0 2.868-2.868 2.871 2.871 0 0 0-2.868-2.869zm0 4.33a1.463 1.463 0 0 1-1.461-1.461c0-.806.655-1.462 1.461-1.462s1.462.655 1.462 1.462c0 .806-.656 1.461-1.462 1.461z" fill="url(#paint7_linear)"/><path d="M10.833 22.372l1.034-1.033a.703.703 0 1 0-.995-.995L9.84 21.378l-1.034-1.034a.703.703 0 1 0-.994.995l1.033 1.033-1.033 1.034a.703.703 0 1 0 .994.994l1.034-1.033 1.033 1.033a.7.7 0 0 0 .995 0 .703.703 0 0 0 0-.994l-1.034-1.034z" fill="url(#paint8_linear)"/><path d="M10.833 29.369l1.034-1.034a.703.703 0 1 0-.995-.995L9.84 28.374 8.805 27.34a.703.703 0 1 0-.994.995l1.033 1.034-1.033 1.033a.703.703 0 1 0 .994.994l1.034-1.033 1.033 1.034a.7.7 0 0 0 .995 0 .703.703 0 0 0 0-.995l-1.034-1.034z" fill="url(#paint9_linear)"/><path d="M11.866 37.398l-1.034-1.033 1.034-1.034a.703.703 0 0 0-.995-.995L9.838 35.37l-1.034-1.033a.703.703 0 0 0-.995.994l1.034 1.034-1.034 1.033a.703.703 0 0 0 .995.995l1.034-1.034 1.033 1.034a.702.702 0 0 0 .995 0 .703.703 0 0 0 0-.995z" fill="url(#paint10_linear)"/><path d="M47.96 39.49l-1.918-10.092a.704.704 0 0 0-1.382.263l1.918 10.092c.107.565-.37 1.098-1.02 1.098H35.154l6.75-6.75a.711.711 0 0 0 .205-.496V16.23l1.929 10.148a.703.703 0 0 0 1.381-.262L42.104 8.674a1.959 1.959 0 0 0-1.954-1.868h-6.162v-2.26a.703.703 0 1 0-1.406 0v2.26h-4.71v-2.26a.703.703 0 1 0-1.406 0v2.26h-4.709v-2.26a.703.703 0 1 0-1.406 0v2.26h-4.71v-2.26a.703.703 0 1 0-1.405 0v2.26h-4.71v-2.26a.703.703 0 1 0-1.406 0v2.26H1.958A1.96 1.96 0 0 0 0 8.764V42.2a1.96 1.96 0 0 0 1.958 1.958h17.456a.703.703 0 1 0 0-1.406H1.957a.552.552 0 0 1-.552-.552V15.936h39.296V32.9H32.81a1.96 1.96 0 0 0-1.959 1.958v7.893h-8.156a.703.703 0 1 0 0 1.406h8.86a.707.707 0 0 0 .497-.206l1.695-1.695h11.812c1.527 0 2.674-1.33 2.4-2.767zM1.406 14.53V8.763c0-.304.248-.552.552-.552H8.12v3.159a.703.703 0 1 0 1.407 0V8.212h4.709v3.159a.703.703 0 1 0 1.406 0V8.212h4.709v3.159a.703.703 0 1 0 1.406 0V8.212h4.71v3.159a.703.703 0 1 0 1.406 0V8.212h4.709v3.159a.703.703 0 1 0 1.406 0V8.212h6.162c.304 0 .552.248.552.552v5.765H1.406zm30.852 27.227V34.86c0-.304.247-.552.551-.552h6.898l-7.45 7.45z" fill="url(#paint11_linear)"/><defs><linearGradient id="paint0_linear" x1="17.315" y1="19.504" x2="17.315" y2="25.241" gradientUnits="userSpaceOnUse"><stop stop-color="#FD9590"/><stop offset="1" stop-color="#F8D6B8"/></linearGradient><linearGradient id="paint1_linear" x1="24.793" y1="19.504" x2="24.793" y2="25.241" gradientUnits="userSpaceOnUse"><stop stop-color="#FD9590"/><stop offset="1" stop-color="#F8D6B8"/></linearGradient><linearGradient id="paint2_linear" x1="32.27" y1="19.504" x2="32.27" y2="25.241" gradientUnits="userSpaceOnUse"><stop stop-color="#FD9590"/><stop offset="1" stop-color="#F8D6B8"/></linearGradient><linearGradient id="paint3_linear" x1="17.315" y1="26.5" x2="17.315" y2="32.237" gradientUnits="userSpaceOnUse"><stop stop-color="#FD9590"/><stop offset="1" stop-color="#F8D6B8"/></linearGradient><linearGradient id="paint4_linear" x1="32.27" y1="26.5" x2="32.27" y2="32.237" gradientUnits="userSpaceOnUse"><stop stop-color="#FD9590"/><stop offset="1" stop-color="#F8D6B8"/></linearGradient><linearGradient id="paint5_linear" x1="24.793" y1="26.5" x2="24.793" y2="32.237" gradientUnits="userSpaceOnUse"><stop stop-color="#FD9590"/><stop offset="1" stop-color="#F8D6B8"/></linearGradient><linearGradient id="paint6_linear" x1="24.793" y1="33.496" x2="24.793" y2="39.233" gradientUnits="userSpaceOnUse"><stop stop-color="#FD9590"/><stop offset="1" stop-color="#F8D6B8"/></linearGradient><linearGradient id="paint7_linear" x1="17.315" y1="33.496" x2="17.315" y2="39.233" gradientUnits="userSpaceOnUse"><stop stop-color="#FD9590"/><stop offset="1" stop-color="#F8D6B8"/></linearGradient><linearGradient id="paint8_linear" x1="9.839" y1="20.138" x2="9.839" y2="24.606" gradientUnits="userSpaceOnUse"><stop stop-color="#FD9590"/><stop offset="1" stop-color="#F8D6B8"/></linearGradient><linearGradient id="paint9_linear" x1="9.839" y1="27.134" x2="9.839" y2="31.602" gradientUnits="userSpaceOnUse"><stop stop-color="#FD9590"/><stop offset="1" stop-color="#F8D6B8"/></linearGradient><linearGradient id="paint10_linear" x1="9.838" y1="34.131" x2="9.838" y2="38.599" gradientUnits="userSpaceOnUse"><stop stop-color="#FD9590"/><stop offset="1" stop-color="#F8D6B8"/></linearGradient><linearGradient id="paint11_linear" x1="24" y1="3.842" x2="24" y2="44.158" gradientUnits="userSpaceOnUse"><stop stop-color="#FD9590"/><stop offset="1" stop-color="#F8D6B8"/></linearGradient></defs></svg>