<svg width="48" height="48" fill="none" xmlns="http://www.w3.org/2000/svg"><g clip-path="url(#clip0)"><path d="M40.875 3H7.125A7.133 7.133 0 0 0 0 10.125a7.133 7.133 0 0 0 7.125 7.125h.662a.75.75 0 0 0 0-1.5h-.662A5.631 5.631 0 0 1 1.5 10.125 5.631 5.631 0 0 1 7.125 4.5h33.75a5.631 5.631 0 0 1 5.625 5.625 5.631 5.631 0 0 1-5.625 5.625H12.4a.75.75 0 0 0 0 1.5h28.476A7.133 7.133 0 0 0 48 10.125 7.133 7.133 0 0 0 40.875 3z" fill="url(#paint0_linear)"/><path d="M18.308 7.592v-.956h-3.906v6.92h1.123v-2.84h2.608v-.96h-2.608V7.591h2.783z" fill="url(#paint1_linear)"/><path d="M22.8 10.494c.895-.366 1.344-.98 1.344-1.841 0-.676-.215-1.18-.644-1.515-.429-.335-1.09-.502-1.984-.502h-1.954v6.92h1.131v-2.764h1.117l1.657 2.764h1.288L22.8 10.494zm-1.32-.64h-.786V7.593h.747c.515 0 .9.085 1.155.256.256.17.383.451.383.842 0 .385-.118.676-.354.872-.238.195-.62.293-1.146.293z" fill="url(#paint2_linear)"/><path d="M29.673 7.592v-.956H25.76v6.92h3.914v-.96H26.89v-2.173h2.608v-.947H26.89V7.592h2.783z" fill="url(#paint3_linear)"/><path d="M35.084 7.592v-.956h-3.915v6.92h3.915v-.96H32.3v-2.173h2.608v-.947H32.3V7.592h2.784z" fill="url(#paint4_linear)"/><path d="M18.023 20.25l-5.273-.662v-6.463a2.628 2.628 0 0 0-2.625-2.625A2.628 2.628 0 0 0 7.5 13.125v17.727c0 1.5.9 2.81 2.25 3.366V44.25c0 .414.336.75.75.75h9.75a.75.75 0 0 0 .75-.75V34.217a3.623 3.623 0 0 0 2.25-3.366v-5.325c0-2.893-2.34-5.25-5.227-5.276zm3.727 10.602a2.135 2.135 0 0 1-1.668 2.088.75.75 0 0 0-.582.731V43.5h-8.25v-9.829a.75.75 0 0 0-.582-.73A2.135 2.135 0 0 1 9 30.85V13.126c0-.62.505-1.125 1.125-1.125s1.125.505 1.125 1.125v7.125a.75.75 0 0 0 .657.744l5.974.75a.714.714 0 0 0 .093.006 3.78 3.78 0 0 1 3.776 3.776v5.326z" fill="url(#paint5_linear)"/><path d="M12 19.5a.75.75 0 0 0-.75.75V24a.75.75 0 0 0 1.5 0v-3.75a.75.75 0 0 0-.75-.75z" fill="url(#paint6_linear)"/><path d="M15 20.25a.75.75 0 0 0-.749.75v2.25a.75.75 0 0 0 1.5 0V21a.75.75 0 0 0-.75-.75z" fill="url(#paint7_linear)"/><path d="M18 20.25a.75.75 0 0 0-.75.75v2.25a.75.75 0 0 0 1.5 0V21a.75.75 0 0 0-.75-.75z" fill="url(#paint8_linear)"/><path d="M31.59 21.53l-2.12-2.121a.75.75 0 0 0-1.06 1.06l2.12 2.122a.747.747 0 0 0 1.06 0 .75.75 0 0 0 0-1.06z" fill="url(#paint9_linear)"/><path d="M31.59 19.41a.75.75 0 0 0-1.06 0l-2.12 2.12a.75.75 0 0 0 1.06 1.062l2.12-2.122a.75.75 0 0 0 0-1.06z" fill="url(#paint10_linear)"/><path d="M39.09 29.03l-2.12-2.121a.75.75 0 0 0-1.06 1.06l2.12 2.122a.747.747 0 0 0 1.06 0 .75.75 0 0 0 0-1.06z" fill="url(#paint11_linear)"/><path d="M39.09 26.91a.75.75 0 0 0-1.06 0l-2.12 2.12a.75.75 0 0 0 1.06 1.062l2.12-2.122a.75.75 0 0 0 0-1.06z" fill="url(#paint12_linear)"/></g><defs><linearGradient id="paint0_linear" x1="24" y1="3" x2="24" y2="17.25" gradientUnits="userSpaceOnUse"><stop stop-color="#FD9590"/><stop offset="1" stop-color="#F8D6B8"/></linearGradient><linearGradient id="paint1_linear" x1="16.355" y1="6.636" x2="16.355" y2="13.556" gradientUnits="userSpaceOnUse"><stop stop-color="#FD9590"/><stop offset="1" stop-color="#F8D6B8"/></linearGradient><linearGradient id="paint2_linear" x1="22.158" y1="6.636" x2="22.158" y2="13.556" gradientUnits="userSpaceOnUse"><stop stop-color="#FD9590"/><stop offset="1" stop-color="#F8D6B8"/></linearGradient><linearGradient id="paint3_linear" x1="27.716" y1="6.636" x2="27.716" y2="13.556" gradientUnits="userSpaceOnUse"><stop stop-color="#FD9590"/><stop offset="1" stop-color="#F8D6B8"/></linearGradient><linearGradient id="paint4_linear" x1="33.126" y1="6.636" x2="33.126" y2="13.556" gradientUnits="userSpaceOnUse"><stop stop-color="#FD9590"/><stop offset="1" stop-color="#F8D6B8"/></linearGradient><linearGradient id="paint5_linear" x1="15.375" y1="10.5" x2="15.375" y2="45" gradientUnits="userSpaceOnUse"><stop stop-color="#FD9590"/><stop offset="1" stop-color="#F8D6B8"/></linearGradient><linearGradient id="paint6_linear" x1="12" y1="19.5" x2="12" y2="24.75" gradientUnits="userSpaceOnUse"><stop stop-color="#FD9590"/><stop offset="1" stop-color="#F8D6B8"/></linearGradient><linearGradient id="paint7_linear" x1="15.001" y1="20.25" x2="15.001" y2="24" gradientUnits="userSpaceOnUse"><stop stop-color="#FD9590"/><stop offset="1" stop-color="#F8D6B8"/></linearGradient><linearGradient id="paint8_linear" x1="18" y1="20.25" x2="18" y2="24" gradientUnits="userSpaceOnUse"><stop stop-color="#FD9590"/><stop offset="1" stop-color="#F8D6B8"/></linearGradient><linearGradient id="paint9_linear" x1="30" y1="19.189" x2="30" y2="22.811" gradientUnits="userSpaceOnUse"><stop stop-color="#FD9590"/><stop offset="1" stop-color="#F8D6B8"/></linearGradient><linearGradient id="paint10_linear" x1="30" y1="19.19" x2="30" y2="22.811" gradientUnits="userSpaceOnUse"><stop stop-color="#FD9590"/><stop offset="1" stop-color="#F8D6B8"/></linearGradient><linearGradient id="paint11_linear" x1="37.5" y1="26.689" x2="37.5" y2="30.311" gradientUnits="userSpaceOnUse"><stop stop-color="#FD9590"/><stop offset="1" stop-color="#F8D6B8"/></linearGradient><linearGradient id="paint12_linear" x1="37.5" y1="26.69" x2="37.5" y2="30.311" gradientUnits="userSpaceOnUse"><stop stop-color="#FD9590"/><stop offset="1" stop-color="#F8D6B8"/></linearGradient><clipPath id="clip0"><path fill="#fff" d="M0 0h48v48H0z"/></clipPath></defs></svg>