<svg width="40" height="40" fill="none" xmlns="http://www.w3.org/2000/svg"><path d="M27.274 25.085a.666.666 0 1 0-1.244.477c.608 1.586.652 2.799.12 3.332-.645.644-2.252.443-4.299-.537a28.504 28.504 0 0 1-7.376-5.505C9.255 17.633 7.1 12.51 8.433 11.177a1.82 1.82 0 0 1 1.507-.352.666.666 0 0 0 .13-1.326 3.069 3.069 0 0 0-2.58.733c-2.441 2.441 1.291 8.809 6.042 13.56a29.802 29.802 0 0 0 7.744 5.764c.52.25 1.058.464 1.607.643l-4.735 1.795A18.862 18.862 0 0 1 6.22 17.304a.667.667 0 0 0-1.317.207c.105.666.244 1.332.416 1.984a20.229 20.229 0 0 0 11.029 13.18l-7.793 2.95a.654.654 0 0 0-.133-.16 9.285 9.285 0 0 1-3.44-6.452l-.308-3.745a.658.658 0 0 0-.722-.61.666.666 0 0 0-.611.72l.314 3.744a10.616 10.616 0 0 0 3.526 7.02l-5.559 2.105 1-4.102a.667.667 0 1 0-1.296-.316l-1.3 5.331a.666.666 0 0 0 .884.782l24.657-9.33a.624.624 0 0 0 .11-.07 2.59 2.59 0 0 0 1.415-.705c.66-.66 1.229-2.022.182-4.752z" fill="#fff"/><path d="M33.562 23.366a21.944 21.944 0 0 0-11.29-1.096l-2.382.4a.666.666 0 0 0 .22 1.314l2.38-.397a20.597 20.597 0 0 1 10.604 1.03c.076.027.155.04.234.04a.666.666 0 0 0 .234-1.29zm2.37-10.325a.666.666 0 0 0-.888-.315L21.049 19.39a.666.666 0 1 0 .573 1.204l13.995-6.664a.666.666 0 0 0 .315-.889zM16.191 4.523a.666.666 0 1 0-1.306.265l.006.024a18.64 18.64 0 0 1-.995 11.268l-.97 2.326a.666.666 0 0 0 1.23.51l.97-2.323a19.966 19.966 0 0 0 1.065-12.07zM36.66 23.99a2 2 0 1 0 0 4 2 2 0 0 0 0-4zm0 2.666a.666.666 0 1 1 0-1.333.666.666 0 0 1 0 1.333zM20.667 5.331a2 2 0 1 0 0 3.999 2 2 0 0 0 0-3.999zm0 2.666a.666.666 0 1 1 0-1.333.666.666 0 0 1 0 1.333zM14.67 2.666a1.333 1.333 0 1 0 0-2.666 1.333 1.333 0 0 0 0 2.666zm18.658.666a.666.666 0 0 0-.666.666v.667a.666.666 0 0 0 1.333 0v-.667a.666.666 0 0 0-.666-.666zm0-3.332a.666.666 0 0 0-.666.666v.667a.666.666 0 0 0 1.333 0V.666A.666.666 0 0 0 33.329 0zm2 2h-.667a.666.666 0 0 0 0 1.332h.667a.666.666 0 1 0 0-1.333zm-3.332 0h-.666a.666.666 0 0 0 0 1.332h.666a.666.666 0 0 0 0-1.333zm-3.332 5.316h-3.346a.666.666 0 0 0-.667.667v3.346c0 .368.299.666.667.666h3.346a.666.666 0 0 0 .666-.666V7.983a.666.666 0 0 0-.666-.667zm-.667 3.346h-2.013V8.65h2.013v2.013zm-4.188 2.219a.666.666 0 0 0-.923-.048l-6.664 5.998a.666.666 0 0 0 .892.99l6.664-5.998a.666.666 0 0 0 .03-.942zm12.186 2.446a.666.666 0 0 0-.667.667v.666a.666.666 0 0 0 1.333 0v-.666a.666.666 0 0 0-.666-.667zm2.827-.114l-.471-.471a.666.666 0 0 0-.942.942l.47.471a.666.666 0 0 0 .943-.942zm.504-2.551h-.666a.666.666 0 1 0 0 1.333h.666a.666.666 0 0 0 0-1.333zm-.52-2.161a.667.667 0 0 0-.926 0l-.471.471a.666.666 0 0 0 .942.943l.471-.471a.666.666 0 0 0-.016-.943zM35.995 9.33a.666.666 0 0 0-.667.666v.666a.666.666 0 0 0 1.333 0v-.666a.666.666 0 0 0-.666-.666zm-1.414 1.642l-.471-.47a.666.666 0 0 0-.943.942l.472.47a.666.666 0 0 0 .942-.942zM7.973 2.882a.666.666 0 0 0-.538-.454L5.48 2.144 4.607.372a.694.694 0 0 0-1.196 0l-.876 1.772-1.956.284a.666.666 0 0 0-.37 1.137l1.414 1.379-.333 1.948a.666.666 0 0 0 .968.705l1.75-.922 1.748.92a.666.666 0 0 0 .967-.703L6.39 4.944l1.416-1.38a.666.666 0 0 0 .167-.682zM5.207 4.234a.666.666 0 0 0-.192.59l.165.962-.863-.455a.667.667 0 0 0-.62 0l-.866.455.165-.963a.666.666 0 0 0-.188-.589l-.7-.681.966-.141a.666.666 0 0 0 .502-.365l.431-.875.432.875a.666.666 0 0 0 .501.365l.966.14-.7.682zm32.535 29.17h-.003l-.274-.412a10.056 10.056 0 0 0-6.692-4.327.666.666 0 0 0-.22 1.314 8.719 8.719 0 0 1 5.086 2.835c-1.11.2-2.081.866-2.666 1.83a2.666 2.666 0 0 0 4.655 2.6c.274-.53.422-1.115.432-1.711.71 1.03.766 2.375.146 3.46a.666.666 0 1 0 1.164.65 4.652 4.652 0 0 0-1.628-6.24zm-1.276 3.19a1.333 1.333 0 1 1-2.334-1.289l.006-.01a2.497 2.497 0 0 1 1.805-1.175.677.677 0 0 1 .333.077c.562.314.592 1.675.19 2.396z" fill="#fff"/></svg>