<svg width="72" height="72" fill="none" xmlns="http://www.w3.org/2000/svg"><path stroke="url(#paint0_linear)" stroke-width="2" d="M1 1h70v70H1z"/><path d="M52.947 33.5H51a1.916 1.916 0 0 0-1.829-1.406h-2.077v-5.08a.537.537 0 0 0-.262-.474l-14.654-8.464a.541.541 0 0 0-.544 0L16.975 26.54a.547.547 0 0 0-.272.474v16.928a.547.547 0 0 0 .274.474l14.66 8.464a.547.547 0 0 0 .273.073.575.575 0 0 0 .282-.073l7.714-4.45v3.217a2.314 2.314 0 0 0 2.336 2.322h10.705a2.328 2.328 0 0 0 2.35-2.322V35.858a2.36 2.36 0 0 0-2.35-2.358zm-3.757-.313a.794.794 0 0 1 .794.794v.053a.794.794 0 0 1-.794.794h-3.177a.794.794 0 0 1-.794-.794v-.053a.793.793 0 0 1 .794-.794h3.178zM31.91 19.181l6.092 3.517-13.566 7.832-6.091-3.517 13.566-7.832zm-.52 32.278l-13.593-7.833V27.96l13.594 7.832V51.46zm.52-16.614l-6.38-3.683 13.566-7.832 6.38 3.683-13.566 7.832zm7.996 1.013v11.31l-7.422 4.291V35.792L46 27.96v4.134h.017a1.917 1.917 0 0 0-1.83 1.406h-1.945a2.347 2.347 0 0 0-2.336 2.358zm14.297 15.79a1.232 1.232 0 0 1-1.256 1.227H42.24A1.22 1.22 0 0 1 41 51.647V35.858a1.253 1.253 0 0 1 1.242-1.264h1.967a1.87 1.87 0 0 0 1.808 1.328h3.154a1.87 1.87 0 0 0 1.808-1.328h1.968a1.264 1.264 0 0 1 1.256 1.264v15.79z" fill="url(#paint1_linear)"/><path d="M42.871 41.39h.572a.547.547 0 0 0 0-1.093h-.021v-1.484h1.508a.526.526 0 0 0 .52.369.548.548 0 0 0 .55-.546v-.368a.554.554 0 0 0-.553-.55h-2.576a.543.543 0 0 0-.543.55v2.576a.544.544 0 0 0 .543.547z" fill="url(#paint2_linear)"/><path d="M42.875 46.39h2.578a.547.547 0 0 0 .547-.546v-2.578a.547.547 0 0 0-.547-.547h-2.578a.547.547 0 0 0-.547.547v2.578a.546.546 0 0 0 .547.547zm.547-2.578h1.484v1.485h-1.484v-1.484z" fill="url(#paint3_linear)"/><path d="M43.444 50.297h-.022v-1.484H44.9a.55.55 0 0 0 1.099 0v-.526a.57.57 0 0 0-.553-.568H42.87a.562.562 0 0 0-.543.568v2.576a.528.528 0 0 0 .543.528h.573a.547.547 0 0 0 0-1.094z" fill="url(#paint4_linear)"/><path d="M46.707 38.39l-1.602 1.602-.487-.488a.547.547 0 0 0-.773.774l.874.874a.547.547 0 0 0 .773 0l1.989-1.989a.547.547 0 1 0-.774-.773z" fill="url(#paint5_linear)"/><path d="M46.707 48.488l-1.602 1.601-.487-.487a.548.548 0 0 0-.773.773l.874.874a.547.547 0 0 0 .773 0l1.989-1.988a.547.547 0 1 0-.774-.774z" fill="url(#paint6_linear)"/><path d="M52.318 39.047h-3.435a.547.547 0 0 0 0 1.094h3.435a.547.547 0 0 0 0-1.094z" fill="url(#paint7_linear)"/><path d="M52.318 44.047h-3.435a.547.547 0 0 0 0 1.094h3.435a.547.547 0 0 0 0-1.094z" fill="url(#paint8_linear)"/><path d="M52.318 49.047h-3.435a.547.547 0 0 0 0 1.094h3.435a.547.547 0 0 0 0-1.094z" fill="url(#paint9_linear)"/><defs><linearGradient id="paint0_linear" x1="36" y1="0" x2="36" y2="72" gradientUnits="userSpaceOnUse"><stop stop-color="#FD9590"/><stop offset="1" stop-color="#F8D6B8"/></linearGradient><linearGradient id="paint1_linear" x1="36" y1="18.003" x2="36" y2="53.969" gradientUnits="userSpaceOnUse"><stop stop-color="#FD9590"/><stop offset="1" stop-color="#F8D6B8"/></linearGradient><linearGradient id="paint2_linear" x1="44.164" y1="37.719" x2="44.164" y2="41.391" gradientUnits="userSpaceOnUse"><stop stop-color="#FD9590"/><stop offset="1" stop-color="#F8D6B8"/></linearGradient><linearGradient id="paint3_linear" x1="44.164" y1="42.719" x2="44.164" y2="46.391" gradientUnits="userSpaceOnUse"><stop stop-color="#FD9590"/><stop offset="1" stop-color="#F8D6B8"/></linearGradient><linearGradient id="paint4_linear" x1="44.164" y1="47.719" x2="44.164" y2="51.391" gradientUnits="userSpaceOnUse"><stop stop-color="#FD9590"/><stop offset="1" stop-color="#F8D6B8"/></linearGradient><linearGradient id="paint5_linear" x1="45.663" y1="38.23" x2="45.663" y2="41.312" gradientUnits="userSpaceOnUse"><stop stop-color="#FD9590"/><stop offset="1" stop-color="#F8D6B8"/></linearGradient><linearGradient id="paint6_linear" x1="45.663" y1="48.327" x2="45.663" y2="51.409" gradientUnits="userSpaceOnUse"><stop stop-color="#FD9590"/><stop offset="1" stop-color="#F8D6B8"/></linearGradient><linearGradient id="paint7_linear" x1="50.6" y1="39.047" x2="50.6" y2="40.141" gradientUnits="userSpaceOnUse"><stop stop-color="#FD9590"/><stop offset="1" stop-color="#F8D6B8"/></linearGradient><linearGradient id="paint8_linear" x1="50.6" y1="44.047" x2="50.6" y2="45.141" gradientUnits="userSpaceOnUse"><stop stop-color="#FD9590"/><stop offset="1" stop-color="#F8D6B8"/></linearGradient><linearGradient id="paint9_linear" x1="50.6" y1="49.047" x2="50.6" y2="50.141" gradientUnits="userSpaceOnUse"><stop stop-color="#FD9590"/><stop offset="1" stop-color="#F8D6B8"/></linearGradient></defs></svg>