<svg width="48" height="48" fill="none" xmlns="http://www.w3.org/2000/svg"><path d="M30.845 5.931C30.363 2.551 27.42 0 24 0a6.941 6.941 0 0 0-5.587 2.84.814.814 0 1 0 1.313.96A5.312 5.312 0 0 1 24 1.627c2.615 0 4.865 1.95 5.234 4.534a.814.814 0 0 0 1.611-.23z" fill="url(#paint0_linear)"/><path d="M42.596 15.039l-2.44-4.068a.813.813 0 0 0-.698-.395h-2.34a.814.814 0 0 0 0 1.627h1.879l1.464 2.44H7.538l1.465-2.44h.861a.814.814 0 0 0 0-1.627H8.542c-.286 0-.55.15-.697.395l-2.441 4.068a.814.814 0 0 0 .698 1.232h35.796a.813.813 0 0 0 .698-1.232z" fill="url(#paint1_linear)"/><path d="M38.54 7.537a.812.812 0 0 0-.507-.363L26.943 4.58a.815.815 0 0 0-.978.607l-.836 3.575a.813.813 0 1 0 1.584.37l.651-2.782 9.506 2.223-1.493 6.387a.813.813 0 1 0 1.584.37l1.679-7.178a.81.81 0 0 0-.1-.615z" fill="url(#paint2_linear)"/><path d="M24.43 9.46l-.741-6.27a.812.812 0 0 0-.904-.712L9.178 4.086a.814.814 0 0 0-.712.904L9.7 15.447a.814.814 0 0 0 1.617-.19l-1.141-9.65 11.992-1.418.645 5.462a.814.814 0 0 0 1.616-.19z" fill="url(#paint3_linear)"/><path d="M30.864 15.148l-1.615-6.715a.815.815 0 0 0-.981-.6l-13.106 3.152a.814.814 0 0 0-.601.981l.807 3.356a.813.813 0 1 0 1.582-.38l-.617-2.566 11.524-2.77 1.424 5.923a.814.814 0 1 0 1.583-.38z" fill="url(#paint4_linear)"/><path d="M42.712 15.416a.814.814 0 0 0-.813-.772H6.102c-.433 0-.79.34-.813.772L3.662 47.145a.814.814 0 0 0 .813.855h39.05a.817.817 0 0 0 .814-.855l-1.627-31.729zM5.33 46.373L6.875 16.27h34.25l1.544 30.102H5.331z" fill="url(#paint5_linear)"/><path d="M30.102 17.898a2.443 2.443 0 0 0-2.44 2.44 2.443 2.443 0 0 0 2.44 2.441 2.443 2.443 0 0 0 2.44-2.44 2.443 2.443 0 0 0-2.44-2.44zm0 3.255a.814.814 0 1 1 .001-1.629.814.814 0 0 1-.001 1.629z" fill="url(#paint6_linear)"/><path d="M17.899 17.898a2.443 2.443 0 0 0-2.441 2.44 2.443 2.443 0 0 0 2.44 2.441 2.443 2.443 0 0 0 2.441-2.44 2.443 2.443 0 0 0-2.44-2.44zm0 3.255a.814.814 0 1 1 .001-1.63.814.814 0 0 1-.001 1.63z" fill="url(#paint7_linear)"/><path d="M30.102 20.339h-.063a.814.814 0 0 0-.75 1.127v4.16A5.294 5.294 0 0 1 24 30.916a5.294 5.294 0 0 1-5.288-5.288v-4.474a.814.814 0 0 0-1.627 0v4.474A6.923 6.923 0 0 0 24 32.542a6.923 6.923 0 0 0 6.915-6.915v-4.474a.814.814 0 0 0-.813-.814z" fill="url(#paint8_linear)"/><defs><linearGradient id="paint0_linear" x1="24.555" y1="0" x2="24.555" y2="6.86" gradientUnits="userSpaceOnUse"><stop stop-color="#FD9590"/><stop offset="1" stop-color="#F8D6B8"/></linearGradient><linearGradient id="paint1_linear" x1="24" y1="10.576" x2="24" y2="16.271" gradientUnits="userSpaceOnUse"><stop stop-color="#FD9590"/><stop offset="1" stop-color="#F8D6B8"/></linearGradient><linearGradient id="paint2_linear" x1="31.884" y1="4.559" x2="31.884" y2="15.958" gradientUnits="userSpaceOnUse"><stop stop-color="#FD9590"/><stop offset="1" stop-color="#F8D6B8"/></linearGradient><linearGradient id="paint3_linear" x1="16.448" y1="2.473" x2="16.448" y2="16.165" gradientUnits="userSpaceOnUse"><stop stop-color="#FD9590"/><stop offset="1" stop-color="#F8D6B8"/></linearGradient><linearGradient id="paint4_linear" x1="22.712" y1="7.811" x2="22.712" y2="16.153" gradientUnits="userSpaceOnUse"><stop stop-color="#FD9590"/><stop offset="1" stop-color="#F8D6B8"/></linearGradient><linearGradient id="paint5_linear" x1="24" y1="14.644" x2="24" y2="48" gradientUnits="userSpaceOnUse"><stop stop-color="#FD9590"/><stop offset="1" stop-color="#F8D6B8"/></linearGradient><linearGradient id="paint6_linear" x1="30.102" y1="17.898" x2="30.102" y2="22.779" gradientUnits="userSpaceOnUse"><stop stop-color="#FD9590"/><stop offset="1" stop-color="#F8D6B8"/></linearGradient><linearGradient id="paint7_linear" x1="17.899" y1="17.898" x2="17.899" y2="22.779" gradientUnits="userSpaceOnUse"><stop stop-color="#FD9590"/><stop offset="1" stop-color="#F8D6B8"/></linearGradient><linearGradient id="paint8_linear" x1="24" y1="20.339" x2="24" y2="32.542" gradientUnits="userSpaceOnUse"><stop stop-color="#FD9590"/><stop offset="1" stop-color="#F8D6B8"/></linearGradient></defs></svg>