<svg width="72" height="72" fill="none" xmlns="http://www.w3.org/2000/svg"><path stroke="url(#paint0_linear)" stroke-width="2" d="M1 1h70v70H1z"/><path d="M53.535 19.131h-35.07A2.468 2.468 0 0 0 16 21.596v23.798a2.467 2.467 0 0 0 2.465 2.465h11.861l-.48 3.838H27.86a.586.586 0 1 0 0 1.172h16.28a.586.586 0 0 0 0-1.172h-1.987l-.48-3.839h11.861A2.468 2.468 0 0 0 56 45.395V21.596a2.468 2.468 0 0 0-2.465-2.465zM31.027 51.697l.48-3.839h2.157l.211.847A2.187 2.187 0 0 0 36 50.364c1.007 0 1.88-.683 2.125-1.66l.211-.846h2.157l.48 3.839h-9.946zm3.845-3.839h2.256l-.14.562a1.017 1.017 0 1 1-1.976 0l-.14-.562zm19.956-2.464c0 .713-.58 1.293-1.293 1.293h-35.07c-.713 0-1.293-.58-1.293-1.293V21.596c0-.713.58-1.293 1.293-1.293h35.07c.713 0 1.293.58 1.293 1.293v23.798z" fill="url(#paint1_linear)"/><path d="M49.151 21.637h-30.06a.586.586 0 0 0-.586.585v22.546c0 .323.262.586.586.586h1.252a.586.586 0 1 0 0-1.172h-.666V22.808H49.15a.586.586 0 1 0 0-1.171z" fill="url(#paint2_linear)"/><path d="M52.91 21.637h-1.253a.586.586 0 1 0 0 1.171h.666v21.374H22.85a.586.586 0 1 0 0 1.172h30.06a.586.586 0 0 0 .586-.586V22.222a.586.586 0 0 0-.586-.585z" fill="url(#paint3_linear)"/><path d="M43.977 28.124a.586.586 0 0 0-.435-.224l-13.778-.627h-.032a1.214 1.214 0 0 0-.487-.656l-1.688-1.125a.586.586 0 0 0-.65.975l1.688 1.125a.04.04 0 0 1 .016.023l2.15 7.521c.066.235.177.446.318.628l-.786 1.572a1.217 1.217 0 0 0 .354 1.51c-.154.27-.243.58-.243.911a1.84 1.84 0 0 0 1.839 1.839 1.84 1.84 0 0 0 1.712-2.505h5.342a1.84 1.84 0 0 0 1.713 2.505 1.84 1.84 0 0 0 1.646-2.657.584.584 0 0 0-.393-1.02H31.377c-.008 0-.023 0-.034-.02-.012-.018-.006-.03-.002-.038l.724-1.45a1.84 1.84 0 0 0 .678.046l8.233-.968a2.459 2.459 0 0 0 2.129-1.965l.985-4.924a.586.586 0 0 0-.114-.476zM41.01 39.09a.667.667 0 1 1-.001 1.335.667.667 0 0 1 .001-1.335zm-8.768 0a.667.667 0 1 1-.001 1.335.667.667 0 0 1 .001-1.335zm-1.436-8.06l-.735-2.57 2.343.106.406 2.463h-2.014zm1.8 4.263a.664.664 0 0 1-.72-.48l-.746-2.612h1.873l.492 2.986-.9.106zm3.434-.404l-1.37.16-.469-2.848h1.84v2.688zm0-3.86h-2.032l-.397-2.409 2.43.11v2.3zm2.968 3.51l-1.796.212v-2.55h2.007l-.211 2.338zm.317-3.51h-2.113v-2.245l2.307.105-.194 2.14zm2.63 2.265a1.29 1.29 0 0 1-1.116 1.03l-.642.075.199-2.198h1.778l-.218 1.093zm.453-2.265h-1.906l.189-2.087 2.116.096-.399 1.991z" fill="url(#paint4_linear)"/><defs><linearGradient id="paint0_linear" x1="36" y1="0" x2="36" y2="72" gradientUnits="userSpaceOnUse"><stop stop-color="#FD9590"/><stop offset="1" stop-color="#F8D6B8"/></linearGradient><linearGradient id="paint1_linear" x1="36" y1="19.131" x2="36" y2="52.869" gradientUnits="userSpaceOnUse"><stop stop-color="#FD9590"/><stop offset="1" stop-color="#F8D6B8"/></linearGradient><linearGradient id="paint2_linear" x1="34.121" y1="21.637" x2="34.121" y2="45.354" gradientUnits="userSpaceOnUse"><stop stop-color="#FD9590"/><stop offset="1" stop-color="#F8D6B8"/></linearGradient><linearGradient id="paint3_linear" x1="37.879" y1="21.637" x2="37.879" y2="45.354" gradientUnits="userSpaceOnUse"><stop stop-color="#FD9590"/><stop offset="1" stop-color="#F8D6B8"/></linearGradient><linearGradient id="paint4_linear" x1="35.374" y1="25.394" x2="35.374" y2="41.596" gradientUnits="userSpaceOnUse"><stop stop-color="#FD9590"/><stop offset="1" stop-color="#F8D6B8"/></linearGradient></defs></svg>