<svg width="72" height="72" fill="none" xmlns="http://www.w3.org/2000/svg"><path stroke="url(#paint0_linear)" stroke-width="2" d="M1 1h70v70H1z"/><g clip-path="url(#clip0)"><path d="M40.688 36.313a.782.782 0 1 0 0 1.563.782.782 0 0 0 0-1.563z" fill="url(#paint1_linear)"/><path d="M23.983 44.89l-7.813 9.843A.78.78 0 0 0 16.782 56H55.22a.781.781 0 0 0 .612-1.267l-7.813-9.843a.781.781 0 0 0-.612-.296h-6.843l5.842-9.164a12.447 12.447 0 0 0 2.095-6.93C48.5 21.608 42.894 16 36 16s-12.5 5.608-12.5 12.5c0 2.48.724 4.875 2.095 6.93l5.842 9.164h-6.843a.781.781 0 0 0-.612.296zm-2.917 6.188h4.724l-2.666 3.36H18.4l2.666-3.36zm11.369-4.922l2.141 3.36h-5.551l2.666-3.36h.744zm7.133 0h.743l2.666 3.36h-5.551l2.142-3.36zm4.65 4.922l2.665 3.36H25.118l2.667-3.36h16.433zm4.66 3.36l-2.666-3.36h4.724l2.666 3.36h-4.724zm.818-4.922h-4.724l-2.666-3.36h4.724l2.666 3.36zM26.9 34.57a10.89 10.89 0 0 1-1.837-6.07c0-6.03 4.907-10.937 10.938-10.937 6.03 0 10.937 4.906 10.937 10.937 0 2.172-.635 4.27-1.836 6.07l-.009.013-9.092 14.26-9.092-14.26-.009-.013zm2.796 11.587l-2.666 3.359h-4.724l2.666-3.36h4.724z" fill="url(#paint2_linear)"/><path d="M36 36.313c4.289 0 7.813-3.474 7.813-7.813 0-4.308-3.505-7.812-7.813-7.812s-7.813 3.504-7.813 7.812c0 4.34 3.525 7.813 7.813 7.813zm0-14.063a6.257 6.257 0 0 1 6.25 6.25c0 3.479-2.826 6.25-6.25 6.25-3.425 0-6.25-2.771-6.25-6.25A6.257 6.257 0 0 1 36 22.25z" fill="url(#paint3_linear)"/><path d="M39.291 38.979a.781.781 0 0 0-1.072.266l-2.888 4.79a.781.781 0 0 0 1.338.807l2.888-4.79a.781.781 0 0 0-.266-1.073z" fill="url(#paint4_linear)"/></g><defs><linearGradient id="paint0_linear" x1="36" y1="0" x2="36" y2="72" gradientUnits="userSpaceOnUse"><stop stop-color="#FD9590"/><stop offset="1" stop-color="#F8D6B8"/></linearGradient><linearGradient id="paint1_linear" x1="40.688" y1="36.313" x2="40.688" y2="37.875" gradientUnits="userSpaceOnUse"><stop stop-color="#FD9590"/><stop offset="1" stop-color="#F8D6B8"/></linearGradient><linearGradient id="paint2_linear" x1="36.001" y1="16" x2="36.001" y2="56" gradientUnits="userSpaceOnUse"><stop stop-color="#FD9590"/><stop offset="1" stop-color="#F8D6B8"/></linearGradient><linearGradient id="paint3_linear" x1="36" y1="20.688" x2="36" y2="36.313" gradientUnits="userSpaceOnUse"><stop stop-color="#FD9590"/><stop offset="1" stop-color="#F8D6B8"/></linearGradient><linearGradient id="paint4_linear" x1="37.444" y1="38.867" x2="37.444" y2="45.22" gradientUnits="userSpaceOnUse"><stop stop-color="#FD9590"/><stop offset="1" stop-color="#F8D6B8"/></linearGradient><clipPath id="clip0"><path fill="#fff" d="M16 16h40v40H16z"/></clipPath></defs></svg>