<svg width="10" height="10" viewBox="0 0 10 10" fill="none" xmlns="http://www.w3.org/2000/svg">
<path d="M6.05997 4.99996L9.02872 2.03121C9.16962 1.89056 9.24887 1.6997 9.24905 1.50062C9.24922 1.30154 9.17031 1.11054 9.02966 0.969646C8.88901 0.828749 8.69815 0.749496 8.49907 0.74932C8.29999 0.749144 8.10899 0.828061 7.9681 0.968708L4.99935 3.93746L2.0306 0.968708C1.8897 0.827812 1.69861 0.748657 1.49935 0.748657C1.30009 0.748657 1.10899 0.827812 0.968098 0.968708C0.827202 1.1096 0.748047 1.3007 0.748047 1.49996C0.748047 1.69922 0.827202 1.89031 0.968098 2.03121L3.93685 4.99996L0.968098 7.96871C0.827202 8.1096 0.748047 8.3007 0.748047 8.49996C0.748047 8.69922 0.827202 8.89031 0.968098 9.03121C1.10899 9.1721 1.30009 9.25126 1.49935 9.25126C1.69861 9.25126 1.8897 9.1721 2.0306 9.03121L4.99935 6.06246L7.9681 9.03121C8.10899 9.1721 8.30009 9.25126 8.49935 9.25126C8.69861 9.25126 8.8897 9.1721 9.0306 9.03121C9.17149 8.89031 9.25065 8.69922 9.25065 8.49996C9.25065 8.3007 9.17149 8.1096 9.0306 7.96871L6.05997 4.99996Z" fill="#56C37C"/>
</svg>
