<svg width="16" height="16" viewBox="0 0 16 16" fill="none" xmlns="http://www.w3.org/2000/svg">
<path d="M5.5 5.5V4.25C5.5 3.91848 5.6317 3.60054 5.86612 3.36612C6.10054 3.1317 6.41848 3 6.75 3H13.25C13.5815 3 13.8995 3.1317 14.1339 3.36612C14.3683 3.60054 14.5 3.91848 14.5 4.25V11.75C14.5 12.0815 14.3683 12.3995 14.1339 12.6339C13.8995 12.8683 13.5815 13 13.25 13H6.75C6.41848 13 6.10054 12.8683 5.86612 12.6339C5.6317 12.3995 5.5 12.0815 5.5 11.75V10.5" stroke="#56C37C" stroke-linecap="round" stroke-linejoin="round"/>
<path d="M8.5 10.5L11 8L8.5 5.5" stroke="#56C37C" stroke-linecap="round" stroke-linejoin="round"/>
<path d="M1.5 8H10.5" stroke="#56C37C" stroke-linecap="round" stroke-linejoin="round"/>
</svg>
