<svg width="17" height="20" viewBox="0 0 17 20" fill="none" xmlns="http://www.w3.org/2000/svg">
<path d="M11.3996 2.79999H14.9996C15.7196 2.79999 16.1996 3.27999 16.1996 3.99999V5.19999H0.599609V3.99999C0.599609 3.27999 1.19961 2.79999 1.79961 2.79999H5.39961C5.63961 1.47999 6.95961 0.399994 8.39961 0.399994C9.83961 0.399994 11.1596 1.47999 11.3996 2.79999ZM6.59961 2.79999H10.1996C9.95961 2.07999 9.11961 1.59999 8.39961 1.59999C7.67961 1.59999 6.83961 2.07999 6.59961 2.79999ZM1.79961 6.39999H14.9996L13.9196 18.52C13.9196 19.12 13.3196 19.6 12.7196 19.6H4.07961C3.47961 19.6 2.99961 19.12 2.87961 18.52L1.79961 6.39999Z" fill="#C4C4C4"/>
</svg>
