<svg width="24" height="16" fill="none" xmlns="http://www.w3.org/2000/svg"><path d="M11.624 10.805L9.197 8.378a.094.094 0 0 0-.159.079 3.005 3.005 0 0 0 2.507 2.507.093.093 0 0 0 .097-.05.094.094 0 0 0-.018-.109zm.751-5.611l2.431 2.43a.094.094 0 0 0 .16-.078 3.006 3.006 0 0 0-2.51-2.51.094.094 0 0 0-.08.158z" fill="#DBDBDB"/><path d="M23.016 8.814a1.509 1.509 0 0 0-.005-1.63c-1.24-1.918-2.85-3.547-4.653-4.712C16.36 1.182 14.156.5 11.985.5a10.619 10.619 0 0 0-3.366.553.187.187 0 0 0-.074.31l2.215 2.215a.187.187 0 0 0 .179.049 4.5 4.5 0 0 1 5.437 5.438.187.187 0 0 0 .05.178l3.185 3.188a.188.188 0 0 0 .253.01 16.116 16.116 0 0 0 3.152-3.627zM12 12.5a4.498 4.498 0 0 1-4.373-5.56.188.188 0 0 0-.05-.18L4.444 3.627a.188.188 0 0 0-.253-.01c-1.144.975-2.204 2.162-3.172 3.549a1.496 1.496 0 0 0-.03 1.666c1.238 1.937 2.83 3.569 4.606 4.718 2.002 1.295 4.151 1.95 6.39 1.95a11.165 11.165 0 0 0 3.405-.54.188.188 0 0 0 .075-.312l-2.225-2.224a.187.187 0 0 0-.178-.05A4.499 4.499 0 0 1 12 12.5z" fill="#DBDBDB"/></svg>