<svg width="24" height="24" viewBox="0 0 24 24" fill="none" xmlns="http://www.w3.org/2000/svg">
<path d="M20.0159 14.0203C19.6128 13.6453 19.28 13.4203 19.1487 13.0594C19.1019 12.9328 19.0878 12.8578 19.1019 12.7031C19.1206 12.4219 19.3597 12.0563 20.9581 9.94219C21.6237 9.06094 22.4909 7.99688 22.4909 7.2C22.4909 6.68438 22.28 6.55782 21.5159 6.55782H18.0472C17.7425 6.55782 17.5362 6.975 17.4097 7.32657C17.2784 7.67813 17.0253 8.21719 16.4065 9.37969C15.7597 10.5984 14.8925 11.6672 14.5315 11.8359C14.4284 11.8828 14.3628 11.8828 14.2737 11.8734C14.2175 11.8688 14.0956 11.8359 13.9831 11.7C13.8753 11.5688 13.7065 11.3391 13.7722 9.17344C13.8097 7.96407 13.9456 7.12032 13.6925 6.60469C13.6409 6.50157 13.5284 6.39375 13.4675 6.34688C13.1065 6.08907 12.0894 5.99532 11.2175 5.99532C10.3456 5.99532 9.67529 6.09375 9.34248 6.19219C9.00967 6.29063 8.63467 6.51563 8.45654 6.75469C8.33936 6.90938 8.65811 6.82969 8.96748 6.97032C9.15498 7.05469 9.40342 7.18594 9.49248 7.40625C9.86748 8.38125 9.94717 9.15469 9.74092 10.5328C9.68935 10.8703 9.63311 11.4 9.43154 11.7281C9.31904 11.9109 9.06123 11.8969 8.98623 11.8734C8.23154 11.6438 7.64561 10.6547 7.05498 9.49688C6.44092 8.2875 6.12686 7.43907 5.95811 7.09219C5.78936 6.74532 5.53154 6.55782 5.09561 6.55782H1.98311C1.73936 6.55782 1.51904 6.75938 1.51904 6.97969C1.51904 7.49532 2.39092 8.99532 2.91592 10.0734C3.86279 12.0141 5.10498 13.8891 6.77842 15.7078C8.53154 17.6391 10.9222 18 11.6862 18C12.4503 18 13.0456 17.9719 13.2472 17.9297C13.3409 17.9109 13.4394 17.8688 13.5144 17.8125C13.8472 17.5547 13.7862 17.0625 13.8097 16.6781C13.8331 16.2844 13.8753 15.7641 14.1378 15.4594C14.3815 15.1734 14.6581 15.0938 15.0097 15.2672C15.3378 15.4313 15.5722 15.7078 15.8159 15.975C16.2894 16.4859 16.7206 17.0625 17.2831 17.4844C17.5409 17.6766 17.8222 17.7984 18.1222 17.8922C18.5206 18.0141 18.8956 18.0188 19.3081 18C19.7628 17.9813 20.105 17.9859 20.6675 17.9859C21.23 17.9859 21.9659 18.0094 22.219 17.8219C22.3409 17.7281 22.5003 17.5875 22.5003 17.2922C22.5003 16.7344 21.9284 15.8063 20.0159 14.0203Z" fill="#ABABAB"/>
</svg>
