<svg width="14" height="14" viewBox="0 0 14 14" fill="none" xmlns="http://www.w3.org/2000/svg">
<path d="M11.2186 14C10.6086 14 9.75174 13.7794 8.46861 13.0625C6.9083 12.1875 5.70142 11.3797 4.14955 9.83189C2.6533 8.33658 1.92517 7.36845 0.906111 5.51408C-0.245139 3.42033 -0.0488891 2.32283 0.170486 1.85377C0.431736 1.29314 0.817361 0.957828 1.3158 0.625015C1.59891 0.439526 1.89851 0.280521 2.2108 0.150015C2.24205 0.136578 2.27111 0.123765 2.29705 0.112203C2.45174 0.0425152 2.68611 -0.0627973 2.98299 0.0497027C3.18111 0.124078 3.35799 0.276265 3.63486 0.549703C4.20267 1.1097 4.97861 2.35689 5.26486 2.96939C5.45705 3.3822 5.58424 3.6547 5.58455 3.96033C5.58455 4.31814 5.40455 4.59408 5.18611 4.89189C5.14517 4.94783 5.10455 5.00127 5.06517 5.05314C4.82736 5.36564 4.77517 5.45595 4.80955 5.6172C4.87924 5.94127 5.39892 6.90595 6.25299 7.75814C7.10705 8.61033 8.04392 9.0972 8.36924 9.16658C8.53736 9.20251 8.62955 9.14814 8.95205 8.90189C8.9983 8.86658 9.0458 8.83002 9.09549 8.79345C9.42861 8.54564 9.69174 8.37033 10.0411 8.37033H10.043C10.347 8.37033 10.6074 8.5022 11.0386 8.7197C11.6011 9.00345 12.8858 9.76939 13.4492 10.3378C13.7233 10.6141 13.8761 10.7903 13.9508 10.9881C14.0633 11.286 13.9574 11.5194 13.8883 11.6756C13.8767 11.7016 13.8639 11.73 13.8505 11.7616C13.7189 12.0733 13.559 12.3723 13.3727 12.6547C13.0405 13.1516 12.7039 13.5363 12.142 13.7978C11.8535 13.9343 11.5378 14.0034 11.2186 14Z" fill="#3D3D3D"/>
</svg>
