<svg width="16" height="16" viewBox="0 0 16 16" fill="none" xmlns="http://www.w3.org/2000/svg">
<path d="M1.50532 3.54188C1.35145 3.62947 1.22359 3.75633 1.13481 3.90951C1.04603 4.0627 0.999509 4.23671 1.00001 4.41376V13.6875C0.999446 13.8603 1.04367 14.0303 1.12835 14.1809C1.21304 14.3315 1.33531 14.4576 1.48323 14.5469C1.63115 14.6362 1.79969 14.6856 1.97241 14.6904C2.14512 14.6951 2.31613 14.6551 2.46876 14.5741C2.48219 14.5669 2.49532 14.5594 2.50813 14.5509L5.13751 12.8306C5.17242 12.8079 5.20109 12.7767 5.2209 12.74C5.24072 12.7034 5.25104 12.6623 5.25094 12.6206V1.45157C5.25107 1.40603 5.23876 1.36132 5.21533 1.32226C5.1919 1.28321 5.15825 1.2513 5.11801 1.22997C5.07777 1.20865 5.03247 1.19872 4.987 1.20126C4.94153 1.2038 4.89762 1.21871 4.86001 1.24438L1.50532 3.54188Z" fill="#56C37C"/>
<path d="M6.63625 1.22844C6.59856 1.20394 6.55495 1.19005 6.51003 1.18825C6.46511 1.18645 6.42054 1.19679 6.381 1.21819C6.34146 1.23959 6.30843 1.27125 6.28537 1.30985C6.26232 1.34845 6.2501 1.39255 6.25 1.4375V12.6113C6.2499 12.6529 6.26023 12.694 6.28004 12.7307C6.29985 12.7673 6.32852 12.7985 6.36344 12.8213L9.36344 14.7719C9.40116 14.7965 9.44482 14.8104 9.48982 14.8123C9.53481 14.8141 9.57947 14.8037 9.61907 14.7823C9.65866 14.7609 9.69173 14.7291 9.71478 14.6904C9.73783 14.6517 9.75 14.6075 9.75 14.5625V3.39594C9.75012 3.35417 9.73977 3.31304 9.7199 3.2763C9.70003 3.23957 9.67127 3.20839 9.63625 3.18563L6.63625 1.22844Z" fill="#56C37C"/>
<path d="M14.5166 1.4522C14.3692 1.362 14.2008 1.312 14.028 1.30718C13.8553 1.30235 13.6844 1.34287 13.5322 1.4247C13.5187 1.43161 13.5057 1.43934 13.4931 1.44782L10.8634 3.16657C10.8285 3.18934 10.7999 3.22048 10.78 3.25716C10.7602 3.29384 10.7499 3.33489 10.75 3.37657V14.5472C10.7498 14.5928 10.7621 14.6376 10.7856 14.6767C10.809 14.7158 10.8427 14.7477 10.883 14.769C10.9233 14.7904 10.9687 14.8003 11.0142 14.7977C11.0597 14.7951 11.1036 14.7801 11.1413 14.7544L14.4872 12.4588C14.6429 12.3719 14.7726 12.2449 14.8628 12.0911C14.9529 11.9372 15.0003 11.7621 15 11.5838V2.33376C15.0021 2.15764 14.9586 1.98397 14.874 1.82954C14.7893 1.67511 14.6662 1.54514 14.5166 1.4522Z" fill="#56C37C"/>
</svg>
