<svg width="16" height="15" viewBox="0 0 16 15" fill="none" xmlns="http://www.w3.org/2000/svg">
<path d="M12.3127 14C12.2074 14.0004 12.1047 13.9676 12.0192 13.9062L8.00015 10.9925L3.98109 13.9062C3.89522 13.9685 3.79178 14.0019 3.68571 14.0015C3.57964 14.0011 3.47643 13.967 3.39103 13.9041C3.30562 13.8412 3.24242 13.7528 3.21058 13.6516C3.17874 13.5504 3.1799 13.4417 3.2139 13.3412L4.7814 8.69843L0.718901 5.91249C0.630904 5.85221 0.56449 5.76537 0.529361 5.66466C0.494232 5.56395 0.492229 5.45464 0.523646 5.35271C0.555063 5.25078 0.618253 5.16157 0.703982 5.09811C0.789712 5.03465 0.893489 5.00027 1.00015 4.99999H6.01203L7.52453 0.345301C7.55711 0.244808 7.62068 0.157218 7.70613 0.0950954C7.79158 0.0329731 7.89451 -0.000488281 8.00015 -0.000488281C8.10579 -0.000488281 8.20872 0.0329731 8.29417 0.0950954C8.37962 0.157218 8.44319 0.244808 8.47578 0.345301L9.98828 5.00155H15.0002C15.1069 5.0015 15.211 5.03564 15.2969 5.09898C15.3829 5.16232 15.4464 5.25152 15.478 5.35353C15.5096 5.45554 15.5077 5.56499 15.4726 5.66586C15.4375 5.76672 15.3711 5.8537 15.283 5.91405L11.2189 8.69843L12.7855 13.34C12.8108 13.4151 12.818 13.4952 12.8063 13.5737C12.7946 13.6521 12.7644 13.7267 12.7182 13.7912C12.672 13.8557 12.6112 13.9082 12.5406 13.9445C12.4701 13.9808 12.392 13.9998 12.3127 14Z" fill="#56C37C"/>
</svg>
