<svg width="10" height="10" viewBox="0 0 10 10" fill="none" xmlns="http://www.w3.org/2000/svg">
<path d="M6.06095 5.00002L9.0297 2.03127C9.1706 1.89062 9.24985 1.69976 9.25002 1.50068C9.2502 1.3016 9.17128 1.1106 9.03064 0.969707C8.88999 0.828811 8.69913 0.749557 8.50005 0.749381C8.30097 0.749205 8.10997 0.828122 7.96907 0.968769L5.00032 3.93752L2.03157 0.968769C1.89068 0.827873 1.69958 0.748718 1.50032 0.748718C1.30107 0.748718 1.10997 0.827873 0.969074 0.968769C0.828178 1.10967 0.749023 1.30076 0.749023 1.50002C0.749023 1.69928 0.828178 1.89037 0.969074 2.03127L3.93782 5.00002L0.969074 7.96877C0.828178 8.10967 0.749023 8.30076 0.749023 8.50002C0.749023 8.69928 0.828178 8.89037 0.969074 9.03127C1.10997 9.17216 1.30107 9.25132 1.50032 9.25132C1.69958 9.25132 1.89068 9.17216 2.03157 9.03127L5.00032 6.06252L7.96907 9.03127C8.10997 9.17216 8.30107 9.25132 8.50032 9.25132C8.69958 9.25132 8.89068 9.17216 9.03157 9.03127C9.17247 8.89037 9.25163 8.69928 9.25163 8.50002C9.25163 8.30076 9.17247 8.10967 9.03157 7.96877L6.06095 5.00002Z" fill="#56C37C"/>
</svg>
