<svg width="10" height="10" viewBox="0 0 10 10" fill="none" xmlns="http://www.w3.org/2000/svg">
<path d="M6.05997 5.00002L9.02872 2.03127C9.16962 1.89062 9.24887 1.69976 9.24905 1.50068C9.24922 1.3016 9.17031 1.1106 9.02966 0.969707C8.88901 0.828811 8.69815 0.749557 8.49907 0.749381C8.29999 0.749205 8.10899 0.828122 7.9681 0.968769L4.99935 3.93752L2.0306 0.968769C1.8897 0.827873 1.69861 0.748718 1.49935 0.748718C1.30009 0.748718 1.10899 0.827873 0.968098 0.968769C0.827202 1.10967 0.748047 1.30076 0.748047 1.50002C0.748047 1.69928 0.827202 1.89037 0.968098 2.03127L3.93685 5.00002L0.968098 7.96877C0.827202 8.10967 0.748047 8.30076 0.748047 8.50002C0.748047 8.69928 0.827202 8.89037 0.968098 9.03127C1.10899 9.17216 1.30009 9.25132 1.49935 9.25132C1.69861 9.25132 1.8897 9.17216 2.0306 9.03127L4.99935 6.06252L7.9681 9.03127C8.10899 9.17216 8.30009 9.25132 8.49935 9.25132C8.69861 9.25132 8.8897 9.17216 9.0306 9.03127C9.17149 8.89037 9.25065 8.69928 9.25065 8.50002C9.25065 8.30076 9.17149 8.10967 9.0306 7.96877L6.05997 5.00002Z" fill="#56C37C"/>
</svg>
