<svg width="16" height="16" viewBox="0 0 16 16" fill="none" xmlns="http://www.w3.org/2000/svg">
<path d="M10.4904 8.5H5.45911V7.5H10.4904V2.875C10.4904 2.77554 10.4508 2.68016 10.3805 2.60983C10.3102 2.53951 10.2148 2.5 10.1154 2.5H1.36536C1.2659 2.5 1.17052 2.53951 1.10019 2.60983C1.02987 2.68016 0.990356 2.77554 0.990356 2.875V13.125C0.990356 13.2245 1.02987 13.3198 1.10019 13.3902C1.17052 13.4605 1.2659 13.5 1.36536 13.5H10.1154C10.2148 13.5 10.3102 13.4605 10.3805 13.3902C10.4508 13.3198 10.4904 13.2245 10.4904 13.125V8.5Z" fill="#56C37C"/>
<path d="M13.0957 8.5L11.0957 10.5L11.8029 11.2072L15.0097 8L11.8029 4.79282L11.0957 5.5L13.0957 7.5H10.4904V8.5H13.0957Z" fill="#56C37C"/>
</svg>
