<svg width="180" height="63" viewBox="0 0 180 63" fill="none" xmlns="http://www.w3.org/2000/svg">
<path d="M8.12412 1.96187C8.55042 4.70927 8.71422 8.20905 8.55042 12.4514L8.33712 17.9669L8.12412 23.5238C8.07012 24.9365 8.06742 26.752 8.12412 28.9453L8.19522 31.6928V34.4921C8.19522 38.0681 8.40823 54.0664 8.40823 55.993V57.3041C8.40823 57.9788 8.52852 58.346 8.60922 58.4072C8.70282 58.4777 9.04962 58.6093 9.61512 58.5529L10.2424 58.4905H10.6567C12.0301 58.4905 13.8526 58.5574 16.1359 58.4905L18.976 58.4072H21.7573C21.7099 58.0328 21.7054 57.6452 21.6865 57.2417C21.661 56.7011 21.6613 56.2109 21.6865 55.7849C21.7528 54.6632 21.9502 54.0266 22.3135 53.7974C22.4581 53.7062 22.7161 53.6203 23.1064 53.6203C23.5204 53.6203 23.803 53.6981 23.935 53.8598C24.0715 54.0275 24.1972 54.3446 24.148 54.8066L24.0769 55.4726V56.732L24.148 57.3668C24.2089 57.9113 24.0769 58.2907 24.0769 58.4905V58.6778L24.0061 58.9172C23.9602 59.0732 23.9587 59.2295 23.8636 59.3438C23.8282 59.4272 23.7235 59.4737 23.5918 59.5313L23.4496 59.5936L23.3785 59.656C23.2012 59.7391 22.7443 59.8766 22.0297 59.8016L21.2368 59.7184H18.1123L15.343 59.8016H12.7396L10.1716 59.7184C8.23512 59.6557 6.45553 59.8022 4.83433 59.9267C3.52393 60.0275 2.36112 60.4156 1.29582 60.4156H1.16532V60.478L0.739622 60.5404C0.370622 60.5941 0.10002 60.5078 0.0178201 60.1763C-0.0628799 59.852 0.136018 59.5727 0.502918 59.3438C1.40202 59.1461 1.87752 59.0195 1.92282 58.9796C1.96842 58.9397 1.99422 58.5424 1.99422 57.7933V56.5445C1.99422 55.3895 2.04972 53.6591 1.92282 51.3623L1.78092 48.8024V32.9414C1.78092 31.9424 1.74282 30.7112 1.85172 29.2472L1.99422 27.3326L2.06503 25.3135C2.18023 22.0246 2.22073 19.4027 2.13613 17.4569C1.99633 14.2415 2.06232 9.99554 2.30142 4.70924C2.30862 4.54454 2.34762 4.32675 2.37282 4.03275L2.44363 3.21077C2.49373 2.62817 2.48743 2.28464 2.44363 2.21174C2.39503 2.13074 2.21982 2.12235 1.92282 2.14905C1.78302 2.16165 1.55892 2.21115 1.22472 2.27415C0.51912 2.40705 0.157919 2.43856 0.159719 2.41966C0.238619 1.58716 0.452222 1.11195 0.739622 0.962846C1.03032 0.811946 1.57572 0.655969 2.37282 0.775669L2.78683 0.838042H3.20113C3.48493 0.838042 3.69793 0.792166 3.86383 0.713266C3.95623 0.669466 4.25593 0.664366 4.76323 0.713266C5.09443 0.745366 5.59062 0.713266 6.25422 0.713266H7.11823L8.02933 0.650542C9.48403 0.550342 10.3273 0.641244 10.5265 0.900444C10.5748 0.963744 10.5856 1.15007 10.5856 1.42067C10.5856 1.70177 10.5655 1.86347 10.5265 1.89947C10.3423 2.06987 10.003 2.11064 9.52063 2.02424L8.82222 1.89947C8.59152 1.85807 8.36112 1.92017 8.12412 1.96187ZM4.13592 4.70924L4.00602 8.09116L3.86383 11.5358C3.74443 14.435 3.69402 16.6862 3.55602 18.2789C3.49512 18.9842 3.45673 19.8839 3.48493 20.9534L3.55602 23.638L3.66282 28.7581L3.79272 33.9403C3.89922 38.1919 3.83053 54.8918 3.72193 57.554C3.69163 58.3013 3.72823 58.688 3.86383 58.7402C4.23433 58.8824 4.46712 58.8442 4.56222 58.5529V57.8557L4.49113 57.4916L4.42003 57.0338C4.37023 56.7113 4.34892 56.4821 4.34892 56.3573C4.34892 56.2427 4.41493 56.0705 4.49113 55.8368C4.55353 55.646 4.55382 55.4491 4.56222 55.2958C4.59762 54.6613 4.54783 53.852 4.49113 52.8503L4.42003 51.6017L4.34892 50.3528C3.56772 36.6242 3.79932 11.6606 4.56222 1.96187C4.56522 1.92377 4.51453 1.89947 4.42003 1.89947C4.32523 2.19077 4.26042 2.63057 4.20702 3.21077L4.13592 3.98054V4.70924ZM6.39613 28.6435L6.53832 26.1358L6.77503 21.0781C6.95353 17.2621 6.73933 13.9498 6.39613 11.1403L6.25422 16.0832L6.11232 21.0781C6.00132 24.9979 6.11232 28.3315 6.25422 31.0786L6.39613 28.6435Z" fill="#F8D6B8"/>
<path d="M23.7931 17.9424C24.2458 17.9751 24.5422 18.0567 24.6898 18.1863C24.8011 18.2763 24.8656 18.4305 24.9025 18.6342C24.9763 18.8616 24.958 19.0485 24.8473 19.2033C24.8191 19.2684 24.7453 19.3254 24.6343 19.374L24.394 19.4226L24.2272 19.4715L24.0613 19.5201H23.8483C23.6632 19.5201 23.5612 19.5366 23.5249 19.5612C23.488 19.6257 23.4694 19.8615 23.4694 20.2524V21.2118L23.4142 22.6839L23.3587 24.2856C23.3212 25.6194 23.3023 26.709 23.3023 27.5709C23.2378 30.1731 23.2105 32.2389 23.2285 33.7674L23.6356 40.2L23.6824 40.9323L23.7931 41.721C23.8669 42.3387 23.9413 42.8598 24.0151 43.2741C24.1534 43.8924 24.3295 44.3799 24.5236 44.7462C24.7453 45.2421 24.9955 45.4941 25.2814 45.5106C25.3927 45.543 25.5688 45.4941 25.7995 45.3639L26.0677 45.2748L26.3449 45.1281L26.6137 45.0306L26.9095 44.8437C27.1219 44.7138 27.2701 44.6646 27.3439 44.6973C27.5197 44.7297 27.6679 44.925 27.7786 45.2748C27.8524 45.5916 27.8524 45.8358 27.7786 46.0065C27.7417 46.1691 27.5756 46.3158 27.2885 46.4376L26.965 46.6326L26.6137 46.7955C25.8733 47.1126 24.8098 47.2749 23.4142 47.2749C22.0444 47.3079 20.9995 47.1612 20.2969 46.8444C19.0024 46.2588 18.2716 44.1525 18.1333 40.5339L18.0778 38.9802L18.022 37.4112C17.9482 36.1422 17.9107 35.1423 17.9107 34.4346C17.9107 32.6373 17.9482 30.4014 18.022 27.7092L18.1333 24.3507L18.244 21.0657V20.3499C18.244 19.9836 18.2251 19.7889 18.1885 19.7559C18.1516 19.6908 17.9665 19.6749 17.6425 19.7073L17.236 19.7559C17.1247 19.7559 17.0416 19.7397 16.9672 19.7073C16.894 19.6422 16.8379 19.5042 16.801 19.2759C16.7647 19.0566 16.7827 18.8775 16.8565 18.7314C16.9309 18.6012 17.3563 18.4956 18.1333 18.3981L18.5674 18.3489L19.0207 18.3003C19.3168 18.2679 19.5109 18.2274 19.6216 18.1863C20.2135 18.1212 20.815 18.0726 21.4066 18.0402C21.7303 18.0075 22.2118 17.9751 22.8496 17.9424H23.7931ZM22.3039 21.4722V21.1629C22.3777 20.9352 22.4146 20.7159 22.4146 20.496C22.489 19.9026 22.4701 19.5933 22.3594 19.5612C22.2481 19.5366 22.1743 19.5528 22.1374 19.6098L22.0081 19.7073V19.7559C22.0081 20.5368 21.9892 22.1148 21.9526 24.4968C21.9154 26.8311 21.8974 28.4169 21.8974 29.2626C21.9337 28.7988 21.9712 28.2051 22.0081 27.4734L22.0636 25.4241C22.1005 23.6595 22.1563 22.3911 22.2481 21.6102L22.3039 21.4722ZM19.7329 21.9435C19.7698 23.0904 19.7698 23.8386 19.7329 24.1881L19.6216 26.4003L19.5109 28.596C19.4089 30.393 19.3537 31.8324 19.3537 32.9301V33.4101L19.2982 33.906C19.2613 34.3044 19.2613 34.5807 19.2982 34.7439C19.3357 34.776 19.3537 34.7598 19.3537 34.6947C19.5664 31.995 19.7239 29.6367 19.816 27.6201C19.8439 27.2211 19.8628 26.6601 19.8628 25.9527V24.9768L19.918 23.9928C19.9546 22.3095 20.0104 21.1143 20.0842 20.3985V20.301L20.1397 20.1384V19.854C20.1397 19.6257 20.0473 19.5612 19.8628 19.6587H19.816C19.7791 19.6587 19.7515 19.6749 19.7329 19.7073V21.9435ZM21.7855 43.5585C21.6103 42.1275 21.4255 39.9969 21.2497 37.1754L21.0832 33.906C21.0094 32.7024 20.917 31.6776 20.7871 30.8319L20.7313 32.499V34.1907C20.695 35.4672 20.7133 36.5898 20.7871 37.5738C20.8984 40.0863 21.2314 42.0789 21.7855 43.5585ZM19.8628 44.0061L19.918 44.4369C20.029 44.7216 20.1397 44.9739 20.2417 45.1773C20.5375 45.7302 20.9722 45.966 21.5734 45.8685C20.9077 45.1527 20.3899 44.022 20.029 42.4854C19.7791 41.4039 19.5478 40.0212 19.3537 38.3382C19.3537 40.3548 19.4737 42.111 19.7329 43.5996L19.8628 44.0061Z" fill="#F8D6B8"/>
<path d="M40.6456 17.9427V18.4467L40.7569 18.9672C40.7935 19.4634 40.7753 19.8699 40.7012 20.187C40.6643 20.244 40.9325 20.2848 41.4872 20.301L42.1625 20.2521H42.6527L43.2539 20.187L43.8179 20.1384C44.234 20.1384 44.5114 20.1789 44.6593 20.2521C44.7703 20.2848 44.8907 20.4312 45.0386 20.6832C45.1499 20.9679 45.1499 21.171 45.0386 21.2769C44.9276 21.3744 44.6132 21.4068 44.0861 21.3744H42.3841L41.8112 21.4233H41.2192L40.9235 21.4719H40.7569C40.7197 21.5046 40.7012 21.6915 40.7012 22.0413L40.7569 22.4967V22.83C40.5439 27.4167 40.2851 31.2387 39.9986 34.2882C39.7856 36.3375 39.6655 38.2731 39.6469 40.1028C39.6469 42.6399 39.9428 44.3964 40.544 45.3642L40.7012 45.6081L41.0066 45.8685C41.2559 46.023 41.5244 46.0881 41.8112 46.0554C41.996 46.023 42.1807 45.9336 42.3841 45.7707C42.523 45.6162 42.6341 45.4617 42.7079 45.3153C42.782 45.2259 42.8377 45.0309 42.8743 44.7462L42.9209 44.3883L42.9761 44.0061C43.0874 43.4205 43.2631 43.0953 43.4942 43.0302C43.9474 42.9327 44.2339 43.0629 44.3632 43.4124C44.4652 43.7298 44.4374 44.0712 44.2526 44.4372C43.6979 45.6732 42.8467 46.5108 41.7094 46.9419C41.071 47.1615 40.2757 47.2428 39.3232 47.1777C38.3983 47.0802 37.6955 46.9257 37.2053 46.698C35.5499 45.8928 34.6622 44.3721 34.5515 42.1521C34.4774 40.2003 34.5514 37.4679 34.7731 33.9549L34.9859 29.7585C35.06 28.173 35.0968 26.7579 35.0968 25.5219V23.4237L35.1524 22.8789C35.1893 22.4154 35.1709 22.155 35.0968 22.0899C35.0599 22.0575 34.9304 22.0737 34.7177 22.1388L34.4402 22.3014C34.3385 22.3341 34.2644 22.3503 34.2275 22.3503L33.9316 22.4478L33.5525 22.5942L32.8219 22.83C32.1466 23.0172 31.675 23.0658 31.3792 22.9683C30.9352 22.7814 30.7687 22.4721 30.898 22.0413C30.9352 21.8541 31.3607 21.6264 32.1653 21.3744C32.4242 21.2769 32.7386 21.1956 33.1178 21.1143C33.4043 21.0165 33.6632 20.9514 33.8762 20.919H34.2275L34.6066 20.8782C34.8934 20.8782 35.0599 20.8458 35.0968 20.7807C35.1337 20.7156 35.1524 20.5206 35.1524 20.187L35.0968 19.8048V19.1625L35.1524 18.7314C35.1524 18.4143 35.1337 18.2109 35.0968 18.1377C35.0599 18.0726 34.8749 18.0564 34.5515 18.0891H34.1719C34.0333 18.0564 33.913 18.0078 33.8206 17.9427L33.7652 17.8533L33.6631 17.7069C33.6262 17.5767 33.6262 17.4711 33.6631 17.3733C33.7279 17.2434 34.1168 17.1456 34.8287 17.0643C35.0045 17.0319 35.2817 17.0157 35.6612 17.0157L36.0401 16.9668H36.3176C37.7231 16.9017 38.7589 16.8447 39.4342 16.7796C39.6469 16.7472 39.9059 16.731 40.211 16.731C40.5812 16.731 40.8953 16.7634 41.1635 16.8285C41.9036 16.983 42.1718 17.2596 41.9777 17.658C41.9405 17.7882 41.774 17.8614 41.4872 17.8938L41.1082 17.9427H40.6456ZM38.158 20.496C38.3707 20.496 38.6762 20.4636 39.0551 20.3985C39.0179 20.0814 39.0179 19.683 39.0551 19.203V17.9913H38.1026C38.0654 18.3087 38.0654 18.7152 38.1026 19.203L38.158 19.8537V20.496ZM36.2624 18.0402H36.0959V18.9672C36.0959 19.3983 36.1511 19.7073 36.2624 19.9026V18.0402ZM37.2607 20.5857C37.2979 20.3334 37.3166 19.9107 37.3166 19.3251C37.3166 18.7395 37.3348 18.3087 37.3717 18.0402H37.0484C37.0853 18.2028 37.1225 18.3981 37.1501 18.6339V19.3251C37.1501 19.9431 37.1869 20.3661 37.2607 20.5857ZM38.2136 21.5697C38.1395 21.6264 38.1208 21.9843 38.158 22.635L38.2136 23.0172V23.4237C38.2508 23.7084 38.2691 23.9034 38.2691 23.9928C38.2691 24.3588 38.2874 24.798 38.315 25.3023V26.4975C38.315 27.4653 38.2967 28.7829 38.2691 30.45L38.2136 32.4504L38.158 34.3857C38.1208 37.5411 38.2136 40.0377 38.4263 41.8674C38.3891 39.3546 38.4631 35.9391 38.6479 31.6209L38.8886 26.5953C38.9627 24.7005 38.9995 23.0253 38.9995 21.5697C38.9995 21.594 38.8792 21.594 38.6479 21.5697L38.3707 21.5208C38.2966 21.5208 38.2508 21.537 38.2136 21.5697ZM36.8818 37.4109C36.9187 36.3132 36.9559 35.0202 36.9928 33.5238L37.2053 29.6691C37.3166 26.5059 37.3535 23.871 37.3166 21.7566C37.3166 21.7242 37.2794 21.7077 37.2053 21.7077C37.2425 22.8543 37.2242 24.1881 37.1501 25.7088L36.9928 27.6687L36.8818 29.6205C36.6688 32.8407 36.6688 35.4429 36.8818 37.4109ZM38.315 46.1043C37.529 45.2829 36.9188 44.0874 36.5024 42.5343C36.179 41.3226 35.957 39.8832 35.8277 38.1999V40.794C35.8277 41.6967 35.8828 42.4611 35.9845 43.0791C36.3175 44.6322 37.0943 45.6408 38.315 46.1043Z" fill="#F8D6B8"/>
<path d="M55.3184 17.9427V18.4467L55.4297 18.9672C55.4666 19.4634 55.4479 19.8699 55.3741 20.187C55.3372 20.244 55.6054 20.2848 56.1601 20.301L56.8351 20.2521H57.3253L57.9265 20.187L58.4905 20.1384C58.9069 20.1384 59.1842 20.1789 59.3324 20.2521C59.4431 20.2848 59.5637 20.4312 59.7113 20.6832C59.8226 20.9679 59.8226 21.171 59.7113 21.2769C59.6006 21.3744 59.2859 21.4068 58.7588 21.3744H57.0568L56.4839 21.4233H55.8919L55.5962 21.4719H55.4297C55.3925 21.5046 55.3741 21.6915 55.3741 22.0413L55.4297 22.4967V22.83C55.2167 27.4167 54.9578 31.2387 54.6713 34.2882C54.4583 36.3375 54.3383 38.2731 54.3197 40.1028C54.3197 42.6399 54.6154 44.3964 55.2166 45.3642L55.3741 45.6081L55.6792 45.8685C55.9288 46.023 56.1974 46.0881 56.4839 46.0554C56.6687 46.023 56.8537 45.9336 57.0568 45.7707C57.1957 45.6162 57.3068 45.4617 57.3809 45.3153C57.455 45.2259 57.5105 45.0309 57.5474 44.7462L57.5936 44.3883L57.649 44.0061C57.76 43.4205 57.9358 43.0953 58.1668 43.0302C58.6201 42.9327 58.907 43.0629 59.0363 43.4124C59.1383 43.7298 59.11 44.0712 58.9252 44.4372C58.3705 45.6732 57.5198 46.5108 56.3822 46.9419C55.7438 47.1615 54.9485 47.2428 53.996 47.1777C53.0711 47.0802 52.3684 46.9257 51.8779 46.698C50.2225 45.8928 49.3348 44.3721 49.2241 42.1521C49.15 40.2003 49.2242 37.4679 49.4459 33.9549L49.6589 29.7585C49.7327 28.173 49.7695 26.7579 49.7695 25.5219V23.4237L49.8253 22.8789C49.8619 22.4154 49.8436 22.155 49.7695 22.0899C49.7326 22.0575 49.603 22.0737 49.3906 22.1388L49.1128 22.3014C49.0111 22.3341 48.937 22.3503 48.9004 22.3503L48.6047 22.4478L48.2251 22.5942L47.4947 22.83C46.8197 23.0172 46.3477 23.0658 46.0519 22.9683C45.6079 22.7814 45.4414 22.4721 45.5707 22.0413C45.6079 21.8541 46.0333 21.6264 46.8379 21.3744C47.0968 21.2769 47.4115 21.1956 47.7904 21.1143C48.0769 21.0165 48.3362 20.9514 48.5489 20.919H48.9004L49.2793 20.8782C49.5661 20.8782 49.7326 20.8458 49.7695 20.7807C49.8064 20.7156 49.8253 20.5206 49.8253 20.187L49.7695 19.8048V19.1625L49.8253 18.7314C49.8253 18.4143 49.8064 18.2109 49.7695 18.1377C49.7326 18.0726 49.5475 18.0564 49.2241 18.0891H48.8447C48.7061 18.0564 48.5858 18.0078 48.4934 17.9427L48.4381 17.8533L48.3362 17.7069C48.2993 17.5767 48.2993 17.4711 48.3362 17.3733C48.401 17.2434 48.7895 17.1456 49.5014 17.0643C49.6772 17.0319 49.9547 17.0157 50.3339 17.0157L50.713 16.9668H50.9902C52.396 16.9017 53.4316 16.8447 54.1069 16.7796C54.3196 16.7472 54.5789 16.731 54.8837 16.731C55.2539 16.731 55.5683 16.7634 55.8362 16.8285C56.5763 16.983 56.8444 17.2596 56.6503 17.658C56.6131 17.7882 56.4466 17.8614 56.1601 17.8938L55.781 17.9427H55.3184ZM52.8311 20.496C53.0435 20.496 53.3488 20.4636 53.7277 20.3985C53.6905 20.0814 53.6905 19.683 53.7277 19.203V17.9913H52.7752C52.738 18.3087 52.738 18.7152 52.7752 19.203L52.8311 19.8537V20.496ZM50.9351 18.0402H50.7686V18.9672C50.7686 19.3983 50.8238 19.7073 50.9351 19.9026V18.0402ZM51.9338 20.5857C51.971 20.3334 51.9892 19.9107 51.9892 19.3251C51.9892 18.7395 52.0075 18.3087 52.0444 18.0402H51.7211C51.758 18.2028 51.7951 18.3981 51.8227 18.6339V19.3251C51.8227 19.9431 51.8597 20.3661 51.9338 20.5857ZM52.8863 21.5697C52.8122 21.6264 52.7939 21.9843 52.8311 22.635L52.8863 23.0172V23.4237C52.9235 23.7084 52.9417 23.9034 52.9417 23.9928C52.9417 24.3588 52.9603 24.798 52.9879 25.3023V26.4975C52.9879 27.4653 52.9693 28.7829 52.9417 30.45L52.8863 32.4504L52.8311 34.3857C52.7939 37.5411 52.8862 40.0377 53.0989 41.8674C53.062 39.3546 53.1359 35.9391 53.321 31.6209L53.5613 26.5953C53.6354 24.7005 53.6723 23.0253 53.6723 21.5697C53.6723 21.594 53.5523 21.594 53.321 21.5697L53.0435 21.5208C52.9694 21.5208 52.9235 21.537 52.8863 21.5697ZM51.5545 37.4109C51.5914 36.3132 51.6286 35.0202 51.6655 33.5238L51.8779 29.6691C51.9892 26.5059 52.0261 23.871 51.9892 21.7566C51.9892 21.7242 51.952 21.7077 51.8779 21.7077C51.9151 22.8543 51.8968 24.1881 51.8227 25.7088L51.6655 27.6687L51.5545 29.6205C51.3418 32.8407 51.3418 35.4429 51.5545 37.4109ZM52.9879 46.1043C52.2019 45.2829 51.5914 44.0874 51.1753 42.5343C50.8519 41.3226 50.6296 39.8832 50.5003 38.1999V40.794C50.5003 41.6967 50.5556 42.4611 50.6573 43.0791C50.9903 44.6322 51.7672 45.6408 52.9879 46.1043Z" fill="#F8D6B8"/>
<path d="M70.3729 14.2506C70.336 14.2506 70.336 14.2344 70.3729 14.2017H70.4284C70.6042 14.2017 70.8166 14.3319 71.0479 14.5839C71.2978 14.8686 71.3347 15.1209 71.1589 15.324C71.0479 15.4542 70.789 15.4704 70.3729 15.3729L69.9382 15.2754C69.79 15.2427 69.6793 15.2589 69.5869 15.324C69.5128 15.3891 69.4942 15.5436 69.5311 15.804L69.5869 16.1373L69.6424 16.4463C69.6793 16.9017 69.6607 17.5116 69.5869 18.2517L69.4759 19.203L69.3646 20.2521C69.226 21.846 69.0781 23.6922 68.9392 25.8063L68.7175 28.5957C68.6434 29.8317 68.5786 30.8076 68.5324 31.5234C68.3104 34.1907 68.218 36.435 68.2549 38.2404C68.2921 40.9077 68.5879 43.0629 69.1522 44.6973L69.3187 45.1284L69.4759 45.5595C69.5869 45.8766 69.7069 46.0554 69.8272 46.1043C70.1506 46.2018 70.576 46.0311 71.1034 45.6081C71.2792 45.4782 71.4826 45.3153 71.6953 45.1284L71.8618 44.8926L71.9728 44.7951L72.0562 44.7462L72.2131 44.4861L72.3796 44.2014C72.4813 44.0061 72.6109 43.9005 72.7591 43.8678C72.9346 43.8678 73.1104 43.9737 73.2676 44.2014L73.3786 44.4861C73.4155 44.5836 73.4338 44.6649 73.4338 44.7462C73.3969 44.9415 73.2769 45.1446 73.0825 45.3642L72.8143 45.6732L72.7033 45.8196L72.5926 45.9171C71.3254 47.2185 69.6328 47.5599 67.4968 46.9419C67.0432 46.8117 66.5812 46.6329 66.0907 46.389C65.6377 46.1367 65.314 45.9171 65.1199 45.7221C64.5559 45.2667 64.1581 44.6406 63.9268 43.8678C63.5662 42.7539 63.3073 40.5093 63.1687 37.1265C63.0946 36.126 63.076 34.8819 63.1132 33.4101L63.1687 31.6209V29.9049C63.2332 23.6595 63.3256 19.4553 63.4369 17.2758V15.4218C63.3997 15.3891 63.3073 15.3729 63.1687 15.3729L62.9467 15.324H62.7616C62.401 15.2589 62.2714 15.0639 62.3824 14.7303C62.4472 14.5353 62.993 14.4132 64.0009 14.3481C64.297 14.3157 64.6852 14.2995 65.1661 14.2995L65.656 14.2506H66.0355C68.1163 14.1855 69.559 14.1855 70.3729 14.2506ZM64.87 17.0157L64.9259 16.8693V16.4463C64.9625 16.3488 64.9813 16.1535 64.9813 15.8445V15.5598L65.0365 15.2754H64.7593V15.5598L64.8148 15.8934C64.8148 16.1778 64.8331 16.3974 64.87 16.5357V17.0157ZM66.3313 16.1373L66.3868 15.804C66.4609 15.4866 66.4795 15.3078 66.4423 15.2754C66.3685 15.2103 66.2572 15.2103 66.0907 15.2754L65.9242 15.3729L65.8784 15.4218V17.4222C65.8415 18.3249 65.8415 18.9753 65.8784 19.374C65.9432 19.008 66.0172 18.5199 66.0907 17.8938L66.3313 16.3488V16.1373ZM66.6088 27.7092C66.3313 29.6691 66.202 31.8078 66.202 34.1418V36.4839C66.202 37.3866 66.2482 38.1918 66.3313 38.883C66.4054 40.6152 66.646 41.9976 67.0342 43.0302C66.7474 40.0134 66.6919 36.5001 66.8773 32.4993C66.9508 31.0434 67.0714 29.2788 67.2562 27.2133L67.4968 24.6354L67.7185 22.0899L67.8757 20.3985L67.9867 18.6825C68.098 17.349 68.1346 16.2105 68.098 15.2754H67.9867C67.9867 16.9587 67.8202 19.0404 67.4968 21.5208L66.988 24.5946C66.8032 25.8309 66.6736 26.8716 66.6088 27.7092ZM64.4911 31.2144C64.4911 31.2468 64.5094 31.2306 64.5466 31.1655C64.6576 30.3279 64.7128 29.2869 64.7128 28.0428L64.6576 26.4V24.7818L64.7128 23.1636L64.7593 21.5697C64.8331 20.2602 64.8517 19.2357 64.8148 18.4956C64.528 22.0005 64.417 26.2455 64.4911 31.2144ZM66.3868 44.4861C65.7766 43.071 65.3047 41.1435 64.9813 38.6958C65.1199 41.4609 65.5918 43.3881 66.3868 44.4861Z" fill="#F8D6B8"/>
<path d="M86.4394 17.4712C88.6591 17.227 90.6199 17.7964 92.3119 19.1626C92.9872 19.7155 93.6347 20.5939 94.2635 21.8056C95.4566 24.2533 95.9743 26.6116 95.8078 28.8805L95.7065 29.8075L95.54 30.7833L95.4287 31.1656L95.3269 31.6209C95.1787 31.9869 95.0032 32.2066 94.8091 32.2879C94.624 32.3854 94.1894 32.3854 93.4775 32.2879L92.645 32.1901C92.312 32.1253 92.0809 32.1007 91.933 32.1007C89.5006 31.9381 86.902 32.0764 84.1645 32.4994L83.7851 32.548L83.3786 32.5969C83.0456 32.6293 82.8515 32.6782 82.7774 32.7433C82.7033 32.8327 82.6849 33.1417 82.7218 33.6703L82.7774 34.2394L82.8326 34.5486V34.7926C82.9439 36.7444 83.2213 38.6553 83.6743 40.5336C84.0904 42.3879 84.8305 43.9248 85.894 45.1284C86.1436 45.4131 86.3654 45.6328 86.5412 45.7708C86.7632 45.9904 86.9665 46.1206 87.1702 46.153C87.4567 46.1857 87.938 45.9985 88.6034 45.6082C88.8533 45.4783 89.1215 45.3153 89.3897 45.1284C89.5745 44.9982 89.7317 44.8927 89.8799 44.7952C91.2113 43.7461 92.3954 42.274 93.431 40.3876L93.5885 40.0539L93.755 39.7207C93.9305 39.4036 94.0876 39.1594 94.2079 38.9806C94.5778 38.4601 94.9477 38.2567 95.3269 38.3869C95.5765 38.452 95.6875 38.6307 95.6506 38.9316C95.6506 39.1593 95.5766 39.436 95.4287 39.7693C94.9106 41.038 94.1893 42.3148 93.2644 43.5997C92.0713 45.3319 90.5365 46.5435 88.6591 47.2266C87.2812 47.7144 85.7641 47.7634 84.109 47.3647C82.6291 46.999 81.4826 46.4377 80.6687 45.6733C77.7002 42.8839 76.5532 38.403 77.2282 32.2389C77.5891 28.7583 78.0239 26.3515 78.551 25.0177C79.3646 22.879 80.5112 21.0897 81.9914 19.6584C83.3321 18.3573 84.8116 17.6257 86.4394 17.4712ZM89.7689 30.4501L90.148 30.4986H90.6106C91.3135 30.5313 91.7017 30.5149 91.7755 30.4501C91.8124 30.4174 91.8314 30.2386 91.8314 29.905C91.8683 29.5879 91.8865 29.3277 91.8865 29.1162C92.0254 25.9284 91.9882 23.6191 91.7755 22.1878C91.5166 20.4556 91.0172 19.4308 90.2588 19.1137C89.8982 18.9511 89.362 18.8128 88.6591 18.6826C87.8821 18.5851 87.3826 18.6013 87.1702 18.7315C84.0256 20.5288 82.546 24.6844 82.7218 31.2145L84.2663 30.9786L85.894 30.7345C87.1237 30.58 88.2521 30.4825 89.2787 30.4501H89.7689ZM93.3757 25.3024C93.3757 25.1479 93.3944 24.9121 93.431 24.5947L93.4775 23.8059C93.5144 23.1879 93.4309 22.765 93.2092 22.5454L93.2644 23.9524C93.3016 24.5053 93.3385 24.9607 93.3757 25.3024ZM80.3356 24.3507C80.308 24.3834 80.2894 24.4158 80.2894 24.4482C79.0225 26.9286 78.5603 30.4663 78.9023 35.0773C79.0505 37.216 79.2997 38.9887 79.6606 40.3876C80.1139 42.0058 80.5577 43.1362 80.9924 43.7704L81.1772 44.0061L81.3437 44.2501C81.4826 44.4046 81.6118 44.4697 81.7231 44.4373C80.2804 42.2008 79.411 39.013 79.1242 34.882C78.865 30.8158 79.2721 27.3271 80.3356 24.3997V24.3507ZM80.9924 26.7336C81.0107 26.7009 81.0755 26.6848 81.1772 26.6848L81.2881 26.7336L81.3994 26.6848C81.5011 26.5954 81.5749 26.2375 81.6118 25.6195V24.9282C81.6118 24.7329 81.6304 24.6274 81.6676 24.5947L81.3437 25.66L80.9924 26.7336ZM93.431 30.4501C93.7364 30.4336 93.9581 30.2872 94.1063 30.0028L94.2079 29.5716L94.3187 29.1652C94.43 28.7665 94.5041 28.474 94.541 28.2868C94.5779 27.9208 94.5779 27.6361 94.541 27.4249L94.3187 28.2379L94.1063 29.0269C93.9215 29.6125 93.6992 30.0841 93.431 30.4501ZM82.4537 43.5997C81.8894 41.0137 81.316 38.6797 80.7241 36.598C81.0478 39.859 81.6212 42.1927 82.4537 43.5997ZM85.2188 46.3402C85.0706 46.1857 84.8951 45.9904 84.6734 45.7708L84.109 45.2259C84.0721 45.8115 84.4421 46.1857 85.2188 46.3402Z" fill="#F8D6B8"/>
<path d="M122.214 2.35729C120.415 2.37829 118.309 2.34708 115.907 2.27418C114.19 2.23248 112.049 2.1284 109.457 1.9619L108.936 1.8995L108.522 1.84759C108.202 1.80589 108.013 1.80589 107.966 1.84759C107.871 1.87879 107.823 2.1596 107.823 2.6696L107.895 3.33557V3.9182C107.895 7.0817 107.942 11.8688 108.037 18.2789C108.616 18.1958 109.386 18.1748 110.356 18.2165L111.575 18.2789H112.924L113.268 18.2165L113.717 18.1541C114.048 18.1541 114.226 18.1334 114.273 18.0917C114.368 18.0083 114.439 17.8628 114.486 17.6339V17.0303C114.486 16.4372 114.605 16.0832 114.829 15.9584C115.019 15.875 115.303 15.875 115.694 15.9584C116.072 16.0832 116.273 16.2185 116.321 16.385C116.368 16.4267 116.344 16.6037 116.25 16.9055L116.179 17.3321L116.108 17.8211C116.108 18.2894 116.072 18.8096 115.977 19.403C115.977 19.5695 116.001 19.8503 116.049 20.2562V21.2033C116.096 22.0358 116.025 22.5353 115.836 22.6913C115.741 22.7744 115.48 22.8161 115.043 22.8161C114.628 22.8161 114.344 22.733 114.202 22.5767C114.025 22.3271 114.001 21.8276 114.132 21.0782L114.202 20.714V20.3186C114.25 20.0378 114.226 19.8296 114.132 19.7048C113.007 19.7879 111.492 19.7672 109.599 19.6421L109.244 19.5902L108.723 19.5278C108.356 19.5278 108.155 19.5485 108.108 19.5902C107.966 19.6319 107.895 20.0066 107.895 20.714V21.4424C107.942 21.6923 107.966 21.8588 107.966 21.9629C108.06 24.8246 108.084 28.7582 108.037 33.7637L107.966 36.8126V39.7991C107.918 42.1823 107.895 44.0969 107.895 45.5642H108.38L108.794 45.4394C109.125 45.3977 109.409 45.4394 109.67 45.5642C109.8 45.6476 109.918 45.8246 110.013 46.1054C110.06 46.3967 110.06 46.6049 110.013 46.7507C109.871 46.9172 109.256 46.9901 108.179 46.9901H106.818C106.238 46.9484 105.859 46.9379 105.682 46.9379C105.149 46.8962 104.392 46.8755 103.421 46.8755H102.143C101.61 46.8755 101.279 46.8548 101.137 46.8131C100.995 46.7297 100.877 46.553 100.794 46.2929C100.747 46.0847 100.77 45.9494 100.853 45.866C100.901 45.7829 101.137 45.6995 101.551 45.6269C101.599 45.5852 101.753 45.5642 102.001 45.5642L102.415 45.5018C102.51 45.4187 102.557 45.0233 102.557 44.3156L102.486 43.4309V42.7547C102.486 41.7557 102.439 40.382 102.344 38.6129C102.261 36.8231 102.214 35.5118 102.214 34.6793V23.7632C102.214 19.5173 102.297 15.875 102.486 12.8468C102.534 11.3069 102.557 9.9956 102.557 8.9132C102.605 7.3316 102.605 5.94738 102.557 4.77168V4.03278L102.628 3.2108C102.676 2.5448 102.652 2.14908 102.557 2.02427C102.51 1.98257 102.392 1.9412 102.214 1.8995L101.764 1.72249C101.338 1.59769 101.208 1.39999 101.338 1.10869C101.386 0.952389 101.776 0.817098 102.486 0.713298H104.119C105.966 0.588198 108.676 0.609201 112.226 0.775701L114.273 0.900476L116.392 0.962879C118.013 0.994079 119.481 0.994079 120.794 0.962879H121.386L121.942 0.900476H122.735L122.806 0.838074L122.948 0.713298L123.078 0.588201C123.267 0.546801 123.48 0.567474 123.705 0.650574C123.99 0.775674 124.155 0.952391 124.226 1.17109C124.321 1.42069 124.321 1.74348 124.226 2.14908L124.013 2.78388L123.847 3.39798C123.847 3.56448 123.871 3.85579 123.918 4.28239V5.59369L124.013 5.83307L124.084 6.4157C124.179 6.884 124.155 7.16508 124.013 7.26918C123.978 7.31088 123.776 7.33158 123.433 7.33158L123.078 7.26918L122.806 7.20678C122.617 7.05048 122.475 6.59267 122.356 5.83307L122.285 4.9172L122.214 4.52178V3.2108C122.262 2.8466 122.262 2.56549 122.214 2.35729ZM105.054 4.34509C105.054 4.21999 105.031 4.02229 104.983 3.73099V2.90898C104.936 2.24298 104.865 1.87879 104.782 1.84759C104.593 1.76419 104.439 1.76419 104.321 1.84759L104.261 1.9619V2.08668C104.214 2.72148 104.214 3.53328 104.261 4.52178L104.321 5.83307L104.392 7.20678C104.439 9.23598 104.463 11.8583 104.463 15.074L104.392 19.0073V22.6913L104.534 20.5268L104.676 18.2789C104.806 16.4891 104.912 14.9594 104.983 13.7003C105.173 10.1621 105.197 7.05049 105.054 4.34509ZM105.397 22.3271C104.735 28.3211 104.735 33.212 105.397 36.9896V22.3271ZM104.983 41.5682C104.936 40.9334 104.865 40.4756 104.782 40.1948V40.9856L104.676 41.7452C104.676 42.3383 104.77 42.8171 104.983 43.1813V41.5682Z" fill="#F5A8A5"/>
<path d="M129.867 17.4712C132.086 17.227 134.047 17.7964 135.739 19.1626C136.414 19.7155 137.062 20.5939 137.691 21.8056C138.884 24.2533 139.402 26.6116 139.235 28.8805L139.134 29.8075L138.967 30.7833L138.856 31.1656L138.754 31.6209C138.606 31.9869 138.43 32.2066 138.236 32.2879C138.051 32.3854 137.617 32.3854 136.905 32.2879L136.072 32.1901C135.739 32.1253 135.508 32.1007 135.36 32.1007C132.928 31.9381 130.329 32.0764 127.592 32.4994L127.212 32.548L126.806 32.5969C126.473 32.6293 126.279 32.6782 126.204 32.7433C126.13 32.8327 126.112 33.1417 126.149 33.6703L126.204 34.2394L126.26 34.5486V34.7926C126.371 36.7444 126.648 38.6553 127.101 40.5336C127.518 42.3879 128.258 43.9248 129.321 45.1284C129.571 45.4131 129.792 45.6328 129.968 45.7708C130.19 45.9904 130.394 46.1206 130.597 46.153C130.884 46.1857 131.365 45.9985 132.031 45.6082C132.28 45.4783 132.549 45.3153 132.817 45.1284C133.002 44.9982 133.159 44.8927 133.307 44.7952C134.639 43.7461 135.822 42.274 136.858 40.3876L137.016 40.0539L137.182 39.7207C137.358 39.4036 137.515 39.1594 137.635 38.9806C138.005 38.4601 138.375 38.2567 138.754 38.3869C139.004 38.452 139.115 38.6307 139.078 38.9316C139.078 39.1593 139.004 39.436 138.856 39.7693C138.338 41.038 137.617 42.3148 136.692 43.5997C135.499 45.3319 133.964 46.5435 132.086 47.2266C130.708 47.7144 129.192 47.7634 127.536 47.3647C126.057 46.999 124.91 46.4377 124.096 45.6733C121.127 42.8839 119.981 38.403 120.655 32.2389C121.016 28.7583 121.451 26.3515 121.978 25.0177C122.792 22.879 123.939 21.0897 125.418 19.6584C126.759 18.3573 128.239 17.6257 129.867 17.4712ZM133.196 30.4501L133.575 30.4986H134.038C134.741 30.5313 135.129 30.5149 135.203 30.4501C135.24 30.4174 135.258 30.2386 135.258 29.905C135.295 29.5879 135.314 29.3277 135.314 29.1162C135.453 25.9284 135.415 23.6191 135.203 22.1878C134.944 20.4556 134.445 19.4308 133.686 19.1137C133.325 18.9511 132.789 18.8128 132.086 18.6826C131.31 18.5851 130.81 18.6013 130.597 18.7315C127.453 20.5288 125.973 24.6844 126.149 31.2145L127.693 30.9786L129.321 30.7345C130.551 30.58 131.679 30.4825 132.706 30.4501H133.196ZM136.803 25.3024C136.803 25.1479 136.821 24.9121 136.858 24.5947L136.905 23.8059C136.941 23.1879 136.858 22.765 136.636 22.5454L136.692 23.9524C136.729 24.5053 136.766 24.9607 136.803 25.3024ZM123.763 24.3507C123.735 24.3834 123.717 24.4158 123.717 24.4482C122.45 26.9286 121.987 30.4663 122.329 35.0773C122.478 37.216 122.727 38.9887 123.088 40.3876C123.541 42.0058 123.985 43.1362 124.419 43.7704L124.605 44.0061L124.771 44.2501C124.91 44.4046 125.039 44.4697 125.15 44.4373C123.708 42.2008 122.838 39.013 122.551 34.882C122.292 30.8158 122.699 27.3271 123.763 24.3997V24.3507ZM124.419 26.7336C124.438 26.7009 124.503 26.6848 124.605 26.6848L124.715 26.7336L124.827 26.6848C124.928 26.5954 125.002 26.2375 125.039 25.6195V24.9282C125.039 24.7329 125.058 24.6274 125.095 24.5947L124.771 25.66L124.419 26.7336ZM136.858 30.4501C137.163 30.4336 137.385 30.2872 137.533 30.0028L137.635 29.5716L137.746 29.1652C137.857 28.7665 137.931 28.474 137.968 28.2868C138.005 27.9208 138.005 27.6361 137.968 27.4249L137.746 28.2379L137.533 29.0269C137.349 29.6125 137.126 30.0841 136.858 30.4501ZM125.881 43.5997C125.316 41.0137 124.743 38.6797 124.151 36.598C124.475 39.859 125.048 42.1927 125.881 43.5997ZM128.646 46.3402C128.498 46.1857 128.322 45.9904 128.1 45.7708L127.536 45.2259C127.499 45.8115 127.869 46.1857 128.646 46.3402Z" fill="#F5A8A5"/>
<path d="M159.935 19.8048C159.972 19.5204 160.065 19.3413 160.203 19.2762C160.62 19.1217 160.888 19.2438 160.989 19.6584C161.064 19.821 161.1 20.0325 161.1 20.301V20.919C161.137 21.2118 161.137 21.5532 161.1 21.9435V22.7325L161.156 23.0658L161.211 23.4237C161.248 23.6757 161.211 23.8548 161.1 23.9523L160.989 23.9928L160.694 24.1393C160.444 24.2044 160.259 24.2205 160.148 24.1881C160.009 24.123 159.935 23.9685 159.935 23.7084L159.879 23.4237L159.824 23.1147C159.648 22.3665 159.195 21.6672 158.474 21.0165C158.113 20.6505 157.762 20.3415 157.42 20.0895C156.966 19.7235 156.522 19.4553 156.088 19.2762C154.95 18.7233 153.748 18.585 152.481 18.8778C151.418 19.1298 150.715 19.5039 150.372 19.992C149.706 20.9028 149.448 22.1226 149.614 23.6595C149.725 25.0584 150.095 26.3187 150.724 27.4248C151.427 28.6038 152.37 29.5716 153.545 30.336L154.275 30.6939C154.599 30.8484 154.83 30.9786 154.978 31.0761C156.985 32.247 158.446 33.4344 159.371 34.6461C160.703 36.3783 161.267 38.3625 161.045 40.5987C160.869 42.7782 160.009 44.3965 158.474 45.4618C156.504 46.8607 153.961 47.4786 150.835 47.3241C149.096 47.2266 147.617 46.5435 146.387 45.2748C145.36 44.1606 144.657 42.8434 144.278 41.3146C144.204 41.347 144.149 41.4528 144.111 41.6235L144 41.8674L143.843 42.1032C143.732 42.2007 143.575 42.2739 143.381 42.339C143.168 42.3717 143.002 42.3391 142.891 42.2497C142.817 42.1846 142.817 41.9896 142.891 41.6722L143.002 41.2656C143.039 41.1111 143.057 41.0136 143.057 40.9809L143.214 40.2411L143.381 39.6228C143.492 39.1026 143.584 38.6715 143.677 38.3382C143.677 38.2731 143.696 38.151 143.732 37.9557L143.788 37.4109C143.825 36.9801 143.899 36.7443 144 36.6954C144.186 36.5979 144.417 36.549 144.713 36.549C144.962 36.5814 145.101 36.6303 145.11 36.6954C145.221 36.8256 145.24 36.9963 145.166 37.2159L145.11 37.5003C145.083 37.6305 145.064 37.7199 145.064 37.7688C145.129 39.387 145.517 40.9077 146.229 42.339C146.969 43.803 147.866 44.8438 148.939 45.4618C149.568 45.7792 150.4 45.9498 151.427 45.966C152.49 45.966 153.369 45.7791 154.053 45.4131C155.394 44.6973 156.153 43.3476 156.328 41.3631C156.476 39.7449 156.236 37.9395 155.598 35.9553C155.043 34.0362 154.386 32.7352 153.646 32.052C153.507 31.8895 153.23 31.7184 152.842 31.5234L152.324 31.2145L151.834 30.9786L150.428 30.1896L148.985 29.4252C147.848 28.7745 146.988 28.1565 146.387 27.5712C145.129 26.2698 144.666 24.7329 145.009 22.9683C145.295 21.5127 146.183 20.2929 147.663 19.3251C149.106 18.3573 150.835 17.8206 152.842 17.7069C154.21 17.6418 155.468 17.8449 156.606 18.3003C157.447 18.6177 158.261 19.1055 159.038 19.7562L159.204 19.9431L159.417 20.1384C159.565 20.3253 159.741 20.496 159.935 20.6343V19.8048ZM147.718 25.8552C147.607 25.359 147.533 24.741 147.496 23.9928C147.394 23.1552 147.358 22.4397 147.394 21.8541C147.173 22.4397 147.099 23.139 147.173 23.9523C147.247 24.6354 147.423 25.2696 147.718 25.8552ZM146.387 22.635C145.952 23.5131 145.795 24.3669 145.905 25.2129C146.007 25.7658 146.331 26.3268 146.877 26.88C147.09 27.0345 147.358 27.2376 147.663 27.4734L148.042 27.7581L148.393 28.002C147.69 27.5061 147.126 26.7252 146.71 25.6599C146.294 24.5865 146.192 23.5782 146.387 22.635ZM157.198 44.3397C157.725 43.7214 158.021 42.648 158.094 41.1273C158.307 38.1105 157.836 35.931 156.661 34.5972C157.179 36.0612 157.512 37.6467 157.66 39.3627C157.808 41.3469 157.651 43.0059 157.198 44.3397ZM159.528 40.0539C159.528 40.4688 159.473 40.8591 159.371 41.2251L159.26 41.6722C159.223 41.8675 159.186 42.0381 159.149 42.2007C159.149 42.3552 159.168 42.3879 159.204 42.2904C159.528 41.6397 159.676 40.7698 159.639 39.6718C159.602 38.5903 159.399 37.7445 159.038 37.1265L159.204 37.8582L159.371 38.5983C159.473 39.1269 159.528 39.6066 159.528 40.0539Z" fill="#F5A8A5"/>
<path d="M175.373 17.9427V18.4467L175.484 18.9672C175.521 19.4634 175.503 19.8699 175.429 20.187C175.392 20.244 175.66 20.2848 176.215 20.301L176.89 20.2521H177.38L177.981 20.187L178.545 20.1384C178.962 20.1384 179.239 20.1789 179.387 20.2521C179.498 20.2848 179.618 20.4312 179.766 20.6832C179.877 20.9679 179.877 21.171 179.766 21.2769C179.655 21.3744 179.341 21.4068 178.814 21.3744H177.112L176.539 21.4233H175.947L175.651 21.4719H175.484C175.447 21.5046 175.429 21.6915 175.429 22.0413L175.484 22.4967V22.83C175.271 27.4167 175.023 31.2405 174.726 34.2882C174.526 36.3375 174.381 50.8155 174.375 52.644C174.365 55.1802 174.655 56.9496 175.272 57.9054L175.429 58.1493L175.734 58.4097C175.956 58.5987 176.254 58.635 176.539 58.5966C176.724 58.572 176.922 58.488 177.112 58.3119C177.263 58.1718 177.349 57.9942 177.435 57.8565C177.496 57.7593 177.565 57.5721 177.602 57.2874L177.648 56.9295L177.704 56.5473C177.789 55.9572 177.99 55.626 178.222 55.5714C178.672 55.4655 178.97 55.6026 179.091 55.9536C179.199 56.2674 179.151 56.6076 178.98 56.9784C178.414 58.2078 177.578 59.0658 176.437 59.4831C175.804 59.7144 175.001 59.8002 174.051 59.7189C173.125 59.6397 172.419 59.4729 171.933 59.2392C170.275 58.4421 169.376 56.9127 169.279 54.6933C169.194 52.743 169.323 37.4703 169.501 33.9549L169.713 29.7585C169.788 28.173 169.824 26.7579 169.824 25.5219V23.4237L169.88 22.8789C169.917 22.4154 169.899 22.155 169.824 22.0899C169.788 22.0575 169.658 22.0737 169.445 22.1388L169.168 22.3014C169.066 22.3341 168.992 22.3503 168.955 22.3503L168.659 22.4478L168.28 22.5942L167.55 22.83C166.874 23.0172 166.403 23.0658 166.107 22.9683C165.663 22.7814 165.496 22.4721 165.626 22.0413C165.663 21.8541 166.088 21.6264 166.893 21.3744C167.152 21.2769 167.466 21.1956 167.845 21.1143C168.132 21.0165 168.391 20.9514 168.604 20.919H168.955L169.334 20.8782C169.621 20.8782 169.788 20.8458 169.824 20.7807C169.861 20.7156 169.88 20.5206 169.88 20.187L169.824 19.8048V19.1625L169.88 18.7314C169.88 18.4143 169.861 18.2109 169.824 18.1377C169.788 18.0726 169.602 18.0564 169.279 18.0891H168.9C168.761 18.0564 168.641 18.0078 168.548 17.9427L168.493 17.8533L168.391 17.7069C168.354 17.5767 168.354 17.4711 168.391 17.3733C168.456 17.2434 168.844 17.1456 169.556 17.0643C169.732 17.0319 170.009 17.0157 170.389 17.0157L170.768 16.9668H171.045C172.451 16.9017 173.487 16.8447 174.162 16.7796C174.375 16.7472 174.633 16.731 174.939 16.731C175.309 16.731 175.623 16.7634 175.891 16.8285C176.631 16.983 176.899 17.2596 176.705 17.658C176.668 17.7882 176.502 17.8614 176.215 17.8938L175.836 17.9427H175.373ZM172.886 20.496C173.098 20.496 173.404 20.4636 173.783 20.3985C173.745 20.0814 173.783 19.6845 173.783 19.203V17.9913H172.83C172.793 18.3087 172.789 18.7167 172.83 19.203L172.886 19.8537V20.496ZM170.99 18.0402H170.823V18.9672C170.823 19.3971 170.879 19.7073 170.99 19.9026V18.0402ZM171.988 20.5857C172.026 20.3334 172.044 19.9107 172.044 19.3251C172.044 18.7395 172.062 18.3087 172.099 18.0402H171.776C171.813 18.2028 171.878 18.3978 171.878 18.6339V19.3251C171.878 19.9419 171.915 20.3661 171.988 20.5857ZM172.941 30.5697C172.739 30.7275 172.903 33.7686 172.886 34.3857C172.796 37.5366 172.941 43.5789 173.154 45.4086C173.035 37.3737 173.727 38.5152 173.727 30.5697C173.727 30.594 173.604 30.6099 173.376 30.5697L173.098 30.5208C173.026 30.5079 172.979 30.54 172.941 30.5697ZM171.609 49.4109C171.814 43.311 171.73 35.5392 171.647 30.6738C171.647 30.6432 171.377 30.6921 171.303 30.6921C171.596 39.7161 170.602 40.0989 171.609 49.4109ZM173.043 58.6455C172.257 57.8241 171.644 56.6271 171.23 55.0755C170.907 53.8656 170.685 40.4244 170.555 38.7411V53.3352C170.555 54.2346 170.59 55.0083 170.712 55.6203C171.022 57.1767 171.822 58.182 173.043 58.6455Z" fill="#F5A8A5"/>
<path fill-rule="evenodd" clip-rule="evenodd" d="M30.0154 4.18773C29.6686 4.12203 29.5493 4.21233 29.3222 3.76383C29.1941 3.51033 29.2261 3.26134 29.0914 3.05614C29.0821 3.04234 29.072 3.02852 29.0611 3.01412C28.7605 2.79572 28.4371 2.59563 28.138 2.41143C27.385 1.94643 26.6137 1.51471 25.8112 1.14451C24.7282 0.778514 23.5663 2.35982 22.6213 1.67282C19.9867 -0.243575 14.269 3.35762 13.0519 7.23542C12.6067 11.9523 16.4206 14.8239 19.7299 16.0467C17.4487 15.897 14.7628 14.1459 13.6534 12.1206C13.4482 11.7447 13.2343 11.3796 13.075 10.9812C12.5944 9.77883 12.412 8.58093 12.5416 7.34643C11.5351 12.7713 17.6047 18.6495 23.9551 15.4377C27.4408 13.6743 28.9795 11.1858 29.6149 7.30471L29.6236 7.23721C29.2297 8.58571 28.718 9.95462 27.9623 11.1444L27.349 12.0294C27.1366 12.2712 26.9036 12.5133 26.6537 12.7518C27.7078 11.6022 28.492 10.1685 29.0968 8.40873L29.7457 6.28591L30.0154 4.18773ZM44.4877 5.54403C44.7592 5.35533 45.0739 5.12492 45.3691 4.97792C46.6588 4.33442 48.0253 3.94021 49.4554 4.31341C50.1772 4.50301 51.1378 5.07332 51.8275 5.05322C52.8154 5.02412 54.1918 3.58471 54.808 3.01201C55.3855 2.47561 55.8281 1.93322 56.5562 1.57532C58.325 0.706225 58.9798 3.32222 59.1865 4.64192C59.0905 4.65902 58.8988 4.76701 58.7464 4.78711C58.8112 4.47241 58.627 3.59821 58.549 3.29971C58.3738 2.63701 58.1477 2.25632 57.6199 1.79822C57.1889 1.41842 55.7362 2.56023 55.4407 2.86023C54.6418 3.61563 53.2744 5.09072 52.1842 5.24912C51.0469 5.41382 50.3614 4.65544 48.9307 4.55734C46.2286 4.37584 43.3186 6.48332 41.6455 8.42912C41.0242 9.15062 41.1445 9.92612 41.0194 10.7844C40.9666 11.1498 40.7545 11.3031 40.4893 11.3559C37.162 12.0174 33.4579 7.52523 31.8628 5.13273C31.5232 4.62423 31.1593 4.13403 30.8377 3.61383L30.8002 3.55351L30.7843 3.55442C30.5674 4.16942 30.6787 7.54324 29.4979 10.3536L29.0329 11.349C27.6145 13.6638 25.2298 15.6546 23.1859 16.2912C22.546 16.4907 22.1446 16.7046 21.5437 16.782C20.9986 16.8516 20.4934 16.9737 19.891 16.9344C19.4854 16.908 19.0699 16.8975 18.6583 16.8384C18.2953 16.8138 17.9332 16.7742 17.5852 16.6734C17.3086 16.5933 17.0227 16.479 16.7518 16.3785C16.4905 16.2816 16.0939 16.1148 15.8089 16.053L14.3008 15.0678C14.0302 14.676 13.6066 14.3829 13.3108 14.0094C13.0453 13.6743 12.7735 13.3497 12.5494 12.984C11.6893 11.5782 11.3065 10.0983 11.4151 8.45494C11.4499 7.92873 11.5567 7.45561 11.7268 6.95851C11.8396 6.63091 11.9935 6.27512 12.0526 5.93072L12.9319 4.58461C12.9646 4.56001 12.9964 4.53391 13.0276 4.50721C12.8524 4.73581 12.6877 4.97734 12.5359 5.23234C12.3739 5.50444 12.2299 5.78701 12.1057 6.07831L12.0985 6.09513L12.0934 6.11253C11.9899 6.48183 11.9155 6.85863 11.8699 7.23903C12.0469 6.51573 12.3118 6.03932 12.3709 5.59922L13.3132 4.15711C13.5988 3.96151 13.8886 3.52622 14.1772 3.26822C14.488 2.99162 14.7589 2.78014 15.0656 2.53114C15.6167 2.08234 16.2775 1.72562 16.8688 1.42442C17.2363 1.23722 17.4199 1.16672 17.8321 1.01432C19.3879 0.438919 18.6958 0.633326 20.2822 0.234026C22.8301 -0.407974 26.2666 0.323731 29.2855 1.78383C29.9482 1.14453 29.6518 1.50963 29.9779 1.26243C30.6367 0.762934 30.5065 0.279915 31.5757 2.47322L32.0257 3.40773C31.8745 3.46683 31.4896 3.50672 31.1725 3.53042C32.4595 6.11252 36.8248 10.9341 39.9601 10.9965C40.8463 11.0139 40.9427 10.4196 40.8284 9.24091C40.9985 8.06971 43.456 6.26643 44.4877 5.54403ZM11.8621 7.27201L11.7208 7.25133L11.6704 7.52101C11.536 8.24671 11.5198 8.98803 11.6125 9.72033C11.9248 12.1845 13.4527 14.4429 15.5644 15.7308C16.4134 16.2492 17.3062 16.5867 18.2158 16.7523C18.1759 16.7424 18.1363 16.7319 18.0967 16.7205C17.68 16.5999 16.5571 16.1406 16.2898 16.095L14.6869 15.0474C14.4598 14.6931 13.9789 14.3391 13.6783 13.9599C13.384 13.5882 13.1317 13.2897 12.8971 12.9057C11.9878 11.4195 11.611 9.87844 11.7217 8.20864C11.7454 7.85434 11.797 7.54591 11.8621 7.27201ZM28.7423 2.69101C28.6469 2.60191 28.5529 2.51191 28.4842 2.42701C28.2397 2.12581 28.2919 2.04813 27.8365 1.86393C27.2791 1.63893 26.7397 1.43943 26.2075 1.26753C27.1147 1.68813 27.9758 2.18191 28.7423 2.69101Z" fill="#F5A8A5"/>
<path d="M34.9684 59.7189H35.9488V54.2034H30.985V59.7189H31.9654V55.1226H34.9684V59.7189ZM37.7263 62.1702H38.7067V59.4615C39.0991 59.7189 39.6751 59.8416 40.2634 59.8416C41.9917 59.8416 43.1314 58.5546 43.1314 56.8752C43.1314 55.2453 42.151 54.0807 40.582 54.0807C39.8221 54.0807 39.0868 54.4116 38.7067 54.8529V54.2034H37.7263V62.1702ZM40.3 54.9999C41.44 54.9999 42.0895 55.7967 42.0895 56.9121C42.0895 58.0764 41.3542 58.9221 40.1776 58.9221C39.6505 58.9221 39.1969 58.8243 38.7067 58.4931V55.7601C39.0499 55.3311 39.6505 54.9999 40.3 54.9999ZM44.8351 55.3677C45.2764 55.1349 45.6808 54.9633 46.3549 54.9633C47.446 54.9633 47.6053 55.6743 47.6053 56.7036C47.2375 56.4342 46.6615 56.3484 46.2325 56.3484C45.0436 56.3484 44.1487 56.9733 44.1487 58.101C44.1487 59.1672 44.8351 59.8047 45.8401 59.8047C46.7473 59.8047 47.2744 59.4246 47.6053 59.0079V59.7189H48.5368V56.3361C48.5368 54.9021 47.9851 54.0807 46.4164 54.0807C45.73 54.0807 45.0679 54.2769 44.5777 54.5832L44.8351 55.3677ZM46.1833 58.9221C45.5461 58.9221 45.1906 58.5789 45.1906 58.0521C45.1906 57.4146 45.7789 57.1449 46.3672 57.1449C46.8454 57.1449 47.2621 57.2676 47.6053 57.5127V58.2114C47.3233 58.5423 46.9066 58.9221 46.1833 58.9221ZM52.0054 59.8416C53.3659 59.8416 54.3466 59.2165 54.3466 58.1869C54.3466 57.5494 53.9665 56.9733 53.1943 56.8875V56.8632C53.893 56.6178 54.1627 56.103 54.1627 55.5639C54.1627 54.6567 53.4394 54.0807 52.0912 54.0807C51.2209 54.0807 50.3629 54.3504 49.9096 54.8163L50.2894 55.5762C50.6572 55.2819 51.1843 54.9633 51.9442 54.9633C52.6552 54.9633 53.1208 55.2573 53.1208 55.7601C53.1208 56.2011 52.7164 56.5444 52.1647 56.5444H51.2947V57.3411H52.2262C52.9003 57.3411 53.3047 57.5985 53.3047 58.0521C53.3047 58.6035 52.6918 58.959 51.8584 58.959C51.3805 58.959 50.6941 58.7385 50.2282 58.3584L49.7257 59.0937C50.0935 59.535 51.1966 59.8416 52.0054 59.8416ZM55.0819 61.0671H56.0011V59.7189H60.4624V61.0671H61.3819V58.7997H60.4624V54.2034H56.6998L56.614 55.662C56.5159 57.1695 56.1358 58.3338 55.768 58.7997H55.0819V61.0671ZM57.5575 56.0419L57.619 55.1226H59.482V58.7997H56.8099C57.0673 58.4565 57.4351 57.4516 57.5575 56.0419ZM66.4927 59.7189H67.4734V54.2034H66.4927V56.4708H63.4285V54.2034H62.4481V59.7189H63.4285V57.39H66.4927V59.7189ZM70.231 59.7189L73.4179 55.6128V59.7189H74.3983V54.2034H73.4179L70.231 58.3095V54.2034H69.2506V59.7189H70.231ZM81.0049 54.2034H79.7179L77.389 56.8998L79.8772 59.7189H81.2377L78.5902 56.8386L81.0049 54.2034ZM76.1758 59.7189H77.1562V54.2034H76.1758V59.7189ZM89.0821 59.7189H90.0628V54.2034H89.0821V56.4708H86.0179V54.2034H85.0375V59.7189H86.0179V57.39H89.0821V59.7189ZM92.134 55.3677C92.5753 55.1349 92.9797 54.9633 93.6538 54.9633C94.7449 54.9633 94.9042 55.6743 94.9042 56.7036C94.5364 56.4342 93.9604 56.3484 93.5314 56.3484C92.3425 56.3484 91.4476 56.9733 91.4476 58.101C91.4476 59.1672 92.134 59.8047 93.139 59.8047C94.0462 59.8047 94.5733 59.4246 94.9042 59.0079V59.7189H95.8357V56.3361C95.8357 54.9021 95.284 54.0807 93.7153 54.0807C93.0289 54.0807 92.3668 54.2769 91.8766 54.5832L92.134 55.3677ZM93.4822 58.9221C92.845 58.9221 92.4895 58.5789 92.4895 58.0521C92.4895 57.4146 93.0778 57.1449 93.6661 57.1449C94.1443 57.1449 94.561 57.2676 94.9042 57.5127V58.2114C94.6222 58.5423 94.2055 58.9221 93.4822 58.9221ZM101.621 54.2034H100.64V56.7159C100.395 56.8875 99.9295 57.0591 99.3778 57.0591C98.6302 57.0591 98.1889 56.6424 98.1889 55.7601V54.2034H97.1473V55.8702C97.1473 57.2922 97.7845 57.9783 99.1081 57.9783C99.721 57.9783 100.273 57.8067 100.64 57.5739V59.7189H101.621V54.2034ZM104.367 59.7189L107.553 55.6128V59.7189H108.534V54.2034H107.553L104.367 58.3095V54.2034H103.386V59.7189H104.367ZM114.356 59.7189H115.337V54.2034H114.356V56.4708H111.292V54.2034H110.311V59.7189H111.292V57.39H114.356V59.7189ZM117.408 55.3677C117.849 55.1349 118.254 54.9633 118.928 54.9633C120.019 54.9633 120.178 55.6743 120.178 56.7036C119.81 56.4342 119.234 56.3484 118.805 56.3484C117.616 56.3484 116.721 56.9733 116.721 58.101C116.721 59.1672 117.408 59.8047 118.413 59.8047C119.32 59.8047 119.847 59.4246 120.178 59.0079V59.7189H121.11V56.3361C121.11 54.9021 120.558 54.0807 118.989 54.0807C118.303 54.0807 117.641 54.2769 117.15 54.5832L117.408 55.3677ZM118.756 58.9221C118.119 58.9221 117.763 58.5789 117.763 58.0521C117.763 57.4146 118.352 57.1449 118.94 57.1449C119.418 57.1449 119.835 57.2676 120.178 57.5127V58.2114C119.896 58.5423 119.479 58.9221 118.756 58.9221ZM127.103 58.3461C126.748 58.677 126.123 58.9221 125.412 58.9221C124.333 58.9221 123.573 58.3095 123.487 57.2676H127.728C127.765 57.096 127.789 56.8752 127.789 56.6058C127.789 55.0857 126.65 54.0807 125.228 54.0807C123.414 54.0807 122.384 55.3554 122.384 56.961C122.384 58.7016 123.549 59.8416 125.338 59.8416C126.074 59.8416 126.87 59.6085 127.41 59.1183L127.103 58.3461ZM125.179 54.9999C126.135 54.9999 126.723 55.5639 126.772 56.4708H123.426C123.536 55.6251 124.174 54.9999 125.179 54.9999ZM128.316 55.1838H130.339V59.7189H131.319V55.1838H133.342V54.2034H128.316V55.1838ZM138.465 58.2114C138.097 58.6281 137.546 58.9221 136.884 58.9221C135.793 58.9221 134.898 58.1745 134.898 56.961C134.898 55.7967 135.793 54.9999 136.786 54.9999C137.362 54.9999 137.901 55.1472 138.367 55.5762L138.821 54.804C138.306 54.2892 137.534 54.0807 136.651 54.0807C135.033 54.0807 133.857 55.3554 133.857 56.961C133.857 58.7016 135.058 59.8416 136.81 59.8416C137.656 59.8416 138.465 59.5227 138.931 58.9221L138.465 58.2114ZM142.363 54.2034C140.524 54.2034 139.899 55.0981 139.899 56.0419C139.899 56.9491 140.524 57.5004 141.088 57.6351L139.495 59.7189H140.684L142.032 57.8805H143.098V59.7189H144.079V54.2034H142.363ZM140.941 56.0664C140.941 55.5516 141.284 55.1226 142.203 55.1226H143.098V56.961H141.971C141.48 56.961 140.941 56.6301 140.941 56.0664ZM147.915 55.1838H149.938V59.7189H150.918V55.1838H152.941V54.2034H147.915V55.1838ZM159.167 54.2034H158.052L156.777 57.6966C156.679 57.9906 156.593 58.2726 156.52 58.5423C156.409 58.2603 156.311 57.9906 156.189 57.7089L154.571 54.2034H153.394L156.042 59.7189L155.919 60.0132C155.551 60.8955 155.208 61.2633 154.743 61.2633C154.522 61.2633 154.314 61.1652 154.13 61.0794L153.811 61.827C154.105 62.0232 154.436 62.1702 154.853 62.1702C155.637 62.1702 156.152 61.6923 156.961 59.7189L159.167 54.2034ZM159.584 55.1838H161.606V59.7189H162.587V55.1838H164.609V54.2034H159.584V55.1838Z" fill="#F5A8A5"/>
</svg>
