<svg width="18" height="18" viewBox="0 0 18 18" fill="none" xmlns="http://www.w3.org/2000/svg">
<path d="M11.1212 8.99998L17.0587 3.06248C17.3405 2.78118 17.499 2.39947 17.4993 2.0013C17.4997 1.60314 17.3418 1.22115 17.0605 0.939353C16.7792 0.65756 16.3975 0.499053 15.9994 0.498702C15.6012 0.49835 15.2192 0.656182 14.9374 0.937478L8.99992 6.87498L3.06242 0.937478C2.78062 0.655685 2.39843 0.497375 1.99992 0.497375C1.6014 0.497375 1.21921 0.655685 0.937417 0.937478C0.655624 1.21927 0.497314 1.60146 0.497314 1.99998C0.497314 2.39849 0.655624 2.78068 0.937417 3.06248L6.87492 8.99998L0.937417 14.9375C0.655624 15.2193 0.497314 15.6015 0.497314 16C0.497314 16.3985 0.655624 16.7807 0.937417 17.0625C1.21921 17.3443 1.6014 17.5026 1.99992 17.5026C2.39843 17.5026 2.78062 17.3443 3.06242 17.0625L8.99992 11.125L14.9374 17.0625C15.2192 17.3443 15.6014 17.5026 15.9999 17.5026C16.3984 17.5026 16.7806 17.3443 17.0624 17.0625C17.3442 16.7807 17.5025 16.3985 17.5025 16C17.5025 15.6015 17.3442 15.2193 17.0624 14.9375L11.1212 8.99998Z" fill="#FD9590"/>
</svg>
