<svg width="72" height="72" viewBox="0 0 72 72" fill="none" xmlns="http://www.w3.org/2000/svg">
<rect x="1" y="1" width="70" height="70" stroke="url(#paint0_linear)" stroke-width="2"/>
<path d="M52.9466 33.5H51.0005C50.8897 33.0988 50.6512 32.7445 50.3211 32.4908C49.9911 32.2371 49.5874 32.0977 49.1711 32.0938H47.0938V27.0138C47.0961 26.9188 47.0731 26.8248 47.0272 26.7416C46.9812 26.6584 46.914 26.5889 46.8323 26.5402L32.1779 18.076C32.0953 18.028 32.0015 18.0027 31.9059 18.0027C31.8104 18.0027 31.7166 18.028 31.634 18.076L16.975 26.5402C16.8921 26.5883 16.8233 26.6574 16.7755 26.7405C16.7278 26.8237 16.7028 26.9179 16.7031 27.0138V43.9423C16.7031 44.0383 16.7284 44.1326 16.7764 44.2157C16.8244 44.2989 16.8934 44.3679 16.9766 44.4159L31.637 52.8801C31.7202 52.9281 31.8145 52.9534 31.9105 52.9534C32.0089 52.9535 32.1058 52.9282 32.1917 52.8801L39.9063 48.4304V51.6471C39.9055 51.9533 39.9654 52.2567 40.0827 52.5396C40.1999 52.8226 40.3721 53.0794 40.5893 53.2953C40.8065 53.5113 41.0643 53.682 41.3479 53.7976C41.6315 53.9132 41.9352 53.9714 42.2415 53.9688H52.9466C53.2536 53.9716 53.5582 53.9138 53.8427 53.7984C54.1273 53.6831 54.3863 53.5127 54.6047 53.2969C54.8232 53.0811 54.9968 52.8242 55.1156 52.5411C55.2344 52.258 55.296 51.9541 55.2969 51.6471V35.858C55.2965 35.2341 55.049 34.6357 54.6085 34.1938C54.1681 33.7519 53.5705 33.5024 52.9466 33.5ZM49.1905 33.1875C49.4011 33.1875 49.603 33.2712 49.7519 33.4201C49.9007 33.5689 49.9844 33.7708 49.9844 33.9814V34.0343C49.9844 34.2449 49.9007 34.4468 49.7519 34.5957C49.603 34.7445 49.4011 34.8282 49.1905 34.8282H46.0126C45.802 34.8282 45.6001 34.7445 45.4513 34.5957C45.3024 34.4468 45.2188 34.2449 45.2188 34.0343V33.9814C45.2188 33.7708 45.3024 33.5689 45.4513 33.4201C45.6001 33.2712 45.802 33.1875 46.0126 33.1875H49.1905ZM31.9105 19.1811L38.0022 22.6981L24.4364 30.5303L18.3448 27.0132L31.9105 19.1811ZM31.3906 51.4593L17.7969 43.6265V27.9598L31.3906 35.7925V51.4593ZM31.9105 34.8454L25.5302 31.1617L39.0959 23.3296L45.4766 27.0132L31.9105 34.8454ZM39.9063 35.858V47.1675L32.4844 51.4593V35.7925L46 27.9598V32.0938H46.017C45.6007 32.0977 45.197 32.2371 44.8669 32.4908C44.5368 32.7445 44.2983 33.0988 44.1875 33.5H42.2415C41.6191 33.5031 41.0235 33.7532 40.5855 34.1954C40.1476 34.6376 39.9032 35.2357 39.9063 35.858ZM54.2031 51.6471C54.2024 51.8105 54.1692 51.9722 54.1054 52.1227C54.0416 52.2733 53.9486 52.4096 53.8317 52.5239C53.7147 52.6381 53.5763 52.728 53.4244 52.7883C53.2724 52.8486 53.11 52.8781 52.9466 52.875H42.2415C42.0788 52.8778 41.9173 52.848 41.7663 52.7874C41.6153 52.7269 41.478 52.6367 41.3623 52.5223C41.2467 52.4079 41.155 52.2716 41.0928 52.1213C41.0306 51.971 40.999 51.8097 41 51.6471V35.858C40.9984 35.6934 41.0292 35.5302 41.0907 35.3775C41.1522 35.2249 41.2433 35.0859 41.3586 34.9684C41.4739 34.851 41.6112 34.7575 41.7627 34.6932C41.9142 34.6289 42.0769 34.5951 42.2415 34.5938H44.2088C44.3261 34.9809 44.5657 35.3195 44.8917 35.559C45.2177 35.7984 45.6125 35.9258 46.017 35.9219H49.1711C49.5755 35.9258 49.9704 35.7985 50.2963 35.559C50.6223 35.3196 50.8619 34.9809 50.9791 34.5938H52.9466C53.2805 34.5959 53.6001 34.73 53.8355 34.9669C54.0709 35.2037 54.2031 35.5241 54.2031 35.858V51.6471Z" fill="url(#paint1_linear)"/>
<path d="M42.871 41.3906H43.4435C43.5885 41.3906 43.7276 41.333 43.8302 41.2304C43.9327 41.1279 43.9903 40.9888 43.9903 40.8438C43.9903 40.6987 43.9327 40.5596 43.8302 40.4571C43.7276 40.3545 43.5885 40.2969 43.4435 40.2969H43.4219V38.8125H44.9303C44.9646 38.9225 45.034 39.0181 45.1279 39.0848C45.2219 39.1515 45.335 39.1856 45.4502 39.1818C45.5954 39.1822 45.7348 39.125 45.8379 39.0227C45.941 38.9204 45.9993 38.7814 46 38.6362V38.2682C45.9988 38.1223 45.94 37.9827 45.8365 37.8799C45.733 37.777 45.5931 37.7191 45.4472 37.7188H42.871C42.7993 37.7191 42.7283 37.7336 42.6622 37.7615C42.5961 37.7893 42.5361 37.8299 42.4856 37.8809C42.4352 37.9319 42.3954 37.9924 42.3683 38.0589C42.3413 38.1253 42.3276 38.1965 42.3281 38.2682V40.8444C42.3277 40.9159 42.3414 40.9869 42.3685 41.0532C42.3956 41.1194 42.4355 41.1796 42.486 41.2304C42.5364 41.2812 42.5964 41.3215 42.6625 41.349C42.7286 41.3765 42.7995 41.3906 42.871 41.3906Z" fill="url(#paint2_linear)"/>
<path d="M42.875 46.3906H45.4531C45.5982 46.3906 45.7373 46.333 45.8398 46.2304C45.9424 46.1279 46 45.9888 46 45.8438V43.2656C46 43.1206 45.9424 42.9815 45.8398 42.8789C45.7373 42.7764 45.5982 42.7188 45.4531 42.7188H42.875C42.73 42.7188 42.5909 42.7764 42.4883 42.8789C42.3857 42.9815 42.3281 43.1206 42.3281 43.2656V45.8438C42.3281 45.9888 42.3857 46.1279 42.4883 46.2304C42.5909 46.333 42.73 46.3906 42.875 46.3906ZM43.4219 43.8125H44.9062V45.2969H43.4219V43.8125Z" fill="url(#paint3_linear)"/>
<path d="M43.4436 50.2969H43.4219V48.8125H44.9007C44.9036 48.9563 44.9626 49.0933 45.0653 49.1941C45.168 49.2948 45.306 49.3513 45.4499 49.3515C45.5937 49.3516 45.7319 49.2954 45.8347 49.1948C45.9376 49.0943 45.9969 48.9574 46 48.8136V48.2866C45.9995 48.1388 45.9415 47.9969 45.8384 47.891C45.7353 47.785 45.595 47.7233 45.4472 47.7188H42.8711C42.7243 47.7237 42.5853 47.7859 42.4838 47.892C42.3824 47.9982 42.3265 48.1398 42.3282 48.2866V50.8628C42.3281 50.9334 42.3422 51.0033 42.3696 51.0684C42.3971 51.1335 42.4373 51.1923 42.488 51.2416C42.5386 51.2908 42.5986 51.3293 42.6644 51.3549C42.7302 51.3806 42.8005 51.3927 42.8711 51.3906H43.4436C43.5886 51.3906 43.7277 51.333 43.8303 51.2304C43.9328 51.1279 43.9904 50.9888 43.9904 50.8438C43.9904 50.6987 43.9328 50.5596 43.8303 50.4571C43.7277 50.3545 43.5886 50.2969 43.4436 50.2969Z" fill="url(#paint4_linear)"/>
<path d="M46.7069 38.39L45.1054 39.9916L44.6182 39.5043C44.5674 39.4535 44.5071 39.4133 44.4408 39.3858C44.3744 39.3583 44.3033 39.3441 44.2315 39.3441C44.1597 39.3441 44.0885 39.3583 44.0222 39.3858C43.9558 39.4133 43.8955 39.4535 43.8448 39.5043C43.794 39.5551 43.7537 39.6154 43.7262 39.6818C43.6987 39.7481 43.6846 39.8192 43.6846 39.891C43.6846 39.9629 43.6987 40.034 43.7262 40.1003C43.7537 40.1667 43.794 40.227 43.8448 40.2778L44.7187 41.1517C44.7695 41.2025 44.8298 41.2427 44.8962 41.2702C44.9625 41.2977 45.0336 41.3119 45.1055 41.3119C45.1773 41.3119 45.2484 41.2977 45.3147 41.2702C45.3811 41.2427 45.4414 41.2025 45.4922 41.1517L47.4806 39.1632C47.5832 39.0607 47.6408 38.9216 47.6408 38.7765C47.6408 38.6315 47.5832 38.4924 47.4806 38.3898C47.378 38.2872 47.2389 38.2296 47.0939 38.2296C46.9488 38.2296 46.8097 38.2872 46.7072 38.3898L46.7069 38.39Z" fill="url(#paint5_linear)"/>
<path d="M46.7069 48.4876L45.1054 50.0891L44.6182 49.6019C44.5674 49.5511 44.5071 49.5108 44.4408 49.4833C44.3744 49.4558 44.3033 49.4417 44.2315 49.4417C44.1597 49.4417 44.0885 49.4558 44.0222 49.4833C43.9558 49.5108 43.8955 49.5511 43.8448 49.6019C43.794 49.6526 43.7537 49.7129 43.7262 49.7793C43.6987 49.8456 43.6846 49.9168 43.6846 49.9886C43.6846 50.0604 43.6987 50.1315 43.7262 50.1979C43.7537 50.2642 43.794 50.3245 43.8448 50.3753L44.7187 51.2492C44.7695 51.3 44.8298 51.3403 44.8962 51.3678C44.9625 51.3953 45.0336 51.4094 45.1055 51.4094C45.1773 51.4094 45.2484 51.3953 45.3147 51.3678C45.3811 51.3403 45.4414 51.3 45.4922 51.2492L47.4806 49.2608C47.5832 49.1582 47.6408 49.0191 47.6408 48.8741C47.6408 48.729 47.5832 48.5899 47.4806 48.4873C47.378 48.3848 47.2389 48.3271 47.0939 48.3271C46.9488 48.3271 46.8097 48.3848 46.7072 48.4873L46.7069 48.4876Z" fill="url(#paint6_linear)"/>
<path d="M52.3177 39.0469H48.8828C48.7378 39.0469 48.5987 39.1045 48.4961 39.2071C48.3936 39.3096 48.3359 39.4487 48.3359 39.5938C48.3359 39.7388 48.3936 39.8779 48.4961 39.9804C48.5987 40.083 48.7378 40.1406 48.8828 40.1406H52.3177C52.4627 40.1406 52.6018 40.083 52.7044 39.9804C52.8069 39.8779 52.8645 39.7388 52.8645 39.5938C52.8645 39.4487 52.8069 39.3096 52.7044 39.2071C52.6018 39.1045 52.4627 39.0469 52.3177 39.0469Z" fill="url(#paint7_linear)"/>
<path d="M52.3177 44.0469H48.8828C48.7378 44.0469 48.5987 44.1045 48.4961 44.2071C48.3936 44.3096 48.3359 44.4487 48.3359 44.5938C48.3359 44.7388 48.3936 44.8779 48.4961 44.9804C48.5987 45.083 48.7378 45.1406 48.8828 45.1406H52.3177C52.4627 45.1406 52.6018 45.083 52.7044 44.9804C52.8069 44.8779 52.8645 44.7388 52.8645 44.5938C52.8645 44.4487 52.8069 44.3096 52.7044 44.2071C52.6018 44.1045 52.4627 44.0469 52.3177 44.0469Z" fill="url(#paint8_linear)"/>
<path d="M52.3177 49.0469H48.8828C48.7378 49.0469 48.5987 49.1045 48.4961 49.2071C48.3936 49.3096 48.3359 49.4487 48.3359 49.5938C48.3359 49.7388 48.3936 49.8779 48.4961 49.9804C48.5987 50.083 48.7378 50.1406 48.8828 50.1406H52.3177C52.4627 50.1406 52.6018 50.083 52.7044 49.9804C52.8069 49.8779 52.8645 49.7388 52.8645 49.5938C52.8645 49.4487 52.8069 49.3096 52.7044 49.2071C52.6018 49.1045 52.4627 49.0469 52.3177 49.0469Z" fill="url(#paint9_linear)"/>
<defs>
<linearGradient id="paint0_linear" x1="36" y1="0" x2="36" y2="72" gradientUnits="userSpaceOnUse">
<stop stop-color="#FD9590"/>
<stop offset="1" stop-color="#F8D6B8"/>
</linearGradient>
<linearGradient id="paint1_linear" x1="36" y1="18.0027" x2="36" y2="53.9689" gradientUnits="userSpaceOnUse">
<stop stop-color="#FD9590"/>
<stop offset="1" stop-color="#F8D6B8"/>
</linearGradient>
<linearGradient id="paint2_linear" x1="44.1641" y1="37.7188" x2="44.1641" y2="41.3906" gradientUnits="userSpaceOnUse">
<stop stop-color="#FD9590"/>
<stop offset="1" stop-color="#F8D6B8"/>
</linearGradient>
<linearGradient id="paint3_linear" x1="44.1641" y1="42.7188" x2="44.1641" y2="46.3906" gradientUnits="userSpaceOnUse">
<stop stop-color="#FD9590"/>
<stop offset="1" stop-color="#F8D6B8"/>
</linearGradient>
<linearGradient id="paint4_linear" x1="44.1641" y1="47.7188" x2="44.1641" y2="51.3909" gradientUnits="userSpaceOnUse">
<stop stop-color="#FD9590"/>
<stop offset="1" stop-color="#F8D6B8"/>
</linearGradient>
<linearGradient id="paint5_linear" x1="45.6627" y1="38.2296" x2="45.6627" y2="41.3119" gradientUnits="userSpaceOnUse">
<stop stop-color="#FD9590"/>
<stop offset="1" stop-color="#F8D6B8"/>
</linearGradient>
<linearGradient id="paint6_linear" x1="45.6627" y1="48.3271" x2="45.6627" y2="51.4094" gradientUnits="userSpaceOnUse">
<stop stop-color="#FD9590"/>
<stop offset="1" stop-color="#F8D6B8"/>
</linearGradient>
<linearGradient id="paint7_linear" x1="50.6002" y1="39.0469" x2="50.6002" y2="40.1406" gradientUnits="userSpaceOnUse">
<stop stop-color="#FD9590"/>
<stop offset="1" stop-color="#F8D6B8"/>
</linearGradient>
<linearGradient id="paint8_linear" x1="50.6002" y1="44.0469" x2="50.6002" y2="45.1406" gradientUnits="userSpaceOnUse">
<stop stop-color="#FD9590"/>
<stop offset="1" stop-color="#F8D6B8"/>
</linearGradient>
<linearGradient id="paint9_linear" x1="50.6002" y1="49.0469" x2="50.6002" y2="50.1406" gradientUnits="userSpaceOnUse">
<stop stop-color="#FD9590"/>
<stop offset="1" stop-color="#F8D6B8"/>
</linearGradient>
</defs>
</svg>
