<svg width="48" height="48" viewBox="0 0 48 48" fill="none" xmlns="http://www.w3.org/2000/svg">
<path d="M17.3154 19.5043C15.7339 19.5043 14.4473 20.7909 14.4473 22.3724C14.4473 23.9538 15.7339 25.2405 17.3154 25.2405C18.8968 25.2405 20.1835 23.9538 20.1835 22.3724C20.1835 20.7909 18.8968 19.5043 17.3154 19.5043ZM17.3154 23.8341C16.5093 23.8341 15.8536 23.1784 15.8536 22.3724C15.8536 21.5663 16.5093 20.9106 17.3154 20.9106C18.1213 20.9106 18.7771 21.5663 18.7771 22.3724C18.7771 23.1783 18.1213 23.8341 17.3154 23.8341Z" fill="url(#paint0_linear)"/>
<path d="M24.793 19.5043C23.2115 19.5043 21.9248 20.7909 21.9248 22.3724C21.9248 23.9538 23.2115 25.2405 24.793 25.2405C26.3745 25.2405 27.6611 23.9538 27.6611 22.3724C27.6611 20.7909 26.3745 19.5043 24.793 19.5043ZM24.793 23.8341C23.9868 23.8341 23.3311 23.1784 23.3311 22.3724C23.3311 21.5663 23.9869 20.9106 24.793 20.9106C25.5991 20.9106 26.2547 21.5663 26.2547 22.3724C26.2547 23.1784 25.599 23.8341 24.793 23.8341Z" fill="url(#paint1_linear)"/>
<path d="M32.2704 19.5043C30.689 19.5043 29.4023 20.7909 29.4023 22.3724C29.4023 23.9538 30.689 25.2405 32.2704 25.2405C33.8519 25.2405 35.1385 23.9538 35.1385 22.3724C35.1385 20.7909 33.8518 19.5043 32.2704 19.5043ZM32.2704 23.8341C31.4644 23.8341 30.8087 23.1784 30.8087 22.3724C30.8087 21.5663 31.4645 20.9106 32.2704 20.9106C33.0764 20.9106 33.7322 21.5663 33.7322 22.3724C33.7322 23.1784 33.0764 23.8341 32.2704 23.8341Z" fill="url(#paint2_linear)"/>
<path d="M17.3154 26.5004C15.7339 26.5004 14.4473 27.787 14.4473 29.3685C14.4473 30.9499 15.7339 32.2366 17.3154 32.2366C18.8968 32.2366 20.1835 30.9499 20.1835 29.3685C20.1835 27.787 18.8968 26.5004 17.3154 26.5004ZM17.3154 30.8302C16.5093 30.8302 15.8536 30.1745 15.8536 29.3685C15.8536 28.5624 16.5093 27.9067 17.3154 27.9067C18.1213 27.9067 18.7771 28.5624 18.7771 29.3685C18.7771 30.1745 18.1213 30.8302 17.3154 30.8302Z" fill="url(#paint3_linear)"/>
<path d="M32.2704 26.5004C30.689 26.5004 29.4023 27.787 29.4023 29.3685C29.4023 30.9499 30.689 32.2366 32.2704 32.2366C33.8519 32.2366 35.1385 30.9499 35.1385 29.3685C35.1384 27.787 33.8518 26.5004 32.2704 26.5004ZM32.2704 30.8302C31.4644 30.8302 30.8087 30.1745 30.8087 29.3685C30.8087 28.5624 31.4645 27.9067 32.2704 27.9067C33.0764 27.9067 33.7322 28.5624 33.7322 29.3685C33.7321 30.1745 33.0764 30.8302 32.2704 30.8302Z" fill="url(#paint4_linear)"/>
<path d="M24.793 26.5004C23.2115 26.5004 21.9248 27.787 21.9248 29.3685C21.9248 30.9499 23.2115 32.2366 24.793 32.2366C26.3745 32.2366 27.6611 30.9499 27.6611 29.3685C27.6611 27.787 26.3745 26.5004 24.793 26.5004ZM24.793 30.8302C23.9868 30.8302 23.3311 30.1745 23.3311 29.3685C23.3311 28.5624 23.9869 27.9067 24.793 27.9067C25.5991 27.9067 26.2547 28.5624 26.2547 29.3685C26.2547 30.1745 25.599 30.8302 24.793 30.8302Z" fill="url(#paint5_linear)"/>
<path d="M24.7929 33.4965C23.2114 33.4965 21.9248 34.7832 21.9248 36.3646C21.9248 37.9461 23.2114 39.2327 24.7929 39.2327C26.3744 39.2327 27.661 37.9461 27.661 36.3646C27.661 34.7832 26.3744 33.4965 24.7929 33.4965ZM24.7929 37.8263C23.9867 37.8263 23.3311 37.1706 23.3311 36.3646C23.3312 35.5586 23.9868 34.9027 24.7929 34.9027C25.599 34.9027 26.2547 35.5584 26.2547 36.3646C26.2547 37.1706 25.5989 37.8263 24.7929 37.8263Z" fill="url(#paint6_linear)"/>
<path d="M17.3154 33.4965C15.7339 33.4965 14.4473 34.7832 14.4473 36.3646C14.4473 37.9461 15.7339 39.2327 17.3154 39.2327C18.8968 39.2327 20.1835 37.9461 20.1835 36.3646C20.1835 34.7832 18.8968 33.4965 17.3154 33.4965ZM17.3154 37.8263C16.5093 37.8263 15.8536 37.1706 15.8536 36.3646C15.8536 35.5585 16.5093 34.9027 17.3154 34.9027C18.1213 34.9027 18.7771 35.5584 18.7771 36.3646C18.777 37.1706 18.1213 37.8263 17.3154 37.8263Z" fill="url(#paint7_linear)"/>
<path d="M10.8331 22.3724L11.8668 21.3387C12.1414 21.0641 12.1414 20.619 11.8667 20.3443C11.5922 20.0698 11.147 20.0697 10.8723 20.3444L9.83869 21.378L8.80509 20.3444C8.5305 20.0698 8.08528 20.0697 7.81068 20.3443C7.536 20.619 7.536 21.0641 7.81059 21.3387L8.84428 22.3724L7.81059 23.4061C7.53581 23.6806 7.53581 24.1257 7.8105 24.4005C7.94775 24.5378 8.12775 24.6064 8.30765 24.6064C8.48756 24.6064 8.66756 24.5378 8.8049 24.4004L9.8385 23.3668L10.8721 24.4004C11.0094 24.5378 11.1893 24.6064 11.3693 24.6064C11.5492 24.6064 11.7292 24.5378 11.8665 24.4005C12.1412 24.1258 12.1412 23.6807 11.8666 23.4061L10.8331 22.3724Z" fill="url(#paint8_linear)"/>
<path d="M10.8331 29.3685L11.8668 28.3348C12.1414 28.0602 12.1414 27.6151 11.8667 27.3404C11.5922 27.0659 11.147 27.0658 10.8723 27.3405L9.83869 28.3741L8.80509 27.3405C8.5305 27.0658 8.08528 27.0659 7.81068 27.3404C7.536 27.6151 7.536 28.0602 7.81059 28.3348L8.84428 29.3685L7.81059 30.4022C7.53581 30.6767 7.53581 31.1218 7.8105 31.3966C7.94775 31.5339 8.12775 31.6025 8.30765 31.6025C8.48756 31.6025 8.66756 31.5339 8.8049 31.3965L9.8385 30.3629L10.8721 31.3965C11.0094 31.5339 11.1893 31.6025 11.3693 31.6025C11.5492 31.6025 11.7292 31.5339 11.8665 31.3966C12.1412 31.1219 12.1412 30.6768 11.8666 30.4022L10.8331 29.3685Z" fill="url(#paint9_linear)"/>
<path d="M11.8658 37.3982L10.8322 36.3646L11.8658 35.331C12.1402 35.0564 12.1402 34.6113 11.8656 34.3365C11.591 34.062 11.1458 34.062 10.8711 34.3365L9.83755 35.3701L8.80396 34.3365C8.52927 34.062 8.08415 34.062 7.80946 34.3365C7.53487 34.6112 7.53487 35.0563 7.80946 35.331L8.84305 36.3646L7.80946 37.3982C7.53487 37.6729 7.53487 38.118 7.80946 38.3927C7.9468 38.5299 8.1268 38.5986 8.30671 38.5986C8.48662 38.5986 8.66662 38.5299 8.80396 38.3927L9.83755 37.3591L10.8711 38.3927C11.0085 38.5299 11.1885 38.5986 11.3684 38.5986C11.5483 38.5986 11.7283 38.5299 11.8656 38.3927C12.1404 38.1179 12.1404 37.6728 11.8658 37.3982Z" fill="url(#paint10_linear)"/>
<path d="M47.9596 39.49L46.0419 29.3983C45.9695 29.0168 45.6006 28.7663 45.2197 28.8388C44.8383 28.9113 44.5878 29.2793 44.6603 29.661L46.5779 39.7527C46.6852 40.3175 46.2083 40.8507 45.5587 40.8507H35.1533L41.9024 34.1017C42.0259 33.9783 42.1083 33.7979 42.1083 33.6045V16.2312L44.0366 26.3794C44.1091 26.7609 44.4775 27.0115 44.8587 26.9389C45.2402 26.8665 45.4907 26.4984 45.4182 26.1168L42.1037 8.67392C42.056 7.6362 41.1993 6.80613 40.1501 6.80613H33.9879V4.54517C33.9879 4.15676 33.6732 3.84204 33.2848 3.84204C32.8964 3.84204 32.5817 4.15676 32.5817 4.54517V6.80604H27.8726V4.54517C27.8726 4.15676 27.5579 3.84204 27.1695 3.84204C26.7811 3.84204 26.4664 4.15676 26.4664 4.54517V6.80604H21.7572V4.54517C21.7572 4.15676 21.4425 3.84204 21.0541 3.84204C20.6657 3.84204 20.351 4.15676 20.351 4.54517V6.80604H15.6419V4.54517C15.6419 4.15676 15.3272 3.84204 14.9388 3.84204C14.5504 3.84204 14.2357 4.15676 14.2357 4.54517V6.80604H9.52659V4.54517C9.52659 4.15676 9.21187 3.84204 8.82347 3.84204C8.43506 3.84204 8.12034 4.15676 8.12034 4.54517V6.80604H1.95816C0.878437 6.80613 0 7.68448 0 8.76429V42.1999C0 43.2796 0.878437 44.1579 1.95816 44.1579H19.4135C19.8019 44.1579 20.1166 43.8432 20.1166 43.4548C20.1166 43.0664 19.8019 42.7517 19.4135 42.7517H1.95816C1.65394 42.7517 1.40634 42.5042 1.40634 42.1999V15.9357H40.702V32.9011H32.8096C31.7299 32.9011 30.8515 33.7795 30.8515 34.8592V42.7516H22.6948C22.3064 42.7516 21.9917 43.0663 21.9917 43.4547C21.9917 43.8431 22.3064 44.1578 22.6948 44.1578H31.5547C31.7361 44.1578 31.9179 44.0859 32.0519 43.952L33.7469 42.2569H45.5588C47.0859 42.2569 48.2328 40.9274 47.9596 39.49ZM1.40634 14.5294V8.76429C1.40634 8.46007 1.65394 8.21248 1.95816 8.21248H8.12034V11.3709C8.12034 11.7593 8.43506 12.074 8.82347 12.074C9.21187 12.074 9.52659 11.7593 9.52659 11.3709V8.21248H14.2357V11.3709C14.2357 11.7593 14.5504 12.074 14.9388 12.074C15.3272 12.074 15.6419 11.7593 15.6419 11.3709V8.21248H20.351V11.3709C20.351 11.7593 20.6657 12.074 21.0541 12.074C21.4425 12.074 21.7572 11.7593 21.7572 11.3709V8.21248H26.4664V11.3709C26.4664 11.7593 26.7811 12.074 27.1695 12.074C27.5579 12.074 27.8726 11.7593 27.8726 11.3709V8.21248H32.5817V11.3709C32.5817 11.7593 32.8964 12.074 33.2848 12.074C33.6732 12.074 33.9879 11.7593 33.9879 11.3709V8.21248H40.1501C40.4543 8.21248 40.7019 8.46007 40.7019 8.76429V14.5294H1.40634V14.5294ZM32.2578 41.7572V34.8593C32.2578 34.5551 32.5053 34.3075 32.8095 34.3075H39.7074C39.0038 35.0112 32.9629 41.0521 32.2578 41.7572Z" fill="url(#paint11_linear)"/>
<defs>
<linearGradient id="paint0_linear" x1="17.3154" y1="19.5043" x2="17.3154" y2="25.2405" gradientUnits="userSpaceOnUse">
<stop stop-color="#FD9590"/>
<stop offset="1" stop-color="#F8D6B8"/>
</linearGradient>
<linearGradient id="paint1_linear" x1="24.7929" y1="19.5043" x2="24.7929" y2="25.2405" gradientUnits="userSpaceOnUse">
<stop stop-color="#FD9590"/>
<stop offset="1" stop-color="#F8D6B8"/>
</linearGradient>
<linearGradient id="paint2_linear" x1="32.2704" y1="19.5043" x2="32.2704" y2="25.2405" gradientUnits="userSpaceOnUse">
<stop stop-color="#FD9590"/>
<stop offset="1" stop-color="#F8D6B8"/>
</linearGradient>
<linearGradient id="paint3_linear" x1="17.3154" y1="26.5004" x2="17.3154" y2="32.2366" gradientUnits="userSpaceOnUse">
<stop stop-color="#FD9590"/>
<stop offset="1" stop-color="#F8D6B8"/>
</linearGradient>
<linearGradient id="paint4_linear" x1="32.2704" y1="26.5004" x2="32.2704" y2="32.2366" gradientUnits="userSpaceOnUse">
<stop stop-color="#FD9590"/>
<stop offset="1" stop-color="#F8D6B8"/>
</linearGradient>
<linearGradient id="paint5_linear" x1="24.7929" y1="26.5004" x2="24.7929" y2="32.2366" gradientUnits="userSpaceOnUse">
<stop stop-color="#FD9590"/>
<stop offset="1" stop-color="#F8D6B8"/>
</linearGradient>
<linearGradient id="paint6_linear" x1="24.7929" y1="33.4965" x2="24.7929" y2="39.2327" gradientUnits="userSpaceOnUse">
<stop stop-color="#FD9590"/>
<stop offset="1" stop-color="#F8D6B8"/>
</linearGradient>
<linearGradient id="paint7_linear" x1="17.3154" y1="33.4965" x2="17.3154" y2="39.2327" gradientUnits="userSpaceOnUse">
<stop stop-color="#FD9590"/>
<stop offset="1" stop-color="#F8D6B8"/>
</linearGradient>
<linearGradient id="paint8_linear" x1="9.8386" y1="20.1384" x2="9.8386" y2="24.6064" gradientUnits="userSpaceOnUse">
<stop stop-color="#FD9590"/>
<stop offset="1" stop-color="#F8D6B8"/>
</linearGradient>
<linearGradient id="paint9_linear" x1="9.8386" y1="27.1345" x2="9.8386" y2="31.6025" gradientUnits="userSpaceOnUse">
<stop stop-color="#FD9590"/>
<stop offset="1" stop-color="#F8D6B8"/>
</linearGradient>
<linearGradient id="paint10_linear" x1="9.83763" y1="34.1306" x2="9.83763" y2="38.5986" gradientUnits="userSpaceOnUse">
<stop stop-color="#FD9590"/>
<stop offset="1" stop-color="#F8D6B8"/>
</linearGradient>
<linearGradient id="paint11_linear" x1="24" y1="3.84204" x2="24" y2="44.1579" gradientUnits="userSpaceOnUse">
<stop stop-color="#FD9590"/>
<stop offset="1" stop-color="#F8D6B8"/>
</linearGradient>
</defs>
</svg>
