<svg width="48" height="48" viewBox="0 0 48 48" fill="none" xmlns="http://www.w3.org/2000/svg">
<path d="M30.8453 5.93127C30.3629 2.55008 27.4198 0 23.9998 0C21.8003 0 19.7114 1.06136 18.4127 2.84014C18.1474 3.20291 18.2268 3.71178 18.5895 3.97706C18.9511 4.24139 19.4612 4.16297 19.726 3.79973C20.7201 2.43948 22.3175 1.6272 23.9995 1.6272C26.6152 1.6272 28.8654 3.5764 29.2344 6.16079C29.2925 6.5667 29.6407 6.85963 30.039 6.85963C30.0769 6.85963 30.116 6.85677 30.1549 6.85152C30.5996 6.78789 30.9087 6.37578 30.8453 5.93127Z" fill="url(#paint0_linear)"/>
<path d="M42.5958 15.0387L40.1552 10.9709C40.0083 10.7256 39.7435 10.5759 39.4575 10.5759H37.1186C36.6696 10.5759 36.3051 10.9404 36.3051 11.3894C36.3051 11.8385 36.6696 12.2029 37.1186 12.2029H38.997L40.4614 14.6436H7.53832L9.00273 12.2029H9.86435C10.3134 12.2029 10.6778 11.8385 10.6778 11.3894C10.6778 10.9404 10.3134 10.5759 9.86435 10.5759H8.54224C8.25622 10.5759 7.99142 10.7256 7.8446 10.9709L5.40392 15.0387C5.25305 15.2904 5.24947 15.6034 5.39367 15.8584C5.53787 16.1134 5.80816 16.2712 6.10157 16.2712H41.8982C42.1916 16.2712 42.4617 16.1134 42.6061 15.8584C42.7505 15.6034 42.7467 15.29 42.5958 15.0387Z" fill="url(#paint1_linear)"/>
<path d="M38.5394 7.53733C38.4255 7.35356 38.2436 7.22319 38.0334 7.17409L26.9429 4.58016C26.7329 4.53082 26.5117 4.56753 26.3282 4.68098C26.1451 4.79491 26.0145 4.97677 25.9654 5.18699L25.129 8.7622C25.0266 9.19956 25.2983 9.63717 25.7359 9.73918C26.1732 9.84167 26.6113 9.56995 26.7133 9.13235L27.3645 6.34965L36.8705 8.57319L35.3768 14.9597C35.2743 15.3971 35.546 15.8347 35.9836 15.9367C36.0463 15.9512 36.1085 15.9581 36.17 15.9581C36.5394 15.9581 36.8738 15.705 36.9608 15.3301L38.64 8.15155C38.6896 7.94157 38.6533 7.72038 38.5394 7.53733Z" fill="url(#paint2_linear)"/>
<path d="M24.4299 9.4605L23.6886 3.19078C23.6634 2.97651 23.554 2.78083 23.3843 2.64735C23.2146 2.51388 23.0003 2.45286 22.7851 2.47813L9.17783 4.08649C8.73188 4.13941 8.41298 4.54364 8.46565 4.99007L9.70148 15.4471C9.75058 15.8611 10.1017 16.1654 10.5085 16.1654C10.5402 16.1654 10.5729 16.1633 10.6053 16.1597C11.051 16.1068 11.3699 15.7026 11.3175 15.2562L10.177 5.60643L22.1685 4.18922L22.8139 9.65094C22.8668 10.0971 23.2691 10.4141 23.7175 10.3636C24.1634 10.3112 24.4823 9.90669 24.4299 9.4605Z" fill="url(#paint3_linear)"/>
<path d="M30.8637 15.1484L29.2489 8.43324C29.1984 8.22374 29.0666 8.04235 28.8828 7.92962C28.699 7.81783 28.4786 7.78279 28.2676 7.83285L15.1616 10.9847C14.7247 11.0896 14.4559 11.5291 14.5608 11.966L15.3678 15.3224C15.4727 15.7598 15.9122 16.0289 16.3488 15.9233C16.7857 15.8184 17.0546 15.3789 16.9497 14.942L16.3326 12.3765L27.8567 9.60543L29.2813 15.5293C29.3707 15.9023 29.7044 16.1526 30.0717 16.1526C30.1348 16.1526 30.1987 16.1452 30.2628 16.1297C30.6997 16.0246 30.9686 15.5853 30.8637 15.1484Z" fill="url(#paint4_linear)"/>
<path d="M42.7116 15.4161C42.6892 14.9837 42.3321 14.6443 41.8988 14.6443H6.10216C5.66885 14.6443 5.3118 14.9835 5.2894 15.4161L3.6622 47.1448C3.65076 47.3674 3.73133 47.5853 3.88482 47.7469C4.03855 47.9082 4.25164 48 4.47473 48H43.5255C43.7484 48 43.9617 47.9085 44.1161 47.7469C44.2694 47.5853 44.35 47.3677 44.3388 47.1448L42.7116 15.4161ZM5.33087 46.3728L6.87465 16.2712H41.1254L42.6691 46.3728H5.33087Z" fill="url(#paint5_linear)"/>
<path d="M30.1018 17.8982C28.7559 17.8982 27.6611 18.9929 27.6611 20.3389C27.6611 21.6848 28.7559 22.7795 30.1018 22.7795C31.4478 22.7795 32.5425 21.6848 32.5425 20.3389C32.5425 18.9929 31.4478 17.8982 30.1018 17.8982ZM30.1018 21.1526C29.653 21.1526 29.2883 20.7877 29.2883 20.3391C29.2883 19.8905 29.6532 19.5256 30.1018 19.5256C30.5504 19.5256 30.9153 19.8905 30.9153 20.3391C30.9153 20.7877 30.5504 21.1526 30.1018 21.1526Z" fill="url(#paint6_linear)"/>
<path d="M17.8987 17.8982C16.5527 17.8982 15.458 18.9929 15.458 20.3389C15.458 21.6848 16.5527 22.7795 17.8987 22.7795C19.2446 22.7795 20.3394 21.6848 20.3394 20.3389C20.3394 18.9929 19.2446 17.8982 17.8987 17.8982ZM17.8987 21.1526C17.4501 21.1526 17.0852 20.7877 17.0852 20.3391C17.0852 19.8905 17.4501 19.5256 17.8987 19.5256C18.3473 19.5256 18.7122 19.8905 18.7122 20.3391C18.7122 20.7877 18.3473 21.1526 17.8987 21.1526Z" fill="url(#paint7_linear)"/>
<path d="M30.1018 20.3389H30.0391C29.5901 20.3389 29.2256 20.7033 29.2256 21.1523C29.2256 21.2634 29.2476 21.3695 29.2883 21.466V25.6268C29.2883 28.5425 26.9161 30.915 24.0001 30.915C21.0842 30.915 18.7119 28.5428 18.7119 25.6268V21.1526C18.7119 20.7035 18.3475 20.3391 17.8984 20.3391C17.4494 20.3391 17.085 20.7035 17.085 21.1526V25.6271C17.085 29.4401 20.187 32.5422 24.0001 32.5422C27.8132 32.5422 30.9153 29.4401 30.9153 25.6271V21.1526C30.9153 20.7035 30.5509 20.3389 30.1018 20.3389Z" fill="url(#paint8_linear)"/>
<defs>
<linearGradient id="paint0_linear" x1="24.5547" y1="0" x2="24.5547" y2="6.85963" gradientUnits="userSpaceOnUse">
<stop stop-color="#FD9590"/>
<stop offset="1" stop-color="#F8D6B8"/>
</linearGradient>
<linearGradient id="paint1_linear" x1="23.9999" y1="10.5759" x2="23.9999" y2="16.2712" gradientUnits="userSpaceOnUse">
<stop stop-color="#FD9590"/>
<stop offset="1" stop-color="#F8D6B8"/>
</linearGradient>
<linearGradient id="paint2_linear" x1="31.8845" y1="4.55872" x2="31.8845" y2="15.9581" gradientUnits="userSpaceOnUse">
<stop stop-color="#FD9590"/>
<stop offset="1" stop-color="#F8D6B8"/>
</linearGradient>
<linearGradient id="paint3_linear" x1="16.4477" y1="2.47253" x2="16.4477" y2="16.1654" gradientUnits="userSpaceOnUse">
<stop stop-color="#FD9590"/>
<stop offset="1" stop-color="#F8D6B8"/>
</linearGradient>
<linearGradient id="paint4_linear" x1="22.7122" y1="7.81055" x2="22.7122" y2="16.1526" gradientUnits="userSpaceOnUse">
<stop stop-color="#FD9590"/>
<stop offset="1" stop-color="#F8D6B8"/>
</linearGradient>
<linearGradient id="paint5_linear" x1="24.0005" y1="14.6443" x2="24.0005" y2="48" gradientUnits="userSpaceOnUse">
<stop stop-color="#FD9590"/>
<stop offset="1" stop-color="#F8D6B8"/>
</linearGradient>
<linearGradient id="paint6_linear" x1="30.1018" y1="17.8982" x2="30.1018" y2="22.7795" gradientUnits="userSpaceOnUse">
<stop stop-color="#FD9590"/>
<stop offset="1" stop-color="#F8D6B8"/>
</linearGradient>
<linearGradient id="paint7_linear" x1="17.8987" y1="17.8982" x2="17.8987" y2="22.7795" gradientUnits="userSpaceOnUse">
<stop stop-color="#FD9590"/>
<stop offset="1" stop-color="#F8D6B8"/>
</linearGradient>
<linearGradient id="paint8_linear" x1="24.0001" y1="20.3389" x2="24.0001" y2="32.5422" gradientUnits="userSpaceOnUse">
<stop stop-color="#FD9590"/>
<stop offset="1" stop-color="#F8D6B8"/>
</linearGradient>
</defs>
</svg>
