<svg width="48" height="48" viewBox="0 0 48 48" fill="none" xmlns="http://www.w3.org/2000/svg">
<g clip-path="url(#clip0)">
<path d="M40.8751 3H7.12508C3.19615 3 0 6.19615 0 10.1251C0 14.054 3.19615 17.2502 7.12508 17.2502H7.78734C8.20131 17.2502 8.53727 16.9142 8.53727 16.5002C8.53727 16.0863 8.20131 15.7503 7.78734 15.7503H7.12508C4.02342 15.7503 1.50008 13.227 1.50008 10.1253C1.50008 7.02364 4.02342 4.5003 7.12508 4.5003H40.8751C43.9768 4.5003 46.5001 7.02364 46.5001 10.1253C46.5001 13.227 43.9768 15.7503 40.8751 15.7503H12.3994C11.9854 15.7503 11.6495 16.0863 11.6495 16.5002C11.6495 16.9142 11.9854 17.2502 12.3994 17.2502H40.8751C44.8041 17.2502 48.0002 14.054 48.0002 10.1251C48.0002 6.19615 44.8038 3 40.8751 3Z" fill="url(#paint0_linear)"/>
<path d="M18.3078 7.59217V6.63635H14.4023V13.5562H15.5245V10.716H18.1326V9.75516H15.5245V7.59217H18.3078Z" fill="url(#paint1_linear)"/>
<path d="M22.7996 10.494C23.6955 10.1279 24.1437 9.514 24.1437 8.65267C24.1437 7.97723 23.9293 7.47207 23.4999 7.13809C23.071 6.80322 22.4101 6.63623 21.5164 6.63623H19.5615V13.5561H20.6933V10.7919H21.81L23.4667 13.5561H24.7546L22.7996 10.494ZM21.4791 9.85457H20.6936V7.59226H21.4413C21.9555 7.59226 22.3409 7.6773 22.5964 7.84802C22.8517 8.01853 22.9792 8.29912 22.9792 8.69024C22.9792 9.07542 22.8614 9.36568 22.6247 9.56168C22.3874 9.75723 22.0058 9.85457 21.4791 9.85457Z" fill="url(#paint2_linear)"/>
<path d="M29.6732 7.59217V6.63635H25.7588V13.5562H29.6732V12.5951H26.8902V10.4227H29.4981V9.47589H26.8902V7.59217H29.6732Z" fill="url(#paint3_linear)"/>
<path d="M35.0836 7.59217V6.63635H31.1689V13.5562H35.0836V12.5951H32.3003V10.4227H34.9085V9.47589H32.3003V7.59217H35.0836Z" fill="url(#paint4_linear)"/>
<path d="M18.0229 20.25L12.7502 19.5882V13.125C12.7502 11.6774 11.5722 10.4999 10.1251 10.4999C8.67796 10.4999 7.5 11.6774 7.5 13.125V30.8516C7.5 32.3528 8.39956 33.6626 9.75 34.2176V44.2501C9.75 44.6641 10.086 45.0001 10.4999 45.0001H20.2501C20.6641 45.0001 21 44.6641 21 44.2501V34.2174C22.3505 33.6624 23.25 32.3526 23.25 30.8514V25.5261C23.25 22.6328 20.9097 20.2762 18.0229 20.25ZM21.7502 30.8516C21.7502 31.8558 21.0642 32.7149 20.0824 32.9404C19.7416 33.0184 19.5002 33.3218 19.5002 33.6712V43.5H11.2501V33.6712C11.2501 33.3216 11.0086 33.0184 10.6678 32.9404C9.68606 32.7149 9.00008 31.8562 9.00008 30.8516V13.125C9.00008 12.5047 9.50479 12 10.1251 12C10.7454 12 11.2501 12.5047 11.2501 13.125V20.25C11.2501 20.628 11.5313 20.9472 11.9066 20.994L17.8808 21.744C17.912 21.7481 17.943 21.7499 17.9742 21.7499C20.0561 21.7499 21.7499 23.4438 21.7499 25.5261V30.8516H21.7502Z" fill="url(#paint5_linear)"/>
<path d="M11.9999 19.5001C11.586 19.5001 11.25 19.8361 11.25 20.2501V24.0001C11.25 24.4141 11.586 24.7501 11.9999 24.7501C12.4139 24.7501 12.7499 24.4141 12.7499 24.0001V20.2501C12.7501 19.8361 12.4139 19.5001 11.9999 19.5001Z" fill="url(#paint6_linear)"/>
<path d="M15.0009 20.25C14.5869 20.25 14.251 20.586 14.251 20.9999V23.2499C14.251 23.6639 14.5869 23.9999 15.0009 23.9999C15.4149 23.9999 15.7508 23.6639 15.7508 23.2499V20.9999C15.7508 20.586 15.4149 20.25 15.0009 20.25Z" fill="url(#paint7_linear)"/>
<path d="M17.9999 20.25C17.586 20.25 17.25 20.586 17.25 20.9999V23.2499C17.25 23.6639 17.586 23.9999 17.9999 23.9999C18.4139 23.9999 18.7499 23.6639 18.7499 23.2499V20.9999C18.7499 20.586 18.4139 20.25 17.9999 20.25Z" fill="url(#paint8_linear)"/>
<path d="M31.5906 21.5304L29.4695 19.409C29.1766 19.1161 28.7018 19.1165 28.4091 19.409C28.1162 19.7023 28.1162 20.1769 28.4091 20.4698L30.5302 22.5913C30.6767 22.7378 30.8683 22.811 31.0604 22.811C31.2524 22.811 31.4444 22.7376 31.5906 22.5913C31.8834 22.2979 31.8834 21.8231 31.5906 21.5304Z" fill="url(#paint9_linear)"/>
<path d="M31.5906 19.4094C31.2977 19.1165 30.8228 19.1165 30.5302 19.4094L28.4091 21.5308C28.1162 21.8242 28.1162 22.2988 28.4091 22.5917C28.5557 22.738 28.7473 22.811 28.9393 22.811C29.1314 22.811 29.323 22.7376 29.4695 22.5917L31.5906 20.4702C31.8834 20.1769 31.8834 19.7023 31.5906 19.4094Z" fill="url(#paint10_linear)"/>
<path d="M39.0906 29.0304L36.9695 26.909C36.6766 26.6161 36.2018 26.6165 35.9091 26.909C35.6162 27.2023 35.6162 27.6769 35.9091 27.9698L38.0302 30.0913C38.1767 30.2378 38.3683 30.311 38.5604 30.311C38.7524 30.311 38.9444 30.2374 39.0906 30.0913C39.3835 29.7979 39.3835 29.3233 39.0906 29.0304Z" fill="url(#paint11_linear)"/>
<path d="M39.0906 26.9092C38.7977 26.6164 38.3228 26.6164 38.0302 26.9092L35.9091 29.0307C35.6162 29.324 35.6162 29.7987 35.9091 30.0916C36.0557 30.2379 36.2473 30.3108 36.4393 30.3108C36.6314 30.3108 36.823 30.2372 36.9695 30.0916L39.0906 27.9701C39.3835 27.677 39.3835 27.2021 39.0906 26.9092Z" fill="url(#paint12_linear)"/>
</g>
<defs>
<linearGradient id="paint0_linear" x1="24.0001" y1="3" x2="24.0001" y2="17.2502" gradientUnits="userSpaceOnUse">
<stop stop-color="#FD9590"/>
<stop offset="1" stop-color="#F8D6B8"/>
</linearGradient>
<linearGradient id="paint1_linear" x1="16.3551" y1="6.63635" x2="16.3551" y2="13.5562" gradientUnits="userSpaceOnUse">
<stop stop-color="#FD9590"/>
<stop offset="1" stop-color="#F8D6B8"/>
</linearGradient>
<linearGradient id="paint2_linear" x1="22.158" y1="6.63623" x2="22.158" y2="13.5561" gradientUnits="userSpaceOnUse">
<stop stop-color="#FD9590"/>
<stop offset="1" stop-color="#F8D6B8"/>
</linearGradient>
<linearGradient id="paint3_linear" x1="27.716" y1="6.63635" x2="27.716" y2="13.5562" gradientUnits="userSpaceOnUse">
<stop stop-color="#FD9590"/>
<stop offset="1" stop-color="#F8D6B8"/>
</linearGradient>
<linearGradient id="paint4_linear" x1="33.1263" y1="6.63635" x2="33.1263" y2="13.5562" gradientUnits="userSpaceOnUse">
<stop stop-color="#FD9590"/>
<stop offset="1" stop-color="#F8D6B8"/>
</linearGradient>
<linearGradient id="paint5_linear" x1="15.375" y1="10.4999" x2="15.375" y2="45.0001" gradientUnits="userSpaceOnUse">
<stop stop-color="#FD9590"/>
<stop offset="1" stop-color="#F8D6B8"/>
</linearGradient>
<linearGradient id="paint6_linear" x1="11.9999" y1="19.5001" x2="11.9999" y2="24.7501" gradientUnits="userSpaceOnUse">
<stop stop-color="#FD9590"/>
<stop offset="1" stop-color="#F8D6B8"/>
</linearGradient>
<linearGradient id="paint7_linear" x1="15.0009" y1="20.25" x2="15.0009" y2="23.9999" gradientUnits="userSpaceOnUse">
<stop stop-color="#FD9590"/>
<stop offset="1" stop-color="#F8D6B8"/>
</linearGradient>
<linearGradient id="paint8_linear" x1="17.9999" y1="20.25" x2="17.9999" y2="23.9999" gradientUnits="userSpaceOnUse">
<stop stop-color="#FD9590"/>
<stop offset="1" stop-color="#F8D6B8"/>
</linearGradient>
<linearGradient id="paint9_linear" x1="29.9998" y1="19.1895" x2="29.9998" y2="22.811" gradientUnits="userSpaceOnUse">
<stop stop-color="#FD9590"/>
<stop offset="1" stop-color="#F8D6B8"/>
</linearGradient>
<linearGradient id="paint10_linear" x1="29.9998" y1="19.1897" x2="29.9998" y2="22.811" gradientUnits="userSpaceOnUse">
<stop stop-color="#FD9590"/>
<stop offset="1" stop-color="#F8D6B8"/>
</linearGradient>
<linearGradient id="paint11_linear" x1="37.4998" y1="26.6895" x2="37.4998" y2="30.311" gradientUnits="userSpaceOnUse">
<stop stop-color="#FD9590"/>
<stop offset="1" stop-color="#F8D6B8"/>
</linearGradient>
<linearGradient id="paint12_linear" x1="37.4998" y1="26.6896" x2="37.4998" y2="30.3108" gradientUnits="userSpaceOnUse">
<stop stop-color="#FD9590"/>
<stop offset="1" stop-color="#F8D6B8"/>
</linearGradient>
<clipPath id="clip0">
<rect width="48" height="48" fill="white"/>
</clipPath>
</defs>
</svg>
