<svg width="72" height="72" viewBox="0 0 72 72" fill="none" xmlns="http://www.w3.org/2000/svg">
<rect width="72" height="72" fill="url(#paint0_linear)"/>
<path d="M43.2741 41.0849C43.1493 40.7386 42.7675 40.5591 42.4213 40.6839C42.075 40.8087 41.8955 41.1905 42.0203 41.5367C42.0234 41.5452 42.0266 41.5537 42.03 41.5621C42.6378 43.1481 42.6818 44.361 42.15 44.8941C41.5049 45.5379 39.8982 45.3366 37.851 44.357C35.1102 42.9339 32.6189 41.0748 30.4745 38.8525C25.2546 33.6318 23.1007 28.5092 24.4329 27.177C24.858 26.8413 25.4105 26.7124 25.9403 26.8251C26.3073 26.8521 26.6268 26.5764 26.6538 26.2094C26.6798 25.8546 26.4227 25.5419 26.0696 25.499C25.143 25.3351 24.1924 25.6052 23.4906 26.232C21.0489 28.6731 24.7814 35.0406 29.5322 39.7921C31.7831 42.1214 34.3986 44.0682 37.2759 45.5558C37.7969 45.8053 38.3339 46.0202 38.8832 46.1989L34.1484 47.9942C27.8259 45.5905 23.2744 39.9854 22.2197 33.304C22.1627 32.9403 21.8216 32.6918 21.458 32.7488C21.0944 32.8059 20.8459 33.1469 20.9029 33.5105C21.0075 34.1769 21.1475 34.8434 21.3188 35.4951C22.8533 41.3094 26.8952 46.1396 32.3478 48.6753L24.5548 51.6242C24.5191 51.5645 24.4741 51.511 24.4216 51.4655C22.441 49.8754 21.1983 47.5434 20.9829 45.0127L20.6737 41.2682C20.6494 40.9054 20.3355 40.631 19.9726 40.6553C19.9657 40.6558 19.9588 40.6563 19.952 40.6571C19.5851 40.6862 19.3113 41.0074 19.3404 41.3742C19.3405 41.3757 19.3407 41.3773 19.3409 41.3788L19.6554 45.122C19.8897 47.827 21.1515 50.3394 23.1814 52.1426L17.6222 54.2471L18.6218 50.1447C18.709 49.787 18.4898 49.4263 18.132 49.339C17.7742 49.2518 17.4135 49.4711 17.3263 49.8289L16.0262 55.1601C15.9385 55.5176 16.1573 55.8784 16.5148 55.966C16.6459 55.9981 16.7836 55.9896 16.9098 55.9418L41.5669 46.6121C41.6061 46.5929 41.6432 46.5697 41.6775 46.5428C42.2111 46.4608 42.7058 46.2141 43.0923 45.8371C43.7526 45.1767 44.321 43.8152 43.2741 41.0849Z" fill="white"/>
<path d="M49.5623 39.3663C45.9598 38.0176 42.0661 37.6395 38.2714 38.27L35.8903 38.6699C35.5289 38.7394 35.2922 39.0886 35.3617 39.4501C35.4289 39.7993 35.7583 40.0343 36.1103 39.984L38.4907 39.5875C42.0544 38.995 45.7114 39.3504 49.0945 40.6178C49.1696 40.6444 49.2488 40.6577 49.3284 40.6571C49.6965 40.6577 49.9953 40.3599 49.9959 39.9918C49.9964 39.7132 49.8235 39.4637 49.5623 39.3663Z" fill="white"/>
<path d="M51.9319 29.0415C51.7737 28.7091 51.376 28.568 51.0436 28.7263L37.0491 35.3904C36.7168 35.5486 36.5756 35.9462 36.7338 36.2785C36.7338 36.2786 36.7339 36.2787 36.7339 36.2787C36.8921 36.611 37.2897 36.7522 37.622 36.594C37.6221 36.594 37.6221 36.5939 37.6222 36.5939L51.6167 29.9298C51.9491 29.7715 52.0902 29.3739 51.9319 29.0415Z" fill="white"/>
<path d="M32.1914 20.5229C32.1181 20.1622 31.7663 19.9292 31.4056 20.0025C31.0449 20.0758 30.8119 20.4276 30.8853 20.7883C30.8868 20.7963 30.8887 20.8042 30.8906 20.8121C31.7341 24.5805 31.3865 28.518 29.8956 32.0804L28.9267 34.4055C28.7867 34.7443 28.9465 35.1325 29.2845 35.2745C29.3655 35.3085 29.4526 35.3259 29.5404 35.3258C29.8094 35.3258 30.052 35.1642 30.1555 34.9159L31.1252 32.5935C32.7224 28.7776 33.0951 24.5597 32.1914 20.5229Z" fill="white"/>
<path d="M52.6604 39.9906C51.5562 39.9906 50.6611 40.8857 50.6611 41.9898C50.6611 43.094 51.5562 43.989 52.6604 43.989C53.7645 43.989 54.6596 43.094 54.6596 41.9898C54.6596 40.8857 53.7645 39.9906 52.6604 39.9906ZM52.6604 42.6562C52.2923 42.6562 51.9939 42.3578 51.9939 41.9898C51.9939 41.6218 52.2923 41.3234 52.6604 41.3234C53.0284 41.3234 53.3268 41.6218 53.3268 41.9898C53.3268 42.3578 53.0284 42.6562 52.6604 42.6562Z" fill="white"/>
<path d="M36.6672 21.3313C35.563 21.3313 34.668 22.2264 34.668 23.3305C34.668 24.4347 35.563 25.3297 36.6672 25.3297C37.7713 25.3297 38.6664 24.4347 38.6664 23.3305C38.6664 22.2264 37.7713 21.3313 36.6672 21.3313ZM36.6672 23.9969C36.2992 23.9969 36.0008 23.6985 36.0008 23.3305C36.0008 22.9625 36.2992 22.6641 36.6672 22.6641C37.0352 22.6641 37.3336 22.9625 37.3336 23.3305C37.3336 23.6985 37.0352 23.9969 36.6672 23.9969Z" fill="white"/>
<path d="M30.6697 18.6656C31.4058 18.6656 32.0025 18.0689 32.0025 17.3328C32.0025 16.5967 31.4058 16 30.6697 16C29.9336 16 29.3369 16.5967 29.3369 17.3328C29.3369 18.0689 29.9336 18.6656 30.6697 18.6656Z" fill="white"/>
<path d="M49.3285 19.332C48.9605 19.332 48.6621 19.6304 48.6621 19.9984V20.6648C48.6621 21.0329 48.9605 21.3313 49.3285 21.3313C49.6965 21.3313 49.9949 21.0329 49.9949 20.6648V19.9984C49.9949 19.6304 49.6965 19.332 49.3285 19.332Z" fill="white"/>
<path d="M49.3285 16C48.9605 16 48.6621 16.2984 48.6621 16.6664V17.3328C48.6621 17.7008 48.9605 17.9992 49.3285 17.9992C49.6965 17.9992 49.9949 17.7008 49.9949 17.3328V16.6664C49.9949 16.2984 49.6965 16 49.3285 16Z" fill="white"/>
<path d="M51.3279 17.9993H50.6615C50.2935 17.9993 49.9951 18.2977 49.9951 18.6657C49.9951 19.0337 50.2935 19.3321 50.6615 19.3321H51.3279C51.696 19.3321 51.9943 19.0337 51.9943 18.6657C51.9943 18.2977 51.696 17.9993 51.3279 17.9993Z" fill="white"/>
<path d="M47.9959 17.9993H47.3295C46.9615 17.9993 46.6631 18.2977 46.6631 18.6657C46.6631 19.0337 46.9615 19.3321 47.3295 19.3321H47.9959C48.3639 19.3321 48.6623 19.0337 48.6623 18.6657C48.6623 18.2977 48.3639 17.9993 47.9959 17.9993Z" fill="white"/>
<path d="M44.6638 23.3164H41.3178C40.9498 23.3164 40.6514 23.6148 40.6514 23.9828V27.3288C40.6514 27.6969 40.9498 27.9952 41.3178 27.9952H44.6638C45.0318 27.9952 45.3302 27.6969 45.3302 27.3288V23.9828C45.3302 23.6148 45.0318 23.3164 44.6638 23.3164ZM43.9974 26.6624H41.9842V24.6492H43.9974V26.6624Z" fill="white"/>
<path d="M39.8088 28.8813C39.5642 28.6202 39.157 28.5989 38.8864 28.833L32.2224 34.8307C31.949 35.0769 31.9269 35.4982 32.173 35.7717C32.4193 36.0451 32.8405 36.0671 33.114 35.821L39.7781 29.8233C40.0467 29.5717 40.0605 29.15 39.8088 28.8813Z" fill="white"/>
<path d="M51.9945 31.3274C51.6265 31.3274 51.3281 31.6258 51.3281 31.9938V32.6602C51.3281 33.0282 51.6265 33.3266 51.9945 33.3266C52.3626 33.3266 52.6609 33.0282 52.6609 32.6602V31.9938C52.6609 31.6258 52.3626 31.3274 51.9945 31.3274Z" fill="white"/>
<path d="M54.8222 31.2127L54.351 30.7416C54.0863 30.4858 53.6645 30.4932 53.4087 30.7579C53.1593 31.0161 53.1593 31.4255 53.4087 31.6839L53.8799 32.155C54.1446 32.4107 54.5664 32.4034 54.8222 32.1387C55.0717 31.8804 55.0717 31.4709 54.8222 31.2127Z" fill="white"/>
<path d="M55.326 28.6617H54.6596C54.2915 28.6617 53.9932 28.9601 53.9932 29.3281C53.9932 29.6962 54.2915 29.9946 54.6596 29.9946H55.326C55.694 29.9946 55.9924 29.6962 55.9924 29.3281C55.9924 28.9601 55.694 28.6617 55.326 28.6617Z" fill="white"/>
<path d="M54.8061 26.5013C54.5479 26.2519 54.1385 26.2519 53.8801 26.5013L53.409 26.9724C53.1488 27.2327 53.1488 27.6547 53.4092 27.9149C53.5341 28.0398 53.7035 28.11 53.8801 28.11C54.0569 28.11 54.2263 28.0397 54.3513 27.9147L54.8224 27.4436C55.0782 27.1788 55.0709 26.7569 54.8061 26.5013Z" fill="white"/>
<path d="M51.9945 25.3297C51.6265 25.3297 51.3281 25.6281 51.3281 25.9961V26.6625C51.3281 27.0305 51.6265 27.3289 51.9945 27.3289C52.3626 27.3289 52.6609 27.0305 52.6609 26.6625V25.9961C52.6609 25.6281 52.3626 25.3297 51.9945 25.3297Z" fill="white"/>
<path d="M50.581 26.9724L50.1098 26.5013C49.8451 26.2456 49.4233 26.2529 49.1675 26.5176C48.9181 26.7758 48.9181 27.1853 49.1675 27.4436L49.6387 27.9147C49.9034 28.1705 50.3253 28.1631 50.581 27.8984C50.8305 27.6401 50.8305 27.2307 50.581 26.9724Z" fill="white"/>
<path d="M23.9729 18.8815C23.8944 18.6404 23.6859 18.4648 23.4351 18.4284L21.4792 18.1438L20.6069 16.3718C20.4124 16.0417 19.9872 15.9317 19.6571 16.1261C19.5556 16.1858 19.4711 16.2704 19.4113 16.3718L18.535 18.1438L16.5791 18.4284C16.2148 18.4809 15.9622 18.8189 16.0147 19.1832C16.0356 19.3282 16.1038 19.4622 16.2086 19.5646L17.6234 20.944L17.2902 22.892C17.2262 23.2544 17.4681 23.6001 17.8305 23.6641C17.9765 23.6898 18.1267 23.6662 18.2578 23.597L20.0071 22.6747L21.7564 23.5943C22.0822 23.7656 22.4851 23.6404 22.6564 23.3146C22.7246 23.1849 22.7481 23.0364 22.7234 22.892L22.3902 20.944L23.8056 19.5646C23.9868 19.3872 24.0516 19.1225 23.9729 18.8815ZM21.2066 20.2343C21.0497 20.3872 20.978 20.6074 21.0147 20.8234L21.18 21.7864L20.317 21.3312C20.123 21.2294 19.8912 21.2294 19.6972 21.3312L18.8309 21.7857L18.9962 20.8228C19.0336 20.6076 18.9631 20.3877 18.8076 20.2343L18.1072 19.5526L19.0741 19.412C19.2912 19.3805 19.4789 19.2441 19.5759 19.0475L20.0071 18.1725L20.4389 19.0475C20.5359 19.244 20.7232 19.3802 20.9401 19.412L21.9064 19.5526L21.2066 20.2343Z" fill="white"/>
<path d="M53.7419 49.4037H53.7393L53.4647 48.9918C51.9252 46.6896 49.5044 45.1242 46.7733 44.6648C46.409 44.6129 46.0714 44.8661 46.0195 45.2305C45.9692 45.5825 46.2042 45.9119 46.5534 45.979C48.5233 46.3134 50.3185 47.3141 51.6388 48.8139C50.5288 49.0136 49.558 49.6802 48.9731 50.6445C48.2554 51.9299 48.7157 53.5537 50.0011 54.2714C51.2865 54.9892 52.9103 54.5289 53.628 53.2435C53.9021 52.7143 54.0502 52.1288 54.0605 51.5328C54.7696 52.5627 54.8263 53.9076 54.2064 54.9935C54.0187 55.31 54.1231 55.7189 54.4396 55.9066C54.7561 56.0944 55.165 55.99 55.3527 55.6735C55.3587 55.6633 55.3645 55.6531 55.37 55.6426C56.5902 53.4631 55.8715 50.7091 53.7419 49.4037ZM52.4658 52.5931C52.1101 53.2376 51.2993 53.4717 50.6549 53.116C50.0105 52.7603 49.7763 51.9495 50.132 51.3051C50.134 51.3015 50.136 51.2978 50.138 51.2943C50.5313 50.6503 51.1946 50.2187 51.9426 50.1201C52.0585 50.1169 52.1732 50.1435 52.2759 50.1974C52.8383 50.5112 52.8683 51.872 52.4658 52.5931Z" fill="white"/>
<defs>
<linearGradient id="paint0_linear" x1="36" y1="0" x2="36" y2="72" gradientUnits="userSpaceOnUse">
<stop stop-color="#FD9590"/>
<stop offset="1" stop-color="#F8D6B8"/>
</linearGradient>
</defs>
</svg>
