<svg width="40" height="40" viewBox="0 0 40 40" fill="none" xmlns="http://www.w3.org/2000/svg">
<path d="M27.2741 25.0849C27.1493 24.7386 26.7675 24.5591 26.4213 24.6839C26.075 24.8087 25.8955 25.1905 26.0203 25.5367C26.0234 25.5452 26.0266 25.5537 26.03 25.5621C26.6378 27.1481 26.6818 28.361 26.15 28.8941C25.5049 29.5379 23.8982 29.3366 21.851 28.357C19.1102 26.9339 16.6189 25.0748 14.4745 22.8525C9.25456 17.6318 7.10073 12.5092 8.43288 11.177C8.85796 10.8413 9.4105 10.7124 9.94029 10.8251C10.3073 10.8521 10.6268 10.5764 10.6538 10.2094C10.6798 9.85461 10.4227 9.5419 10.0696 9.499C9.14302 9.33506 8.19239 9.6052 7.49058 10.232C5.04887 12.6731 8.78141 19.0406 13.5322 23.7921C15.7831 26.1214 18.3986 28.0682 21.2759 29.5558C21.7969 29.8053 22.3339 30.0202 22.8832 30.1989L18.1484 31.9942C11.8259 29.5905 7.27442 23.9854 6.21974 17.304C6.16268 16.9403 5.82165 16.6918 5.45804 16.7488C5.09443 16.8059 4.84586 17.1469 4.90292 17.5105C5.00755 18.1769 5.14749 18.8434 5.31876 19.4951C6.85333 25.3094 10.8952 30.1396 16.3478 32.6753L8.55483 35.6242C8.5191 35.5645 8.47411 35.511 8.42155 35.4655C6.44099 33.8754 5.19831 31.5434 4.98289 29.0127L4.67368 25.2682C4.64935 24.9054 4.33548 24.631 3.97262 24.6553C3.9657 24.6558 3.95879 24.6563 3.95196 24.6571C3.5851 24.6862 3.31129 25.0074 3.34045 25.3742C3.34053 25.3757 3.3407 25.3773 3.34086 25.3788L3.65541 29.122C3.88965 31.827 5.15149 34.3394 7.18137 36.1426L1.6222 38.2471L2.62181 34.1447C2.70903 33.787 2.48978 33.4263 2.132 33.339C1.77423 33.2518 1.41353 33.4711 1.32632 33.8289L0.0261562 39.1601C-0.0614763 39.5176 0.157272 39.8784 0.514799 39.966C0.645915 39.9981 0.783611 39.9896 0.909812 39.9418L25.5669 30.6121C25.6061 30.5929 25.6432 30.5697 25.6775 30.5428C26.2111 30.4608 26.7058 30.2141 27.0923 29.8371C27.7526 29.1767 28.321 27.8152 27.2741 25.0849Z" fill="white"/>
<path d="M33.5623 23.3663C29.9598 22.0176 26.0661 21.6395 22.2714 22.27L19.8903 22.6699C19.5289 22.7394 19.2922 23.0886 19.3617 23.4501C19.4289 23.7993 19.7583 24.0343 20.1103 23.984L22.4907 23.5875C26.0544 22.995 29.7114 23.3504 33.0945 24.6178C33.1696 24.6444 33.2488 24.6577 33.3284 24.6571C33.6965 24.6577 33.9953 24.3599 33.9959 23.9918C33.9964 23.7132 33.8235 23.4637 33.5623 23.3663Z" fill="white"/>
<path d="M35.9319 13.0415C35.7737 12.7091 35.376 12.568 35.0436 12.7263L21.0491 19.3904C20.7168 19.5486 20.5756 19.9462 20.7338 20.2785C20.7338 20.2786 20.7339 20.2787 20.7339 20.2787C20.8921 20.611 21.2897 20.7522 21.622 20.594C21.6221 20.594 21.6221 20.5939 21.6222 20.5939L35.6167 13.9298C35.9491 13.7715 36.0902 13.3739 35.9319 13.0415Z" fill="white"/>
<path d="M16.1914 4.52288C16.1181 4.16218 15.7663 3.92919 15.4056 4.00249C15.0449 4.0758 14.8119 4.42758 14.8853 4.78827C14.8868 4.79627 14.8887 4.80418 14.8906 4.8121C15.7341 8.58054 15.3865 12.518 13.8956 16.0804L12.9267 18.4055C12.7867 18.7443 12.9465 19.1325 13.2845 19.2745C13.3655 19.3085 13.4526 19.3259 13.5404 19.3258C13.8094 19.3258 14.052 19.1642 14.1555 18.9159L15.1252 16.5935C16.7224 12.7776 17.0951 8.55972 16.1914 4.52288Z" fill="white"/>
<path d="M36.6604 23.9906C35.5562 23.9906 34.6611 24.8857 34.6611 25.9898C34.6611 27.094 35.5562 27.989 36.6604 27.989C37.7645 27.989 38.6596 27.094 38.6596 25.9898C38.6596 24.8857 37.7645 23.9906 36.6604 23.9906ZM36.6604 26.6562C36.2923 26.6562 35.9939 26.3578 35.9939 25.9898C35.9939 25.6218 36.2923 25.3234 36.6604 25.3234C37.0284 25.3234 37.3268 25.6218 37.3268 25.9898C37.3268 26.3578 37.0284 26.6562 36.6604 26.6562Z" fill="white"/>
<path d="M20.6672 5.3313C19.563 5.3313 18.668 6.22637 18.668 7.33052C18.668 8.43467 19.563 9.32974 20.6672 9.32974C21.7713 9.32974 22.6664 8.43467 22.6664 7.33052C22.6664 6.22637 21.7713 5.3313 20.6672 5.3313ZM20.6672 7.99693C20.2992 7.99693 20.0008 7.69854 20.0008 7.33052C20.0008 6.9625 20.2992 6.66411 20.6672 6.66411C21.0352 6.66411 21.3336 6.9625 21.3336 7.33052C21.3336 7.69854 21.0352 7.99693 20.6672 7.99693Z" fill="white"/>
<path d="M14.6697 2.66563C15.4058 2.66563 16.0025 2.06891 16.0025 1.33281C16.0025 0.596721 15.4058 0 14.6697 0C13.9336 0 13.3369 0.596721 13.3369 1.33281C13.3369 2.06891 13.9336 2.66563 14.6697 2.66563Z" fill="white"/>
<path d="M33.3285 3.33203C32.9605 3.33203 32.6621 3.63041 32.6621 3.99844V4.66485C32.6621 5.03287 32.9605 5.33125 33.3285 5.33125C33.6965 5.33125 33.9949 5.03287 33.9949 4.66485V3.99844C33.9949 3.63041 33.6965 3.33203 33.3285 3.33203Z" fill="white"/>
<path d="M33.3285 0C32.9605 0 32.6621 0.298384 32.6621 0.666407V1.33281C32.6621 1.70084 32.9605 1.99922 33.3285 1.99922C33.6965 1.99922 33.9949 1.70084 33.9949 1.33281V0.666407C33.9949 0.298384 33.6965 0 33.3285 0Z" fill="white"/>
<path d="M35.3279 1.99927H34.6615C34.2935 1.99927 33.9951 2.29765 33.9951 2.66567C33.9951 3.0337 34.2935 3.33208 34.6615 3.33208H35.3279C35.696 3.33208 35.9943 3.0337 35.9943 2.66567C35.9943 2.29765 35.696 1.99927 35.3279 1.99927Z" fill="white"/>
<path d="M31.9959 1.99927H31.3295C30.9615 1.99927 30.6631 2.29765 30.6631 2.66567C30.6631 3.0337 30.9615 3.33208 31.3295 3.33208H31.9959C32.3639 3.33208 32.6623 3.0337 32.6623 2.66567C32.6623 2.29765 32.3639 1.99927 31.9959 1.99927Z" fill="white"/>
<path d="M28.6638 7.31641H25.3178C24.9498 7.31641 24.6514 7.61479 24.6514 7.98281V11.3288C24.6514 11.6969 24.9498 11.9952 25.3178 11.9952H28.6638C29.0318 11.9952 29.3302 11.6969 29.3302 11.3288V7.98281C29.3302 7.61479 29.0318 7.31641 28.6638 7.31641ZM27.9974 10.6624H25.9842V8.64922H27.9974V10.6624Z" fill="white"/>
<path d="M23.8088 12.8813C23.5642 12.6202 23.157 12.5989 22.8864 12.833L16.2224 18.8307C15.949 19.0769 15.9269 19.4982 16.173 19.7717C16.4193 20.0451 16.8405 20.0671 17.114 19.821L23.7781 13.8233C24.0467 13.5717 24.0605 13.15 23.8088 12.8813Z" fill="white"/>
<path d="M35.9945 15.3274C35.6265 15.3274 35.3281 15.6258 35.3281 15.9938V16.6602C35.3281 17.0282 35.6265 17.3266 35.9945 17.3266C36.3626 17.3266 36.6609 17.0282 36.6609 16.6602V15.9938C36.6609 15.6258 36.3626 15.3274 35.9945 15.3274Z" fill="white"/>
<path d="M38.8222 15.2127L38.351 14.7416C38.0863 14.4858 37.6645 14.4932 37.4087 14.7579C37.1593 15.0161 37.1593 15.4255 37.4087 15.6839L37.8799 16.155C38.1446 16.4107 38.5664 16.4034 38.8222 16.1387C39.0717 15.8804 39.0717 15.4709 38.8222 15.2127Z" fill="white"/>
<path d="M39.326 12.6617H38.6596C38.2915 12.6617 37.9932 12.9601 37.9932 13.3281C37.9932 13.6962 38.2915 13.9946 38.6596 13.9946H39.326C39.694 13.9946 39.9924 13.6962 39.9924 13.3281C39.9924 12.9601 39.694 12.6617 39.326 12.6617Z" fill="white"/>
<path d="M38.8061 10.5013C38.5479 10.2519 38.1385 10.2519 37.8801 10.5013L37.409 10.9724C37.1488 11.2327 37.1488 11.6547 37.4092 11.9149C37.5341 12.0398 37.7035 12.11 37.8801 12.11C38.0569 12.11 38.2263 12.0397 38.3513 11.9147L38.8224 11.4436C39.0782 11.1788 39.0709 10.7569 38.8061 10.5013Z" fill="white"/>
<path d="M35.9945 9.32971C35.6265 9.32971 35.3281 9.6281 35.3281 9.99612V10.6625C35.3281 11.0305 35.6265 11.3289 35.9945 11.3289C36.3626 11.3289 36.6609 11.0305 36.6609 10.6625V9.99612C36.6609 9.6281 36.3626 9.32971 35.9945 9.32971Z" fill="white"/>
<path d="M34.581 10.9724L34.1098 10.5013C33.8451 10.2456 33.4233 10.2529 33.1675 10.5176C32.9181 10.7758 32.9181 11.1853 33.1675 11.4436L33.6387 11.9147C33.9034 12.1705 34.3253 12.1631 34.581 11.8984C34.8305 11.6401 34.8305 11.2307 34.581 10.9724Z" fill="white"/>
<path d="M7.97288 2.88152C7.89441 2.64045 7.68591 2.46485 7.43509 2.42836L5.47919 2.14381L4.60686 0.37183C4.41243 0.0417087 3.98718 -0.0683318 3.65706 0.126092C3.5556 0.185819 3.47105 0.27037 3.41132 0.37183L2.535 2.14381L0.579094 2.42836C0.214819 2.48093 -0.0378323 2.81888 0.0147306 3.18315C0.0356391 3.32818 0.103779 3.46221 0.208572 3.56459L1.62335 4.94405L1.29015 6.89196C1.22618 7.2544 1.46808 7.6001 1.83052 7.66407C1.97647 7.68981 2.12674 7.66624 2.25777 7.59701L4.00709 6.67471L5.75641 7.59435C6.0822 7.76562 6.48513 7.64041 6.65639 7.31462C6.72462 7.18493 6.74811 7.0364 6.72337 6.89196L6.39016 4.94405L7.80561 3.56459C7.98679 3.38724 8.0516 3.12251 7.97288 2.88152ZM5.20662 4.23433C5.04969 4.38718 4.97796 4.60743 5.0147 4.82343L5.17997 5.78639L4.31697 5.33123C4.12296 5.22935 3.89122 5.22935 3.69721 5.33123L2.83088 5.78572L2.99615 4.82276C3.03355 4.6076 2.96308 4.38768 2.80756 4.23433L2.10717 3.55259L3.07412 3.41198C3.2912 3.38049 3.47888 3.24413 3.57593 3.04745L4.00709 2.17246L4.43892 3.04745C4.53589 3.24396 4.72323 3.38024 4.94006 3.41198L5.90635 3.55259L5.20662 4.23433Z" fill="white"/>
<path d="M37.7419 33.4037H37.7393L37.4647 32.9918C35.9252 30.6896 33.5044 29.1242 30.7733 28.6648C30.409 28.6129 30.0714 28.8661 30.0195 29.2305C29.9692 29.5825 30.2042 29.9119 30.5534 29.979C32.5233 30.3134 34.3185 31.3141 35.6388 32.8139C34.5288 33.0136 33.558 33.6802 32.9731 34.6445C32.2554 35.9299 32.7157 37.5537 34.0011 38.2714C35.2865 38.9892 36.9103 38.5289 37.628 37.2435C37.9021 36.7143 38.0502 36.1288 38.0605 35.5328C38.7696 36.5627 38.8263 37.9076 38.2064 38.9935C38.0187 39.31 38.1231 39.7189 38.4396 39.9066C38.7561 40.0944 39.165 39.99 39.3527 39.6735C39.3587 39.6633 39.3645 39.6531 39.37 39.6426C40.5902 37.4631 39.8715 34.7091 37.7419 33.4037ZM36.4658 36.5931C36.1101 37.2376 35.2993 37.4717 34.6549 37.116C34.0105 36.7603 33.7763 35.9495 34.132 35.3051C34.134 35.3015 34.136 35.2978 34.138 35.2943C34.5313 34.6503 35.1946 34.2187 35.9426 34.1201C36.0585 34.1169 36.1732 34.1435 36.2759 34.1974C36.8383 34.5112 36.8683 35.872 36.4658 36.5931Z" fill="white"/>
</svg>
