<svg width="72" height="72" viewBox="0 0 72 72" fill="none" xmlns="http://www.w3.org/2000/svg">
<rect x="1" y="1" width="70" height="70" stroke="url(#paint0_linear)" stroke-width="2"/>
<path d="M53.5352 19.1312H18.4648C17.1056 19.1312 16 20.2369 16 21.5959V45.3938C16 46.7529 17.1056 47.8585 18.4648 47.8585H30.3262L29.8464 51.6967H27.8586C27.5349 51.6967 27.2727 51.959 27.2727 52.2826C27.2727 52.6062 27.5349 52.8686 27.8586 52.8686H44.1414C44.4651 52.8686 44.7273 52.6062 44.7273 52.2826C44.7273 51.959 44.4651 51.6967 44.1414 51.6967H42.1537L41.6738 47.8585H53.5352C54.8943 47.8585 56 46.7529 56 45.3938V21.5959C56 20.2369 54.8944 19.1312 53.5352 19.1312ZM31.0274 51.6967L31.5073 47.8585H33.6637L33.8753 48.7046C34.1195 49.6814 34.9933 50.3635 36.0001 50.3635C37.0069 50.3635 37.8806 49.6814 38.1248 48.7046L38.3364 47.8585H40.4929L40.9726 51.6967H31.0274ZM34.8716 47.8585H37.1283L36.9878 48.4204C36.8743 48.8745 36.4681 49.1916 35.9999 49.1916C35.5317 49.1916 35.1256 48.8744 35.012 48.4204L34.8716 47.8585ZM54.8281 45.3938C54.8281 46.1067 54.2481 46.6866 53.5352 46.6866H18.4648C17.7519 46.6866 17.1719 46.1067 17.1719 45.3938V21.5959C17.1719 20.883 17.7519 20.3031 18.4648 20.3031H53.5352C54.2481 20.3031 54.8281 20.883 54.8281 21.5959V45.3938Z" fill="url(#paint1_linear)"/>
<path d="M49.1513 21.6365H19.0908C18.7671 21.6365 18.5049 21.8987 18.5049 22.2224V44.7677C18.5049 45.0914 18.7671 45.3537 19.0908 45.3537H20.3434C20.6671 45.3537 20.9293 45.0914 20.9293 44.7677C20.9294 44.4441 20.6671 44.1818 20.3435 44.1818H19.6768V22.8083H49.1513C49.475 22.8083 49.7372 22.546 49.7372 22.2224C49.7372 21.8987 49.475 21.6365 49.1513 21.6365Z" fill="url(#paint2_linear)"/>
<path d="M52.9091 21.6365H51.6565C51.3329 21.6365 51.0706 21.8987 51.0706 22.2224C51.0706 22.546 51.3329 22.8083 51.6565 22.8083H52.3232V44.1818H22.8486C22.525 44.1818 22.2627 44.4441 22.2627 44.7677C22.2627 45.0914 22.525 45.3537 22.8486 45.3537H52.909C53.2327 45.3537 53.495 45.0914 53.495 44.7677V22.2224C53.495 21.8987 53.2327 21.6365 52.9091 21.6365Z" fill="url(#paint3_linear)"/>
<path d="M43.9765 28.1237C43.8712 27.9891 43.7124 27.9072 43.5417 27.8995L29.7641 27.2732C29.7533 27.2727 29.7427 27.2725 29.7319 27.2726C29.6503 27.0049 29.478 26.7727 29.2447 26.6171L27.5574 25.4922C27.2882 25.3128 26.9244 25.3855 26.7449 25.6548C26.5655 25.9241 26.6382 26.2879 26.9074 26.4673L28.5946 27.592C28.6026 27.5973 28.6084 27.6054 28.6111 27.6146L30.7602 35.1365C30.8273 35.3711 30.9376 35.5818 31.0792 35.7639L30.2929 37.3365C30.1036 37.715 30.1234 38.1559 30.3459 38.5159C30.4266 38.6465 30.529 38.7576 30.6466 38.8467C30.4927 39.1154 30.4041 39.4261 30.4041 39.7574C30.4041 40.7711 31.2289 41.5958 32.2426 41.5958C33.2563 41.5958 34.081 40.7711 34.081 39.7574C34.081 39.5223 34.0362 39.2976 33.9554 39.0908H39.2974C39.2166 39.2976 39.1717 39.5223 39.1717 39.7574C39.1717 40.7711 39.9965 41.5958 41.0102 41.5958C42.0238 41.5958 42.8486 40.7711 42.8486 39.7574C42.8486 39.4633 42.7788 39.1854 42.6556 38.9387C42.7738 38.8315 42.8486 38.6772 42.8486 38.5049C42.8486 38.1813 42.5863 37.919 42.2627 37.919H31.3769C31.3685 37.919 31.3544 37.919 31.3426 37.8998C31.3308 37.8808 31.3371 37.8682 31.3409 37.8606L32.0652 36.4119C32.2127 36.4498 32.3663 36.4703 32.5234 36.4703C32.5959 36.4703 32.669 36.466 32.7426 36.4574L40.9759 35.4888C42.0392 35.3636 42.8948 34.5743 43.1048 33.5243L44.0896 28.5997C44.1231 28.4322 44.0818 28.2583 43.9765 28.1237ZM41.01 39.091C41.3776 39.091 41.6766 39.39 41.6766 39.7575C41.6766 40.1251 41.3776 40.4241 41.01 40.4241C40.6424 40.4241 40.3435 40.1251 40.3435 39.7575C40.3435 39.39 40.6424 39.091 41.01 39.091ZM32.2424 39.091C32.61 39.091 32.909 39.39 32.909 39.7575C32.909 40.1251 32.61 40.4241 32.2424 40.4241C31.8749 40.4241 31.5759 40.1251 31.5759 39.7575C31.5759 39.39 31.8749 39.091 32.2424 39.091ZM30.8056 31.0302L30.0713 28.4603L32.4138 28.5668L32.82 31.0302H30.8056ZM32.6057 35.2936C32.279 35.332 31.977 35.1305 31.8869 34.8147L31.1404 32.2021H33.0132L33.5055 35.1877L32.6057 35.2936ZM36.0403 34.8895L34.6706 35.0507L34.201 32.2022H36.0403V34.8895ZM36.0403 31.0302H34.0077L33.6106 28.6212L36.0403 28.7317V31.0302ZM39.0077 34.5404L37.2122 34.7516V32.2021H39.2193L39.0077 34.5404ZM39.3254 31.0302H37.2122V28.7849L39.5192 28.8897L39.3254 31.0302ZM41.9556 33.2946C41.8454 33.8452 41.3967 34.2593 40.8389 34.325L40.197 34.4005L40.396 32.2022H42.174L41.9556 33.2946ZM42.4085 31.0302H40.5021L40.691 28.943L42.8067 29.0392L42.4085 31.0302Z" fill="url(#paint4_linear)"/>
<defs>
<linearGradient id="paint0_linear" x1="36" y1="0" x2="36" y2="72" gradientUnits="userSpaceOnUse">
<stop stop-color="#FD9590"/>
<stop offset="1" stop-color="#F8D6B8"/>
</linearGradient>
<linearGradient id="paint1_linear" x1="36" y1="19.1312" x2="36" y2="52.8686" gradientUnits="userSpaceOnUse">
<stop stop-color="#FD9590"/>
<stop offset="1" stop-color="#F8D6B8"/>
</linearGradient>
<linearGradient id="paint2_linear" x1="34.1211" y1="21.6365" x2="34.1211" y2="45.3537" gradientUnits="userSpaceOnUse">
<stop stop-color="#FD9590"/>
<stop offset="1" stop-color="#F8D6B8"/>
</linearGradient>
<linearGradient id="paint3_linear" x1="37.8788" y1="21.6365" x2="37.8788" y2="45.3537" gradientUnits="userSpaceOnUse">
<stop stop-color="#FD9590"/>
<stop offset="1" stop-color="#F8D6B8"/>
</linearGradient>
<linearGradient id="paint4_linear" x1="35.3737" y1="25.3938" x2="35.3737" y2="41.5958" gradientUnits="userSpaceOnUse">
<stop stop-color="#FD9590"/>
<stop offset="1" stop-color="#F8D6B8"/>
</linearGradient>
</defs>
</svg>
