<svg width="48" height="48" viewBox="0 0 48 48" fill="none" xmlns="http://www.w3.org/2000/svg">
<g clip-path="url(#clip0)">
<path d="M47.1497 20.5635C46.652 19.812 45.8976 19.2942 45.0205 19.0979C45.5863 18.0157 45.5633 16.6655 44.8426 15.5775C44.3299 14.803 43.5564 14.3027 42.7145 14.1134C42.8647 13.827 42.9756 13.5179 43.0419 13.192C43.2257 12.2856 43.0463 11.362 42.5354 10.5912C42.0378 9.83933 41.2834 9.32151 40.4063 9.12558C40.9721 8.04343 40.949 6.69321 40.2283 5.60483C39.1747 4.01364 37.0221 3.57602 35.4306 4.62997L31.9845 6.9122C30.1476 5.98056 28.1939 5.31955 26.1662 4.94308C25.5253 3.97006 24.78 3.06552 23.9458 2.25693L22.5202 0.87521C21.4761 -0.136997 19.8388 -0.288975 18.6266 0.514126C17.1925 1.46371 16.7985 3.40317 17.7481 4.83725C17.7854 4.89401 17.822 4.95114 17.8583 5.00827C13.1851 5.95383 8.92603 8.43381 5.77369 12.0677C2.35291 16.0115 0.46875 21.0622 0.46875 26.2895C0.46875 27.2915 0.537232 28.2953 0.67273 29.2723C1.7168 36.8679 6.77637 43.4136 13.8765 46.3553C16.5095 47.4467 19.3034 48.0004 22.1792 48.0004C26.7338 48.0004 31.0935 46.6055 34.7875 43.9669C38.4013 41.3851 41.105 37.8223 42.6068 33.6636C42.7471 33.2761 42.5461 32.848 42.1586 32.7081C41.7708 32.5682 41.343 32.7689 41.2032 33.1567C39.8046 37.0294 37.2862 40.3473 33.9196 42.7522C30.4805 45.2091 26.4207 46.5077 22.1792 46.5077C19.9863 46.5077 17.8451 46.1616 15.7958 45.479L21.8683 41.4576C21.8687 41.4573 21.869 41.4573 21.8694 41.4569C21.8698 41.4569 21.8698 41.4565 21.8701 41.4562L26.9169 38.1141H26.9173C27.3703 37.8138 27.6797 37.3553 27.7881 36.8225C27.8965 36.2897 27.791 35.7462 27.4907 35.2932L27.4241 35.1921L28.4044 34.5428C29.1039 34.0796 29.9451 33.8979 30.7735 34.0309C31.9728 34.2235 33.1908 33.9598 34.203 33.2893L42.3344 27.9045C42.2787 28.6098 42.1872 29.3111 42.0594 30.0007C41.9839 30.4061 42.2516 30.7958 42.657 30.8708C42.7028 30.8796 42.7489 30.8837 42.794 30.8837C43.1466 30.8837 43.4601 30.6324 43.5268 30.2732C43.7337 29.1603 43.8527 28.0203 43.8835 26.8788L46.1748 25.3612C46.9457 24.8507 47.472 24.0703 47.6558 23.1643C47.84 22.2579 47.6602 21.3343 47.1497 20.5635ZM30.5354 7.87168L28.255 9.38193L27.806 8.17233C27.6185 7.6677 27.4036 7.17294 27.1655 6.68881C28.3224 6.98215 29.4489 7.37766 30.5354 7.87168ZM6.90125 13.0459C9.93091 9.55332 14.0577 7.20554 18.5724 6.39145C19.2968 8.14633 19.4704 10.107 19.0375 11.9758L17.2178 19.8373C16.9318 19.5318 16.5604 19.3213 16.1422 19.2363C15.609 19.1275 15.0659 19.2334 14.6129 19.5337L9.4585 22.9468C9.45814 22.9468 9.45814 22.9468 9.45777 22.9471C9.45777 22.9471 9.4574 22.9471 9.4574 22.9475L2.02332 27.8705C1.98267 27.3461 1.96143 26.8176 1.96143 26.2895C1.96143 21.4219 3.71594 16.7182 6.90125 13.0459ZM26.3255 36.5248C26.2965 36.6669 26.2138 36.7895 26.0925 36.8697H26.0929L21.6603 39.8049L13.4334 27.5358C13.2037 27.1933 12.7401 27.1022 12.3977 27.3318C12.0557 27.5614 11.9641 28.0246 12.1937 28.3671L20.4155 40.6293L14.0878 44.8198C7.79993 42.0696 3.3003 36.2615 2.21851 29.503L9.66138 24.5903L10.518 25.8684C10.6622 26.083 10.8981 26.1991 11.1387 26.1991C11.2815 26.1991 11.4262 26.1584 11.5536 26.0727C11.896 25.8431 11.9876 25.3795 11.7579 25.0371L10.9072 23.7682L15.4373 20.7781C15.5577 20.6979 15.7024 20.67 15.8445 20.699C15.9866 20.7279 16.1093 20.8106 16.1895 20.9315L26.2464 36.1175C26.3262 36.238 26.3544 36.3827 26.3255 36.5248ZM46.1931 22.8669C46.0884 23.3826 45.7892 23.8264 45.3505 24.1168L42.731 25.8515C42.7303 25.8519 42.7295 25.8526 42.7284 25.853L33.3787 32.0449C32.6792 32.5082 31.838 32.6902 31.0097 32.5569C29.8107 32.3646 28.5927 32.6279 27.5801 33.2985L26.5998 33.9477L18.3629 21.5101L20.4921 12.3127C21.0403 9.94333 20.7514 7.4476 19.7069 5.27341C19.6974 5.2507 19.6871 5.22873 19.6754 5.20712C19.4747 4.79623 19.247 4.39743 18.9924 4.01291C18.4973 3.2651 18.7028 2.254 19.4509 1.75851C20.083 1.33993 20.937 1.41903 21.4812 1.94674L22.9069 3.32883C24.449 4.82407 25.6593 6.67856 26.4064 8.69199L27.1828 10.7834C27.1842 10.7874 27.1857 10.7907 27.1872 10.7944C27.189 10.7992 27.1912 10.8043 27.193 10.8091C27.1985 10.8219 27.2036 10.8336 27.2091 10.8435C27.2241 10.875 27.2406 10.9061 27.2604 10.9358C27.4882 11.2796 27.9511 11.3738 28.2946 11.146L36.2549 5.87473C37.1602 5.27524 38.3844 5.5239 38.9839 6.42917C39.5834 7.33444 39.3347 8.55869 38.4295 9.15818L37.7384 9.61594C37.7384 9.61594 37.7381 9.61594 37.7377 9.61631L36.1963 10.6373C36.1941 10.6388 36.1927 10.6402 36.1905 10.6413C36.1817 10.6476 36.1732 10.6534 36.1663 10.6593C35.8477 10.8933 35.7653 11.3382 35.9861 11.6715C36.2135 12.0154 36.6768 12.1095 37.0207 11.8817L38.5631 10.86C39.0015 10.5703 39.5263 10.4681 40.0415 10.5728C40.5568 10.6776 41.001 10.9768 41.291 11.4155C41.5815 11.8539 41.684 12.3794 41.5793 12.8946C41.4745 13.4103 41.1753 13.8541 40.7366 14.1445L38.5034 15.6236C38.1596 15.8511 38.0655 16.3139 38.2932 16.6578C38.4368 16.8746 38.6741 16.9922 38.9162 16.9922C39.0575 16.9922 39.2007 16.9519 39.3274 16.868L39.6731 16.6391L40.8692 15.847C41.7748 15.2475 42.9987 15.4962 43.5982 16.4015C44.1977 17.3071 43.949 18.531 43.0437 19.1308L41.9283 19.8695C41.9224 19.8731 41.9165 19.8772 41.9107 19.8812L40.8106 20.6096C40.4667 20.837 40.3726 21.3003 40.6004 21.6441C40.7439 21.8609 40.9812 21.9785 41.2233 21.9785C41.3647 21.9785 41.5078 21.9382 41.6346 21.8544L41.9803 21.6255C41.9803 21.6255 41.9803 21.6251 41.9806 21.6251L43.1767 20.8334C43.615 20.5429 44.1402 20.4404 44.6558 20.5455C45.1714 20.6499 45.6153 20.9494 45.9057 21.3878C46.1957 21.8262 46.2979 22.3517 46.1931 22.8669Z" fill="url(#paint0_linear)"/>
</g>
<defs>
<linearGradient id="paint0_linear" x1="24.0975" y1="0.000366211" x2="24.0975" y2="48.0004" gradientUnits="userSpaceOnUse">
<stop stop-color="#FD9590"/>
<stop offset="1" stop-color="#F8D6B8"/>
</linearGradient>
<clipPath id="clip0">
<rect width="48" height="48" fill="white"/>
</clipPath>
</defs>
</svg>
