<svg width="72" height="72" viewBox="0 0 72 72" fill="none" xmlns="http://www.w3.org/2000/svg">
<rect x="1" y="1.00024" width="70" height="70" stroke="url(#paint0_linear)" stroke-width="2"/>
<g clip-path="url(#clip0)">
<path d="M40.6875 36.3127C40.2563 36.3127 39.9062 36.6628 39.9062 37.094C39.9062 37.5252 40.2563 37.8752 40.6875 37.8752C41.1187 37.8752 41.4688 37.5252 41.4688 37.094C41.4688 36.6628 41.1187 36.3127 40.6875 36.3127Z" fill="url(#paint1_linear)"/>
<path d="M23.9828 44.8897L16.1703 54.7335C15.9838 54.9681 15.9484 55.2889 16.0787 55.5587C16.2091 55.8287 16.4825 56.0002 16.7822 56.0002H55.2197C55.5194 56.0002 55.7928 55.8287 55.9231 55.5587C56.0537 55.2889 56.018 54.9681 55.8316 54.7335L48.0191 44.8897C47.871 44.7029 47.6455 44.594 47.4072 44.594H40.5636L46.4062 35.4302C47.7767 33.3754 48.5009 30.9792 48.5009 28.5002C48.5009 21.6078 42.8936 16.0002 36.0009 16.0002C29.1082 16.0002 23.5009 21.6078 23.5009 28.5002C23.5009 30.9792 24.2251 33.3751 25.5957 35.4302L31.4382 44.594H24.5947C24.3563 44.594 24.1311 44.7029 23.9828 44.8897ZM21.0659 51.0784H25.7897L23.1237 54.4377H18.3996L21.0659 51.0784ZM32.4346 46.1565L34.5764 49.5159H29.0246L31.6909 46.1565H32.4346ZM39.5675 46.1565H40.3112L42.9772 49.5159H37.4258L39.5675 46.1565ZM44.2175 51.0784L46.8835 54.4377H25.1184L27.7847 51.0784H44.2175ZM48.8784 54.4377L46.2121 51.0784H50.9362L53.6022 54.4377H48.8784ZM49.696 49.5159H44.9722L42.3059 46.1565H47.03L49.696 49.5159ZM26.9 34.5696C25.6985 32.7709 25.0634 30.6722 25.0634 28.5002C25.0634 22.4694 29.97 17.5627 36.0009 17.5627C42.0318 17.5627 46.9384 22.4694 46.9384 28.5002C46.9384 30.6722 46.3034 32.7709 45.1022 34.5696C45.0988 34.5742 45.0961 34.5787 45.093 34.5833C44.58 35.3881 36.3961 48.2244 36.0009 48.8439C35.007 47.2847 27.9211 36.1708 26.9088 34.5833C26.9061 34.5787 26.903 34.5742 26.9 34.5696ZM29.696 46.1565L27.03 49.5159H22.3059L24.9722 46.1565H29.696Z" fill="url(#paint2_linear)"/>
<path d="M36 36.3127C40.2889 36.3127 43.8125 32.8395 43.8125 28.5002C43.8125 24.1924 40.3079 20.6877 36 20.6877C31.6921 20.6877 28.1875 24.1924 28.1875 28.5002C28.1875 32.8408 31.7123 36.3127 36 36.3127ZM36 22.2502C39.4464 22.2502 42.25 25.0539 42.25 28.5002C42.25 31.9786 39.4238 34.7502 36 34.7502C32.5753 34.7502 29.75 31.9786 29.75 28.5002C29.75 25.0539 32.5536 22.2502 36 22.2502Z" fill="url(#paint3_linear)"/>
<path d="M39.291 38.9787C38.9217 38.756 38.4414 38.875 38.2186 39.2446L35.331 44.0352C35.1083 44.4048 35.2273 44.8848 35.5968 45.1076C35.9679 45.3313 36.4474 45.2098 36.6692 44.8418L39.5568 40.0511C39.7796 39.6816 39.6606 39.2015 39.291 38.9787Z" fill="url(#paint4_linear)"/>
</g>
<defs>
<linearGradient id="paint0_linear" x1="36" y1="0.000244141" x2="36" y2="72.0002" gradientUnits="userSpaceOnUse">
<stop stop-color="#FD9590"/>
<stop offset="1" stop-color="#F8D6B8"/>
</linearGradient>
<linearGradient id="paint1_linear" x1="40.6875" y1="36.3127" x2="40.6875" y2="37.8752" gradientUnits="userSpaceOnUse">
<stop stop-color="#FD9590"/>
<stop offset="1" stop-color="#F8D6B8"/>
</linearGradient>
<linearGradient id="paint2_linear" x1="36.001" y1="16.0002" x2="36.001" y2="56.0002" gradientUnits="userSpaceOnUse">
<stop stop-color="#FD9590"/>
<stop offset="1" stop-color="#F8D6B8"/>
</linearGradient>
<linearGradient id="paint3_linear" x1="36" y1="20.6877" x2="36" y2="36.3127" gradientUnits="userSpaceOnUse">
<stop stop-color="#FD9590"/>
<stop offset="1" stop-color="#F8D6B8"/>
</linearGradient>
<linearGradient id="paint4_linear" x1="37.4439" y1="38.8665" x2="37.4439" y2="45.2199" gradientUnits="userSpaceOnUse">
<stop stop-color="#FD9590"/>
<stop offset="1" stop-color="#F8D6B8"/>
</linearGradient>
<clipPath id="clip0">
<rect x="16" y="16.0002" width="40" height="40" fill="white"/>
</clipPath>
</defs>
</svg>
