<svg width="30" height="26" viewBox="0 0 30 26" fill="none" xmlns="http://www.w3.org/2000/svg">
<path d="M1.24999 14.2499L26.1869 14.2499L16.6381 23.3449C16.1381 23.8212 16.1187 24.6124 16.595 25.1124C17.0706 25.6118 17.8619 25.6318 18.3625 25.1556L29.2675 14.7681C29.7394 14.2956 30 13.6681 30 12.9999C30 12.3324 29.7394 11.7043 29.2456 11.2112L18.3619 0.844937C18.12 0.614312 17.81 0.499938 17.5 0.499938C17.17 0.499938 16.84 0.629937 16.5944 0.888062C16.1181 1.38806 16.1375 2.17869 16.6375 2.65494L26.2262 11.7499L1.24999 11.7499C0.559993 11.7499 -6.47626e-06 12.3099 -6.53658e-06 12.9999C-6.5969e-06 13.6899 0.559993 14.2499 1.24999 14.2499Z" fill="url(#paint0_linear)"/>
<defs>
<linearGradient id="paint0_linear" x1="15" y1="25.5002" x2="15" y2="0.499938" gradientUnits="userSpaceOnUse">
<stop stop-color="#FD9590"/>
<stop offset="1" stop-color="#F8D6B8"/>
</linearGradient>
</defs>
</svg>
