<svg width="48" height="48" viewBox="0 0 48 48" fill="none" xmlns="http://www.w3.org/2000/svg">
<g clip-path="url(#clip0)">
<path d="M48 3.27007C48.0037 2.3936 47.6654 1.57076 47.0476 0.952945C46.4298 0.335133 45.6053 -0.00255479 44.7306 0.000632712C43.8566 0.00428896 43.0339 0.347695 42.4139 0.96757C42.1514 1.23007 41.6739 1.79707 41.4128 2.11179C41.1384 2.44226 41.1838 2.93257 41.5143 3.20679C41.8447 3.4811 42.335 3.43573 42.6093 3.10526C43.0184 2.61251 43.3566 2.22448 43.5136 2.06735C43.8415 1.73951 44.276 1.55782 44.737 1.55585C44.7396 1.55585 44.7419 1.55585 44.7444 1.55585C45.2002 1.55585 45.6275 1.7321 45.9479 2.05263C46.2701 2.37485 46.4467 2.80488 46.4447 3.26351C46.4427 3.72448 46.261 4.15891 45.9332 4.48695C45.6397 4.78048 44.6307 5.58082 43.1852 6.5906C42.3301 5.12866 40.7442 4.14382 38.9318 4.14382H27.5445C26.0074 4.14382 24.5623 4.74241 23.4753 5.82926L0.713719 28.5911C0.2535 29.0513 0 29.6632 0 30.314C0 30.9649 0.2535 31.5769 0.713719 32.037L15.9637 47.287C16.4389 47.762 17.0627 47.9995 17.6867 47.9995C18.3107 47.9995 18.9347 47.762 19.4096 47.287L42.1714 24.5254C43.2582 23.4384 43.8568 21.9934 43.8568 20.4561V9.06898C43.8568 8.73288 43.8228 8.40476 43.7583 8.08741C45.4037 6.9552 46.6116 6.00804 47.0329 5.58673C47.6529 4.96685 47.9963 4.1441 48 3.27007ZM42.3016 20.4561C42.3016 21.5779 41.8647 22.6324 41.0717 23.4255L18.3099 46.1873C17.9664 46.5309 17.4071 46.5309 17.0635 46.1873L1.8135 30.9373C1.64709 30.7709 1.55531 30.5495 1.55531 30.314C1.55531 30.0785 1.647 29.8573 1.8135 29.6909L24.5752 6.92923C25.3684 6.1361 26.4229 5.69932 27.5445 5.69932H38.9317C40.2104 5.69932 41.3251 6.41529 41.8958 7.46735C40.9773 8.0756 39.9487 8.72238 38.8576 9.35838C38.8236 9.32107 38.7888 9.28413 38.7527 9.24804C37.4792 7.97454 35.4071 7.97454 34.1336 9.24804C32.8601 10.5215 32.8601 12.5936 34.1336 13.8671C34.7704 14.5039 35.6068 14.8221 36.4432 14.8221C37.2795 14.8221 38.1159 14.5039 38.7527 13.8671C39.6027 13.0171 39.8844 11.8115 39.5998 10.7249C40.5488 10.1724 41.4602 9.60776 42.3012 9.06148C42.3013 9.0641 42.3015 9.06654 42.3015 9.06907V20.4561H42.3016ZM35.7487 11.907C35.8853 12.1786 36.1594 12.3353 36.444 12.3353C36.5615 12.3353 36.6808 12.3086 36.7929 12.2522C37.2488 12.0229 37.703 11.7844 38.1527 11.54C38.1572 11.9839 37.9912 12.4293 37.6532 12.7673C36.9861 13.4344 35.9008 13.4344 35.2337 12.7673C34.5667 12.1002 34.5667 11.0149 35.2337 10.3478C35.5672 10.0143 36.0053 9.84757 36.4434 9.84757C36.7903 9.84757 37.1362 9.95388 37.4312 10.1629C36.991 10.4021 36.5443 10.6364 36.094 10.863C35.7101 11.0558 35.5555 11.5234 35.7487 11.907Z" fill="url(#paint0_linear)"/>
<path d="M23.1712 15.8402C22.7417 15.8402 22.3936 16.1883 22.3936 16.6179V33.0409C22.3936 33.4704 22.7417 33.8186 23.1712 33.8186C23.6007 33.8186 23.9489 33.4704 23.9489 33.0409V16.6179C23.9489 16.1883 23.6007 15.8402 23.1712 15.8402Z" fill="url(#paint1_linear)"/>
<path d="M19.615 22.5199C18.3416 21.2463 16.2695 21.2463 14.9961 22.5198C13.7226 23.7933 13.7226 25.8654 14.9961 27.1389C15.633 27.7757 16.4692 28.094 17.3057 28.0939C18.1419 28.0939 18.9785 27.7755 19.6151 27.1389C20.2321 26.5219 20.5718 25.7018 20.5718 24.8294C20.5718 23.9569 20.232 23.1367 19.615 22.5199ZM18.5153 26.039C17.8482 26.7061 16.763 26.7061 16.0959 26.039C15.4289 25.3719 15.4289 24.2867 16.0959 23.6195C16.4295 23.286 16.8676 23.1193 17.3057 23.1193C17.7438 23.1193 18.1819 23.286 18.5154 23.6195C18.8386 23.9427 19.0165 24.3722 19.0165 24.8293C19.0164 25.2863 18.8385 25.7159 18.5153 26.039Z" fill="url(#paint2_linear)"/>
<path d="M31.3465 22.5199C30.073 21.2463 28.0008 21.2464 26.7276 22.5199C25.4541 23.7934 25.4541 25.8654 26.7276 27.1389C27.3643 27.7757 28.2007 28.0939 29.0371 28.0939C29.8735 28.0939 30.7099 27.7757 31.3466 27.1389C32.62 25.8654 32.62 23.7934 31.3465 22.5199ZM30.2467 26.039C29.5796 26.7062 28.4943 26.7061 27.8273 26.039C27.1602 25.3719 27.1602 24.2867 27.8273 23.6195C28.1608 23.286 28.5989 23.1193 29.037 23.1193C29.4751 23.1193 29.9132 23.286 30.2468 23.6195C30.9138 24.2867 30.9138 25.3719 30.2467 26.039Z" fill="url(#paint3_linear)"/>
</g>
<defs>
<linearGradient id="paint0_linear" x1="24" y1="0.000610352" x2="24" y2="47.9995" gradientUnits="userSpaceOnUse">
<stop stop-color="#FD9590"/>
<stop offset="1" stop-color="#F8D6B8"/>
</linearGradient>
<linearGradient id="paint1_linear" x1="23.1712" y1="15.8402" x2="23.1712" y2="33.8186" gradientUnits="userSpaceOnUse">
<stop stop-color="#FD9590"/>
<stop offset="1" stop-color="#F8D6B8"/>
</linearGradient>
<linearGradient id="paint2_linear" x1="17.3064" y1="21.5647" x2="17.3064" y2="28.0939" gradientUnits="userSpaceOnUse">
<stop stop-color="#FD9590"/>
<stop offset="1" stop-color="#F8D6B8"/>
</linearGradient>
<linearGradient id="paint3_linear" x1="29.037" y1="21.5647" x2="29.037" y2="28.0939" gradientUnits="userSpaceOnUse">
<stop stop-color="#FD9590"/>
<stop offset="1" stop-color="#F8D6B8"/>
</linearGradient>
<clipPath id="clip0">
<rect width="48" height="48" fill="white"/>
</clipPath>
</defs>
</svg>
