<svg width="72" height="72" viewBox="0 0 72 72" fill="none" xmlns="http://www.w3.org/2000/svg">
<rect x="1" y="1" width="70" height="70" stroke="url(#paint0_linear)" stroke-width="2"/>
<path d="M54.5669 37.4331L46.8081 29.6744C46.6344 29.4996 46.4278 29.361 46.2001 29.2667C45.9724 29.1724 45.7283 29.1242 45.4819 29.125H34.75V30.375H37.875V39.75H39.125V30.375H45.4819C45.5641 30.3749 45.6454 30.3911 45.7214 30.4225C45.7973 30.4539 45.8663 30.5 45.9244 30.5581L46.9912 31.625H44.125C43.7935 31.625 43.4755 31.7567 43.2411 31.9911C43.0067 32.2255 42.875 32.5435 42.875 32.875V38.5C42.875 38.8315 43.0067 39.1495 43.2411 39.3839C43.4755 39.6183 43.7935 39.75 44.125 39.75H53.5V44.75C53.5 44.9158 53.4342 45.0747 53.3169 45.192C53.1997 45.3092 53.0408 45.375 52.875 45.375H51.575C51.4256 44.3345 50.906 43.3827 50.1116 42.6942C49.3172 42.0058 48.3012 41.6268 47.25 41.6268C46.1988 41.6268 45.1828 42.0058 44.3884 42.6942C43.594 43.3827 43.0744 44.3345 42.925 45.375H34.075C33.9256 44.3345 33.406 43.3827 32.6116 42.6942C31.8172 42.0058 30.8012 41.6268 29.75 41.6268C28.6988 41.6268 27.6828 42.0058 26.8884 42.6942C26.094 43.3827 25.5744 44.3345 25.425 45.375H24.125C23.9592 45.375 23.8003 45.3092 23.6831 45.192C23.5658 45.0747 23.5 44.9158 23.5 44.75V39.125H22.25V44.75C22.25 45.2473 22.4475 45.7242 22.7992 46.0758C23.1508 46.4275 23.6277 46.625 24.125 46.625H25.425C25.5614 47.5753 26.0076 48.4541 26.6944 49.125H17.25V50.375H47.25C48.3009 50.373 49.3161 49.9931 50.1101 49.3046C50.9042 48.6161 51.4241 47.6651 51.575 46.625H52.875C53.3723 46.625 53.8492 46.4275 54.2008 46.0758C54.5525 45.7242 54.75 45.2473 54.75 44.75V37.875C54.75 37.7093 54.6841 37.5503 54.5669 37.4331ZM26.625 46C26.625 45.3819 26.8083 44.7778 27.1517 44.2639C27.495 43.7499 27.9831 43.3494 28.5541 43.1129C29.1251 42.8764 29.7535 42.8145 30.3597 42.9351C30.9658 43.0556 31.5227 43.3533 31.9597 43.7903C32.3967 44.2273 32.6944 44.7842 32.815 45.3904C32.9355 45.9965 32.8736 46.6249 32.6371 47.1959C32.4006 47.7669 32.0001 48.255 31.4862 48.5984C30.9723 48.9417 30.3681 49.125 29.75 49.125C28.9215 49.124 28.1272 48.7945 27.5414 48.2086C26.9556 47.6228 26.626 46.8285 26.625 46ZM32.8056 49.125C33.4924 48.4541 33.9386 47.5753 34.075 46.625H42.925C43.0614 47.5753 43.5076 48.4541 44.1944 49.125H32.8056ZM47.25 49.125C46.6319 49.125 46.0277 48.9417 45.5138 48.5984C44.9999 48.255 44.5994 47.7669 44.3629 47.1959C44.1264 46.6249 44.0645 45.9965 44.185 45.3904C44.3056 44.7842 44.6033 44.2273 45.0403 43.7903C45.4773 43.3533 46.0342 43.0556 46.6403 42.9351C47.2465 42.8145 47.8749 42.8764 48.4459 43.1129C49.0169 43.3494 49.505 43.7499 49.8483 44.2639C50.1917 44.7778 50.375 45.3819 50.375 46C50.374 46.8285 50.0444 47.6228 49.4586 48.2086C48.8728 48.7945 48.0785 49.124 47.25 49.125ZM44.125 38.5V32.875H48.2412L53.5 38.1338V38.5H44.125Z" fill="url(#paint1_linear)"/>
<path d="M30.375 45.375H29.125V46.625H30.375V45.375Z" fill="url(#paint2_linear)"/>
<path d="M47.875 45.375H46.625V46.625H47.875V45.375Z" fill="url(#paint3_linear)"/>
<path d="M20.375 43.5H17.25V44.75H20.375V43.5Z" fill="url(#paint4_linear)"/>
<path d="M20.375 41H18.5V42.25H20.375V41Z" fill="url(#paint5_linear)"/>
<path d="M20.375 38.5H19.125V39.75H20.375V38.5Z" fill="url(#paint6_linear)"/>
<path d="M25.375 37.875C26.982 37.875 28.5529 37.3985 29.889 36.5057C31.2252 35.6129 32.2666 34.3439 32.8815 32.8593C33.4965 31.3746 33.6574 29.741 33.3439 28.1649C33.0304 26.5888 32.2565 25.1411 31.1202 24.0048C29.9839 22.8685 28.5362 22.0946 26.9601 21.7811C25.384 21.4676 23.7503 21.6285 22.2657 22.2435C20.781 22.8584 19.5121 23.8998 18.6193 25.236C17.7265 26.5721 17.25 28.143 17.25 29.75C17.2525 31.9041 18.1093 33.9693 19.6325 35.4925C21.1557 37.0157 23.2209 37.8725 25.375 37.875ZM25.375 22.875C26.7347 22.875 28.064 23.2782 29.1945 24.0336C30.3251 24.7891 31.2063 25.8628 31.7267 27.119C32.247 28.3753 32.3832 29.7576 32.1179 31.0912C31.8526 32.4249 31.1978 33.6499 30.2364 34.6114C29.2749 35.5728 28.0499 36.2276 26.7162 36.4929C25.3826 36.7582 24.0003 36.622 22.7441 36.1017C21.4878 35.5813 20.4141 34.7001 19.6586 33.5695C18.9032 32.439 18.5 31.1097 18.5 29.75C18.5022 27.9273 19.2272 26.1799 20.516 24.891C21.8049 23.6022 23.5523 22.8772 25.375 22.875Z" fill="url(#paint7_linear)"/>
<path d="M25.375 35.375C25.5407 35.375 25.6997 35.3091 25.8169 35.1919C26.2194 34.7894 29.75 31.1813 29.75 28.5C29.75 27.3397 29.2891 26.2269 28.4686 25.4064C27.6481 24.5859 26.5353 24.125 25.375 24.125C24.2147 24.125 23.1019 24.5859 22.2814 25.4064C21.4609 26.2269 21 27.3397 21 28.5C21 31.1813 24.5306 34.7894 24.9331 35.1919C25.0503 35.3091 25.2093 35.375 25.375 35.375ZM25.375 25.375C26.2035 25.376 26.9978 25.7056 27.5836 26.2914C28.1694 26.8772 28.499 27.6715 28.5 28.5C28.5 30.1038 26.5331 32.5819 25.375 33.8444C24.2169 32.5819 22.25 30.1038 22.25 28.5C22.251 27.6715 22.5806 26.8772 23.1664 26.2914C23.7522 25.7056 24.5465 25.376 25.375 25.375Z" fill="url(#paint8_linear)"/>
<path d="M27.25 28.5C27.25 28.1292 27.14 27.7666 26.934 27.4583C26.728 27.15 26.4351 26.9096 26.0925 26.7677C25.7499 26.6258 25.3729 26.5887 25.0092 26.661C24.6455 26.7334 24.3114 26.912 24.0492 27.1742C23.787 27.4364 23.6084 27.7705 23.536 28.1342C23.4637 28.4979 23.5008 28.8749 23.6427 29.2175C23.7846 29.5601 24.025 29.853 24.3333 30.059C24.6416 30.265 25.0042 30.375 25.375 30.375C25.8723 30.375 26.3492 30.1775 26.7008 29.8258C27.0525 29.4742 27.25 28.9973 27.25 28.5ZM24.75 28.5C24.75 28.3764 24.7867 28.2556 24.8553 28.1528C24.924 28.05 25.0216 27.9699 25.1358 27.9226C25.25 27.8753 25.3757 27.8629 25.4969 27.887C25.6182 27.9111 25.7295 27.9707 25.8169 28.0581C25.9043 28.1455 25.9639 28.2568 25.988 28.3781C26.0121 28.4993 25.9997 28.625 25.9524 28.7392C25.9051 28.8534 25.825 28.951 25.7222 29.0197C25.6194 29.0883 25.4986 29.125 25.375 29.125C25.2092 29.125 25.0503 29.0592 24.9331 28.9419C24.8158 28.8247 24.75 28.6658 24.75 28.5Z" fill="url(#paint9_linear)"/>
<path d="M43.5 41H41V42.25H43.5V41Z" fill="url(#paint10_linear)"/>
<defs>
<linearGradient id="paint0_linear" x1="36" y1="0" x2="36" y2="72" gradientUnits="userSpaceOnUse">
<stop stop-color="#FD9590"/>
<stop offset="1" stop-color="#F8D6B8"/>
</linearGradient>
<linearGradient id="paint1_linear" x1="36" y1="29.125" x2="36" y2="50.375" gradientUnits="userSpaceOnUse">
<stop stop-color="#FD9590"/>
<stop offset="1" stop-color="#F8D6B8"/>
</linearGradient>
<linearGradient id="paint2_linear" x1="29.75" y1="45.375" x2="29.75" y2="46.625" gradientUnits="userSpaceOnUse">
<stop stop-color="#FD9590"/>
<stop offset="1" stop-color="#F8D6B8"/>
</linearGradient>
<linearGradient id="paint3_linear" x1="47.25" y1="45.375" x2="47.25" y2="46.625" gradientUnits="userSpaceOnUse">
<stop stop-color="#FD9590"/>
<stop offset="1" stop-color="#F8D6B8"/>
</linearGradient>
<linearGradient id="paint4_linear" x1="18.8125" y1="43.5" x2="18.8125" y2="44.75" gradientUnits="userSpaceOnUse">
<stop stop-color="#FD9590"/>
<stop offset="1" stop-color="#F8D6B8"/>
</linearGradient>
<linearGradient id="paint5_linear" x1="19.4375" y1="41" x2="19.4375" y2="42.25" gradientUnits="userSpaceOnUse">
<stop stop-color="#FD9590"/>
<stop offset="1" stop-color="#F8D6B8"/>
</linearGradient>
<linearGradient id="paint6_linear" x1="19.75" y1="38.5" x2="19.75" y2="39.75" gradientUnits="userSpaceOnUse">
<stop stop-color="#FD9590"/>
<stop offset="1" stop-color="#F8D6B8"/>
</linearGradient>
<linearGradient id="paint7_linear" x1="25.375" y1="21.625" x2="25.375" y2="37.875" gradientUnits="userSpaceOnUse">
<stop stop-color="#FD9590"/>
<stop offset="1" stop-color="#F8D6B8"/>
</linearGradient>
<linearGradient id="paint8_linear" x1="25.375" y1="24.125" x2="25.375" y2="35.375" gradientUnits="userSpaceOnUse">
<stop stop-color="#FD9590"/>
<stop offset="1" stop-color="#F8D6B8"/>
</linearGradient>
<linearGradient id="paint9_linear" x1="25.375" y1="26.625" x2="25.375" y2="30.375" gradientUnits="userSpaceOnUse">
<stop stop-color="#FD9590"/>
<stop offset="1" stop-color="#F8D6B8"/>
</linearGradient>
<linearGradient id="paint10_linear" x1="42.25" y1="41" x2="42.25" y2="42.25" gradientUnits="userSpaceOnUse">
<stop stop-color="#FD9590"/>
<stop offset="1" stop-color="#F8D6B8"/>
</linearGradient>
</defs>
</svg>
