<svg width="12" height="20" viewBox="0 0 12 20" fill="none" xmlns="http://www.w3.org/2000/svg">
<path d="M6 0.410767C2.6856 0.410767 0 3.08557 0 6.39877C0 12.1276 6 19.5988 6 19.5988C6 19.5988 12 12.1264 12 6.39877C12 3.08677 9.3144 0.410767 6 0.410767ZM6 9.71197C5.1407 9.71197 4.31659 9.37061 3.70897 8.76299C3.10136 8.15538 2.76 7.33127 2.76 6.47197C2.76 5.61266 3.10136 4.78856 3.70897 4.18094C4.31659 3.57332 5.1407 3.23197 6 3.23197C6.8593 3.23197 7.68341 3.57332 8.29103 4.18094C8.89864 4.78856 9.24 5.61266 9.24 6.47197C9.24 7.33127 8.89864 8.15538 8.29103 8.76299C7.68341 9.37061 6.8593 9.71197 6 9.71197Z" fill="white"/>
</svg>
